<?xml version="1.0" encoding="utf-8"?>
<!-- Generator: Adobe Illustrator 26.1.0, SVG Export Plug-In . SVG Version: 6.00 Build 0)  -->
<svg version="1.1" id="Layer_1" xmlns="http://www.w3.org/2000/svg" xmlns:xlink="http://www.w3.org/1999/xlink" x="0px" y="0px"
	 viewBox="0 0 256 256" style="enable-background:new 0 0 256 256;" xml:space="preserve">
<style type="text/css">
	.st0{fill:#94C253;}
	.st1{fill:#2C5FA8;}
	.st2{fill:#FFFFFF;}
</style>
<g>
	<g>
		<g>
			<path class="st0" d="M12.25,253.92c-5.51,0-10-4.49-10-10V12.14c0-5.51,4.48-9.99,10-10l232-0.11c5.52,0,10,4.48,10,10v232.01
				c0,5.51-4.49,9.99-10,9.99L12.25,253.92z"/>
		</g>
		<g>
			<g>
				<path class="st1" d="M244.26,4.03c4.41,0,8,3.59,8,7.99v232.01c0,4.41-3.59,7.99-8,7.99l-232-0.11c-4.41,0-8-3.59-8-7.99V112.29
					V12.14c0-4.41,3.59-7.99,8-7.99L244.26,4.03L244.26,4.03L244.26,4.03 M244.26,0.03C244.25,0.03,244.25,0.03,244.26,0.03
					L12.25,0.14c-6.63,0-11.99,5.37-11.99,11.99v100.15v131.63c0,6.62,5.37,11.99,11.99,11.99l232,0.11c0,0,0,0,0.01,0
					c6.63,0,12-5.37,12-11.99V12.02C256.26,5.4,250.88,0.03,244.26,0.03L244.26,0.03z"/>
			</g>
		</g>
	</g>
	<g>
		<polygon class="st1" points="191.11,146.48 96.66,98.37 2.95,115.63 2.26,111.69 97.25,94.19 191.26,142.08 253.12,115.6
			254.64,119.28 		"/>
	</g>
	<g>

			<rect x="94.83" y="58.33" transform="matrix(0.248 -0.9687 0.9687 0.248 57.253 194.4158)" class="st1" width="118.07" height="4"/>
	</g>
	<g>
		<polygon class="st1" points="46.89,253.94 42.93,253.43 62.38,103.26 58.85,0.47 62.85,0.34 66.39,103.45 66.36,103.61 		"/>
	</g>
	<g>
		<polygon class="st1" points="253.31,193.02 190.33,170.28 56.1,170.28 3.18,181.67 2.35,177.75 55.69,166.28 191.02,166.28
			254.64,189.26 		"/>
	</g>
	<g>
		<polygon class="st1" points="191.82,254.03 190.38,167.89 190.38,144.28 194.38,144.28 194.38,167.86 195.82,253.96 		"/>
	</g>
	<g>
		<g>
			<path class="st1" d="M128.26,145.52c0,15.46-28,56-28,56s-28-40.54-28-56s12.54-28,28-28S128.26,130.06,128.26,145.52z"/>
		</g>
		<g>
			<circle class="st2" cx="100.26" cy="145.52" r="14"/>
		</g>
	</g>
	<g>
		<g>
			<path class="st1" d="M212.26,80.28c0,8.84-16,32-16,32s-16-23.16-16-32s7.16-16,16-16C205.09,64.28,212.26,71.44,212.26,80.28z"
				/>
		</g>
		<g>
			<circle class="st2" cx="196.26" cy="80.28" r="8"/>
		</g>
	</g>
</g>
</svg>
