<?xml version="1.0" encoding="utf-8"?>
<!-- Generator: Adobe Illustrator 26.1.0, SVG Export Plug-In . SVG Version: 6.00 Build 0)  -->
<svg version="1.1" id="Layer_1" xmlns="http://www.w3.org/2000/svg" xmlns:xlink="http://www.w3.org/1999/xlink" x="0px" y="0px"
	 viewBox="0 0 256 256" style="enable-background:new 0 0 256 256;" xml:space="preserve">
<style type="text/css">
	.st0{fill:#97CC9A;}
	.st1{fill:#1B401D;}
	.st2{fill:#FFFFFF;}
</style>
<g>
	<g>
		<path class="st0" d="M12.22,253.26c-5.5-0.02-9.97-4.49-9.96-9.97l0.12-130.58L2.26,12c0-2.66,1.03-5.16,2.91-7.04
			c1.89-1.89,4.41-2.93,7.08-2.93L244.27,2.2c5.51,0,9.99,4.47,9.99,9.96v231.9c0,5.49-4.48,9.96-9.99,9.96L12.22,253.26z"/>
		<g>
			<path class="st1" d="M12.26,4.03L244.27,4.2c4.4,0,7.99,3.58,7.99,7.96v231.9c0,4.39-3.59,7.96-8.02,7.96l-232.01-0.77
				c-4.4-0.01-7.97-3.59-7.97-7.97L4.37,112.7L4.26,12c0-2.12,0.82-4.12,2.33-5.62C8.1,4.86,10.11,4.03,12.26,4.03L12.26,4.03
				 M12.26,0.03c-6.63,0-12,5.36-11.99,11.98l0.11,100.7L0.26,243.29c-0.01,6.6,4.54,12.72,11.15,12.74l232.81,0
				c0.01,0,0.03,0,0.04,0c6.62,0,11.99-5.35,11.99-11.96V12.16c0-6.6-5.36-11.96-11.99-11.96L12.26,0.03
				C12.26,0.03,12.26,0.03,12.26,0.03L12.26,0.03z"/>
		</g>
	</g>
	<g>
		<g>
			<polygon class="st2" points="60.68,226.36 58.81,222.62 52.22,219.84 50.17,215.33 45.13,216.13 47.03,209.42 39.12,199.04
				43.6,196.77 43.29,184.22 37.35,173.09 30.73,166.12 26.09,157.17 23.97,147.97 19.95,142.13 14.38,132.84 18.08,131.52
				20.14,125.86 22.42,128.08 24.35,135.2 34.5,136.9 52.45,136.9 57.25,130.22 63.24,127.79 61.6,75.13 68.18,81.49 71.13,90.37
				66.32,95.53 67.95,102.07 86.02,104.72 99.23,90.53 102.85,80.35 107.83,79.17 110.04,78.51 114.33,83.79 119.67,83.79
				124.37,86.32 132.84,84.85 139.36,85.25 144,78.09 146.8,68.43 155.33,68.43 157.77,62.85 161.95,62.85 161.95,52.73
				164.16,52.73 166.96,48.54 171.73,48.54 171.73,45.75 175.2,45.75 176.95,41.91 178.99,41.91 181.52,36.84 182.86,35.28
				192.57,35.28 193.97,29.7 203.8,29.7 209.36,32.48 223.32,32.8 226.35,44.02 226.35,52.02 230.19,57.95 230.19,63.98
				232.55,67.01 230.55,83.36 230.38,86.37 223.55,82.21 218.19,90.46 212.55,94.08 214.21,104.05 216.71,109.04 223.52,113.04
				231.92,113.98 234.01,106.41 241.58,108.4 238.36,112.31 235.18,128.18 232.14,133.41 220.65,139.61 213.78,150.82 204.4,163.67
				197.59,173.2 190.65,178.41 183.38,187.75 176.61,191.82 173.01,194.69 161.99,204.33 156.23,207.04 152.65,209.13
				145.38,207.48 141.43,208.05 139.41,213.1 137.65,213.1 134.92,210.83 131.09,213.57 128.97,215.69 117.25,212.91 114.8,210.87
				108.1,212.09 108.34,213.52 107.97,213.26 105.32,214.02 101.89,212.46 97.74,211.87 96.89,213.56 94.45,212.52 92.76,215.89
				90.42,215.89 88.33,219.38 74.03,219.38 66.71,222.64 64.84,226.36 			"/>
			<path class="st1" d="M203.33,31.7l4.74,2.37l0.8,0.4l0.9,0.02l12.02,0.28l2.57,9.51v7.15v1.18l0.64,0.99l3.2,4.94v4.75v1.37
				l0.84,1.08l1.43,1.84l-1.88,15.35l-2.34-1.42l-3.32-2.02l-2.12,3.26l-4.07,6.26l-4.16,2.68l-2.22,1.42l0.43,2.6l1.4,8.38
				l0.1,0.59l0.27,0.54l2.09,4.19l0.53,1.06l1.02,0.6l5.93,3.49l0.74,0.43l0.85,0.09l6.28,0.7l3.39,0.38l0.91-3.29l1.11-4.02
				l2.64,0.7l-0.92,1.11l-0.64,0.77l-0.2,0.98l-3.01,15.05l-2.59,4.45l-10.52,5.68l-0.95,0.51l-0.56,0.92l-6.55,10.68l-9.35,12.81
				l-6.62,9.27l-6.48,4.86l-0.43,0.32l-0.33,0.42l-6.87,8.83l-6.34,3.8l-0.23,0.14l-0.21,0.17l-3.49,2.79l-0.07,0.06l-0.07,0.06
				l-10.74,9.4l-5.42,2.55l-0.16,0.08l-0.15,0.09l-2.83,1.65l-6.14-1.4l-0.72-0.16l-0.73,0.1l-2.44,0.35l-2.29,0.33l-0.86,2.15
				l-1.01,2.52l-0.74-0.62l-2.37-1.98l-2.51,1.8l-2.44,1.74l-0.27,0.19l-0.24,0.24l-1.21,1.21l-10.18-2.41l-1.37-1.14l-1.44-1.2
				l-1.84,0.33l-3.84,0.7l-3.88,0.71l0.21,1.27l-0.54,0.15l-2.5-1.14l-0.52-0.24l-0.57-0.08l-2.44-0.35l-2.85-0.41l-0.65,1.3
				l-2.44-1.05l-1.69,3.37l-0.29,0.58h-2.23l-1.17,1.94l-0.93,1.55h-5.06h-7.68H73.6l-0.78,0.35l-6.28,2.8l-1.31,0.58l-0.64,1.28
				l-0.99,1.97h-1.69l-0.99-1.97l-0.66-1.32l-1.36-0.57l-5.19-2.19l-1.1-2.42l-1.26-2.77l-3.01,0.47l-0.45,0.07l0.78-2.74l0.55-1.93
				l-1.21-1.59l-5.85-7.67l1.21-0.62l2.25-1.14l-0.06-2.52l-0.26-10.82l-0.02-0.95l-0.45-0.84l-5.58-10.47l-0.26-0.48l-0.37-0.39
				l-6.24-6.57l-4.39-8.47l-1.98-8.58l-0.17-0.74l-0.43-0.63l-3.77-5.48l-4.28-7.15l0.52-0.19l1.77-0.63l0.64-1.77l0.54-1.48
				l1.27,4.65l0.67,2.47l2.53,0.42l8.72,1.46l0.33,0.05h0.33h10.47h6.28h2.05l1.2-1.67l3.86-5.38l4.16-1.69l2.58-1.05l-0.09-2.78
				l-0.96-30.91l0.41,1.64l1.05,4.19l0.65,2.6l2.65,0.39l15.7,2.3l2.08,0.3l1.43-1.54l12.21-13.12l0.56-0.61l0.28-0.78l3.11-8.76
				l3.81-0.9l0.12-0.03l0.12-0.03l0.92-0.28l2.85,3.51l1.2,1.48h1.9h3.88l3.65,1.96l1.22,0.66l1.36-0.24l7.56-1.32l5.11,0.32
				l2.34,0.15l1.27-1.97l3.84-5.93l0.32-0.49l0.16-0.56l2.3-7.93h5.72h2.62l1.05-2.4l1.39-3.19h0.87h4v-4v-6.12h1.28l1.19-1.78
				l1.6-2.41h1.7h4v-2.79h0.19h2.58l1.07-2.34l0.68-1.49h1.99l1.11-2.21l1.87-3.75l0.58-0.67h2.7h2.79h1.74h3.12l0.76-3.03
				l0.64-2.55h0.72H203.33 M63.75,80l2.68,2.59l2.43,7.28l-3.26,3.5l-1.38,1.48L63.75,80 M204.27,27.7h-8.03h-3.84l-1.4,5.58h-1.74
				h-2.79h-4.54l-2.09,2.44l-2.09,4.19h-2.09l-1.74,3.84h-4.19v2.79h-3.84l-2.79,4.19h-3.14v10.12h-3.49l-2.44,5.58h-6.28h-2.44
				l-3.14,10.82l-3.84,5.93l-5.58-0.35l-8.03,1.4l-4.54-2.44h-4.89l-4.54-5.58l-3.49,1.05l-5.93,1.4l-3.84,10.82l-12.21,13.12
				l-15.7-2.3l-1.05-4.19l4.89-5.23l-3.49-10.47L59.45,70.27l1.74,56.19l-5.23,2.13l-4.54,6.31h-6.28H34.67l-8.72-1.46l-1.74-6.41
				l-4.89-4.75l-2.79,7.68l-5.11,1.83l6.86,11.43l3.84,5.58l2.09,9.07l4.89,9.42l6.63,6.98l5.58,10.47l0.26,10.82l-5.5,2.79
				l8.76,11.49l-2.48,8.76l6.63-1.05l1.74,3.84l6.63,2.8l2.09,4.18h6.63l2.09-4.18l6.28-2.8h7.68h7.33l2.09-3.49H94l1.4-2.79
				l2.44,1.05l1.05-2.09l2.44,0.35l3.84,1.74l2.44-0.7l3.49,2.44l-0.7-4.19l3.84-0.7l2.09,1.74l13.27,3.14l2.78-2.79l2.44-1.74
				l2.09,1.74h3.84l2.09-5.23l2.44-0.35l7.68,1.74l4.19-2.44l5.93-2.79l11.17-9.77l3.49-2.79l6.98-4.19l7.33-9.42l6.98-5.23
				l6.98-9.77l9.42-12.91l6.63-10.82l11.52-6.22l3.49-6l3.14-15.7l4.89-5.93l-12.5-3.3l-2.16,7.83l-6.28-0.7l-5.93-3.49l-2.09-4.19
				l-1.4-8.38l4.89-3.14l4.54-6.98l8.03,4.89l0.35-6.28l2.09-17.1l-2.44-3.14v-5.93l-3.84-5.93v-7.68l-3.49-12.91l-15.01-0.35
				L204.27,27.7L204.27,27.7z"/>
		</g>
		<g>
			<polygon class="st0" points="167.51,156.24 163.17,146.11 168.48,142.86 171.54,136.48 179.09,133.54 182.76,130.72
				188.42,136.81 192.36,142.16 185.61,151.26 176.51,154.06 172.41,159.91 			"/>
			<path class="st1" d="M182.53,133.42l4.35,4.67l3,4.07l-5.48,7.39l-7.82,2.41l-1.31,0.4l-0.79,1.13l-2.52,3.59l-2.82-2.11
				l-3.45-8.05l3.33-2.03l1.01-0.62l0.51-1.07l2.46-5.14l6.55-2.55l0.53-0.21l0.45-0.35L182.53,133.42 M182.99,128.03l-4.89,3.75
				l-8.03,3.12l-3.14,6.57l-6.28,3.84l5.23,12.21l6.98,5.23l4.89-6.98l9.07-2.79l8.03-10.82l-4.89-6.63L182.99,128.03L182.99,128.03
				z"/>
		</g>
	</g>
</g>
</svg>
