<?xml version="1.0" encoding="utf-8"?>
<!-- Generator: Adobe Illustrator 26.1.0, SVG Export Plug-In . SVG Version: 6.00 Build 0)  -->
<svg version="1.1" id="Layer_1" xmlns="http://www.w3.org/2000/svg" xmlns:xlink="http://www.w3.org/1999/xlink" x="0px" y="0px"
	 viewBox="0 0 256 256" style="enable-background:new 0 0 256 256;" xml:space="preserve">
<style type="text/css">
	.st0{fill:#97CC9A;}
	.st1{fill:#1B401D;}
	.st2{fill:#FFFFFF;}
</style>
<g>
	<g>
		<g>
			<path class="st0" d="M12.49,254.03c-5.5-0.02-10.23-5.26-10.23-10.74l0.12-130.58L2.26,12c0-2.66,1.03-5.16,2.91-7.04
				c1.89-1.89,4.4-2.93,7.08-2.93L244.27,2.2c5.51,0,9.99,4.47,9.99,9.96v231.9c0,5.49-4.48,9.96-9.99,9.96L12.49,254.03z"/>
		</g>
		<g>
			<g>
				<path class="st1" d="M12.26,4.03L244.27,4.2c4.4,0,7.99,3.58,7.99,7.96v231.9c0,4.39-3.59,7.96-8.02,7.96l-231.74,0
					c-4.4-0.01-8.24-4.36-8.23-8.74L4.37,112.7L4.26,12c0-2.12,0.82-4.12,2.33-5.62C8.1,4.86,10.11,4.03,12.26,4.03L12.26,4.03
					 M12.26,0.03c-6.63,0-12,5.36-11.99,11.98l0.11,100.7L0.26,243.29c-0.01,6.6,5.61,12.72,12.22,12.74l231.74,0
					c0.01,0,0.03,0,0.04,0c6.62,0,11.99-5.35,11.99-11.96V12.16c0-6.6-5.36-11.96-11.99-11.96L12.26,0.03
					C12.26,0.03,12.26,0.03,12.26,0.03L12.26,0.03z"/>
			</g>
		</g>
	</g>
	<g>
		<g>
			<g>
				<polygon class="st2" points="60.68,226.36 58.81,222.62 52.22,219.84 50.17,215.33 45.13,216.13 47.03,209.42 39.12,199.04
					43.6,196.77 43.29,184.22 37.36,173.09 30.73,166.12 26.09,157.17 23.97,147.97 19.95,142.13 14.38,132.84 18.08,131.52
					20.14,125.86 22.42,128.08 24.35,135.2 34.51,136.9 52.45,136.9 57.25,130.22 63.24,127.79 61.6,75.14 68.18,81.49 71.13,90.37
					66.32,95.53 67.95,102.07 86.02,104.72 99.23,90.53 102.85,80.35 107.83,79.17 110.04,78.51 114.33,83.79 119.67,83.79
					124.37,86.32 132.84,84.85 139.36,85.26 144,78.09 146.8,68.43 155.33,68.43 157.77,62.85 161.95,62.85 161.95,52.73
					164.16,52.73 166.96,48.54 171.73,48.54 171.73,45.75 175.2,45.75 176.95,41.91 178.99,41.91 181.52,36.84 182.86,35.28
					192.57,35.28 193.97,29.7 203.8,29.7 209.36,32.48 223.32,32.8 226.35,44.02 226.35,52.02 230.19,57.95 230.19,63.98
					232.55,67.01 230.55,83.36 230.38,86.37 223.55,82.21 218.19,90.46 212.55,94.08 214.22,104.05 216.71,109.04 223.52,113.04
					231.92,113.98 234.01,106.41 241.58,108.4 238.36,112.31 235.18,128.18 232.14,133.41 220.65,139.61 213.78,150.82
					204.4,163.67 197.59,173.2 190.65,178.41 183.38,187.75 176.61,191.82 173.01,194.69 161.99,204.33 156.23,207.05
					152.65,209.14 145.38,207.48 141.43,208.05 139.41,213.1 137.65,213.1 134.92,210.83 131.09,213.57 128.97,215.69
					117.25,212.91 114.8,210.87 108.1,212.09 108.34,213.52 107.97,213.26 105.32,214.02 101.89,212.46 97.74,211.87 96.89,213.56
					94.45,212.52 92.76,215.89 90.42,215.89 88.33,219.38 74.03,219.38 66.71,222.64 64.84,226.36 				"/>
			</g>
			<g>
				<path class="st1" d="M203.33,31.7l4.74,2.37l0.8,0.4l0.9,0.02l12.02,0.28l2.57,9.51v7.15v1.18L225,53.6l3.2,4.94v4.75v1.37
					l0.84,1.08l1.43,1.84l-1.88,15.35l-2.34-1.42l-3.32-2.02l-2.12,3.26l-4.07,6.26l-4.16,2.68l-2.22,1.42l0.43,2.6l1.4,8.38
					l0.1,0.59l0.27,0.54l2.09,4.19l0.53,1.06l1.02,0.6l5.93,3.49l0.74,0.43l0.85,0.09l6.28,0.7l3.39,0.38l0.91-3.29l1.11-4.02
					l2.64,0.7l-0.92,1.11l-0.64,0.77l-0.2,0.98l-3.01,15.05l-2.59,4.45l-10.52,5.68l-0.95,0.51l-0.56,0.92l-6.55,10.68l-9.35,12.81
					l-6.62,9.27l-6.48,4.86l-0.43,0.32l-0.33,0.42l-6.87,8.83l-6.34,3.8l-0.23,0.14l-0.21,0.17l-3.49,2.79l-0.07,0.06l-0.07,0.06
					l-10.75,9.4l-5.42,2.55l-0.16,0.08l-0.15,0.09l-2.82,1.65l-6.14-1.4l-0.72-0.16l-0.73,0.1l-2.44,0.35l-2.29,0.33l-0.86,2.15
					l-1.01,2.52l-0.74-0.62l-2.37-1.98l-2.51,1.8l-2.44,1.74l-0.27,0.19l-0.24,0.24l-1.21,1.21l-10.18-2.41l-1.37-1.14l-1.44-1.2
					l-1.84,0.33l-3.84,0.7l-3.88,0.71l0.21,1.27l-0.54,0.15l-2.5-1.14l-0.52-0.24l-0.57-0.08l-2.44-0.35l-2.85-0.41l-0.65,1.3
					l-2.44-1.05l-1.69,3.37l-0.29,0.58h-2.24l-1.17,1.94l-0.93,1.55h-5.06h-7.68H73.6l-0.78,0.35l-6.28,2.8l-1.31,0.58l-0.64,1.28
					l-0.99,1.97h-1.69l-0.99-1.97l-0.66-1.32l-1.36-0.57l-5.19-2.19l-1.1-2.42l-1.26-2.77l-3.01,0.47l-0.45,0.07l0.78-2.74
					l0.55-1.93l-1.21-1.59l-5.85-7.67l1.21-0.62l2.25-1.14l-0.06-2.52l-0.26-10.82l-0.02-0.95l-0.45-0.84l-5.58-10.47l-0.26-0.48
					l-0.37-0.39l-6.24-6.57l-4.39-8.47l-1.98-8.58l-0.17-0.74l-0.43-0.63l-3.77-5.48l-4.28-7.15l0.52-0.19l1.77-0.63l0.64-1.77
					l0.54-1.48l1.27,4.65l0.67,2.47l2.53,0.42l8.72,1.46l0.33,0.05h0.33h10.47h6.28h2.05l1.2-1.67l3.86-5.38l4.17-1.69l2.58-1.05
					l-0.09-2.78l-0.96-30.9l0.41,1.64l1.05,4.19l0.65,2.6l2.65,0.39l15.7,2.3l2.08,0.3l1.43-1.54l12.21-13.12l0.56-0.61l0.28-0.78
					l3.11-8.76l3.81-0.9l0.12-0.03l0.12-0.03l0.92-0.28l2.85,3.51l1.2,1.48h1.9h3.88l3.65,1.96l1.22,0.66l1.36-0.24l7.56-1.32
					l5.11,0.32l2.34,0.15l1.27-1.97l3.84-5.93l0.32-0.49l0.16-0.56l2.3-7.93h5.72h2.62l1.05-2.4l1.39-3.19h0.87h4v-4v-6.12h1.28
					l1.19-1.78l1.6-2.41h1.7h4v-2.79h0.19h2.58l1.07-2.34l0.68-1.49h1.99l1.11-2.21l1.87-3.75l0.58-0.67h2.7h2.79h1.74h3.12
					l0.76-3.03l0.64-2.55h0.72H203.33 M63.75,80l2.68,2.59l2.43,7.28l-3.26,3.5l-1.38,1.48L63.75,80 M204.27,27.7h-8.03h-3.84
					l-1.4,5.58h-1.74h-2.79h-4.54l-2.09,2.44l-2.09,4.19h-2.09l-1.74,3.84h-4.19v2.79h-3.84l-2.79,4.19h-3.14v10.12h-3.49
					l-2.44,5.58h-6.28h-2.44l-3.14,10.82l-3.84,5.93l-5.58-0.35l-8.03,1.4l-4.54-2.44h-4.89l-4.54-5.58l-3.49,1.05l-5.93,1.4
					l-3.84,10.82l-12.21,13.12l-15.7-2.3l-1.05-4.19l4.89-5.23l-3.49-10.47L59.45,70.27l1.75,56.19l-5.23,2.13l-4.54,6.31h-6.28
					H34.67l-8.72-1.46l-1.75-6.41l-4.89-4.75l-2.79,7.68l-5.11,1.83l6.86,11.43l3.84,5.58l2.09,9.07l4.89,9.42l6.63,6.98l5.58,10.47
					l0.26,10.82l-5.5,2.79l8.77,11.49l-2.48,8.76l6.63-1.05l1.75,3.84l6.63,2.8l2.09,4.18h6.63l2.09-4.18l6.28-2.8h7.68h7.33
					l2.09-3.49H94l1.4-2.79l2.44,1.05l1.05-2.09l2.44,0.35l3.84,1.74l2.44-0.7l3.49,2.44l-0.7-4.19l3.84-0.7l2.09,1.74l13.27,3.14
					l2.78-2.79l2.44-1.74l2.09,1.74h3.84l2.09-5.23l2.44-0.35l7.68,1.74l4.19-2.44l5.93-2.79l11.17-9.77l3.49-2.79l6.98-4.19
					l7.33-9.42l6.98-5.23l6.98-9.77l9.42-12.91l6.63-10.82l11.52-6.22l3.49-6l3.14-15.7l4.89-5.93l-12.5-3.3l-2.16,7.83l-6.28-0.7
					l-5.93-3.49l-2.09-4.19l-1.4-8.38l4.89-3.14l4.54-6.98l8.03,4.89l0.35-6.28l2.09-17.1l-2.44-3.14v-5.93l-3.84-5.93v-7.68
					l-3.49-12.91l-15.01-0.35L204.27,27.7L204.27,27.7z"/>
			</g>
		</g>
		<g>
			<g>
				<polygon class="st0" points="167.51,156.24 163.17,146.11 168.48,142.86 171.54,136.48 178.83,133.64 183.57,131.59
					188.42,136.81 192.36,142.16 185.61,151.26 176.51,154.06 172.41,159.91 				"/>
			</g>
			<g>
				<g>
					<path class="st1" d="M183.07,133.99l3.81,4.1l3,4.07l-5.48,7.39l-7.82,2.41l-1.31,0.4l-0.79,1.13l-2.52,3.59l-2.82-2.11
						l-3.45-8.05l3.33-2.03l1.01-0.62l0.51-1.07l2.46-5.14l6.55-2.55l0.07-0.03l0.07-0.03L183.07,133.99 M184.08,129.2l-5.97,2.58
						l-8.03,3.12l-3.14,6.57l-6.28,3.84l5.23,12.21l6.98,5.23l4.89-6.98l9.07-2.79l8.03-10.82l-4.89-6.63L184.08,129.2L184.08,129.2
						z"/>
				</g>
			</g>
		</g>
		<g>
			<path class="st1" d="M75.31,202.08c-0.33,0-0.67-0.08-0.97-0.25c-8.32-4.62-7.75-9.67-7.31-12.29c-2.25,0.38-7.01,1.84-9.28,2.53
				c-0.57,0.18-1.2,0.08-1.7-0.25c-0.5-0.33-0.82-0.87-0.88-1.47c-0.42-4.43-3.88-12.57-6.46-16.36c-0.16-0.23-0.26-0.49-0.31-0.75
				c-0.09-0.46-1.78-8.7-2.35-11.51c-1.71-0.88-4.69-2.28-5.9-1.91c-0.72,0.23-1.42,1.59-2.32,3.31c-0.78,1.5-1.74,3.37-3.19,5.45
				c-0.63,0.91-1.88,1.13-2.78,0.5c-0.91-0.63-1.13-1.88-0.5-2.78c1.3-1.87,2.16-3.53,2.92-5c1.32-2.55,2.37-4.57,4.67-5.29
				c2.21-0.69,4.87,0.02,9.8,2.62c0.53,0.28,0.91,0.78,1.03,1.37l1.28,6.24c0.6,2.93,0.95,4.67,1.12,5.74
				c2.51,3.78,5.49,10.56,6.6,15.62c8.22-2.46,10.07-2.63,11.49-1.38c1.22,1.08,0.96,2.62,0.76,3.74c-0.34,1.95-0.79,4.56,4.03,7.64
				c3.75-3.47,9.93-9.02,13.13-11.79c0.24-0.21,0.53-0.36,0.84-0.43c6.13-1.47,6.23-1.84,7.21-5.39c0.36-1.31,0.8-2.93,1.6-5
				c0.27-0.7,0.9-1.19,1.65-1.27c0.74-0.08,1.47,0.26,1.88,0.88c1.87,2.8,4.24,4.4,7.04,4.74c3.36,0.41,7.13-1.04,10.36-3.98
				c0.33-0.3,0.76-0.49,1.21-0.52c1.09-0.07,2.31-0.02,3.6,0.04c5.4,0.26,7.89-0.07,8.47-2.73c0.01-0.06,0.03-0.11,0.04-0.17
				c0,0,1.61-5.19,1.93-6.23c0.7-7.21-2.79-9.99-7.6-13.83c-1.93-1.54-3.92-3.13-5.86-5.17c-0.61-0.64-0.72-1.6-0.29-2.37
				l15.05-26.33c-1.53,0.21-3.15,0.95-4.73,1.67c-2.59,1.18-5.98,2.73-8.67,0.83c-0.18,0.04-0.35,0.05-0.5,0.04
				c-2.16-0.06-2.66-2.18-3.99-7.84c-0.57-2.41-1.6-6.81-2.34-7.91c-0.13-0.06-0.26-0.14-0.37-0.23l-7.18-5.67
				c-0.06-0.05-0.12-0.1-0.17-0.16c-2.32-2.32-4.65-5.41-5.49-15.32c-0.09-1.1,0.72-2.07,1.82-2.16c1.1-0.09,2.07,0.72,2.16,1.82
				c0.77,9.1,2.84,11.33,4.25,12.74l6.82,5.39c2.03,0.9,2.94,4.4,4.39,10.58c0.3,1.27,0.67,2.83,0.99,3.97
				c0.54,0.08,1.04,0.39,1.36,0.87c0.75,1.12,1.45,1.17,5.26-0.58c2.94-1.34,6.59-3.01,10.36-1.49c0.54,0.22,0.95,0.65,1.14,1.2
				c0.19,0.55,0.13,1.15-0.15,1.65l-15.78,27.61c1.44,1.38,2.95,2.58,4.41,3.75c5.18,4.13,10.08,8.04,9.07,17.57l-0.09-0.01
				c-0.16,0.96-0.72,2.78-1.95,6.74c-1.44,6.32-8.12,6-12.55,5.78c-0.89-0.04-1.76-0.09-2.48-0.08c-3.98,3.39-8.67,5.03-12.98,4.5
				c-2.8-0.34-5.33-1.57-7.46-3.59c-0.14,0.48-0.26,0.92-0.37,1.33c-1.35,4.92-2.43,6.33-9.66,8.11
				c-3.62,3.14-10.39,9.23-13.75,12.39C76.29,201.9,75.8,202.08,75.31,202.08z M115.59,105.02L115.59,105.02L115.59,105.02z"/>
		</g>
	</g>
	<g>
		<path class="st1" d="M113.29,213.14c-0.36,0-0.73-0.1-1.06-0.3l-12.09-7.56c-0.87-0.54-1.19-1.65-0.74-2.57l6.05-12.47
			c0.08-0.17,0.19-0.33,0.31-0.47l12.85-14.27c0.74-0.82,2-0.89,2.83-0.15c0.82,0.74,0.89,2,0.15,2.83l-12.66,14.06l-5.14,10.6
			l10.57,6.61c0.94,0.59,1.22,1.82,0.64,2.76C114.61,212.81,113.96,213.14,113.29,213.14z"/>
	</g>
	<g>
		<path class="st1" d="M200.6,168.16c-0.19,0-0.38-0.03-0.58-0.09l-11.34-3.41c-0.68-0.2-1.19-0.75-1.36-1.43l-2.54-10.18
			l-7.13,2.33l-3.78,5.32c-0.58,0.81-1.67,1.08-2.55,0.62l-5.46-2.82l-3.55,5.35c-0.55,0.84-1.64,1.13-2.55,0.69l-5.59-2.74
			l-17.82,2.91c-1.1,0.18-2.12-0.56-2.3-1.65c-0.18-1.09,0.56-2.12,1.65-2.3l18.45-3.01c0.41-0.07,0.83,0,1.2,0.18l4.59,2.24
			l3.57-5.39c0.56-0.85,1.68-1.14,2.58-0.67l5.51,2.85l3.15-4.44c0.25-0.35,0.6-0.61,1.01-0.74l9.8-3.2
			c0.53-0.17,1.11-0.12,1.59,0.15c0.49,0.27,0.84,0.73,0.97,1.27l2.78,11.16l10.25,3.08c1.06,0.32,1.66,1.43,1.34,2.49
			C202.25,167.6,201.46,168.16,200.6,168.16z"/>
	</g>
	<g>
		<path class="st1" d="M185.28,132.5c-0.69,0-1.36-0.36-1.73-1c-0.55-0.96-0.22-2.18,0.73-2.73l10.54-6.08v-10.94
			c0-0.88,0.57-1.65,1.4-1.91l18.14-5.67c1.05-0.33,2.18,0.26,2.51,1.31c0.33,1.05-0.26,2.18-1.31,2.51l-16.74,5.23v10.62
			c0,0.71-0.38,1.38-1,1.73l-11.54,6.66C185.97,132.41,185.62,132.5,185.28,132.5z"/>
	</g>
	<g>
		<path class="st1" d="M138.52,116.01c-0.81,0-1.57-0.49-1.87-1.29c-0.39-1.03,0.13-2.19,1.16-2.58l12.71-4.82l13.78-9.68
			c0.37-0.26,0.81-0.38,1.26-0.36c14.23,0.75,14.97,1.83,15.51,2.63c0.1,0.15,0.19,0.31,0.25,0.48c1.66,1.41,9.6,5.95,16.45,9.6
			c0.97,0.52,1.34,1.73,0.83,2.71c-0.52,0.97-1.73,1.34-2.71,0.83c-12.57-6.68-16.79-9.42-18.05-11.01c-1.8-0.44-7.11-0.93-11.8-1.2
			l-13.42,9.43c-0.14,0.1-0.29,0.17-0.44,0.23l-12.95,4.91C138.99,115.96,138.75,116.01,138.52,116.01z M181.33,101.78
			C181.33,101.79,181.33,101.79,181.33,101.78C181.33,101.79,181.33,101.79,181.33,101.78z M181.33,101.78
			C181.33,101.78,181.33,101.78,181.33,101.78C181.33,101.78,181.33,101.78,181.33,101.78z"/>
	</g>
	<g>
		<path class="st1" d="M204,81.23c-0.11,0-0.22-0.01-0.33-0.03l-15.87-2.65c-0.2-0.03-0.39-0.09-0.56-0.18l-11.21-5.58l-7.47,3.69
			c-0.61,0.3-1.34,0.27-1.92-0.08l-13.65-8.26c-0.94-0.57-1.25-1.8-0.67-2.75c0.57-0.94,1.8-1.25,2.75-0.67l12.71,7.7l7.38-3.65
			c0.56-0.28,1.22-0.28,1.78,0l11.83,5.89l14.26,2.38l7.23-11.66c0.36-0.59,1.01-0.95,1.7-0.95h8.05l8.55-6.1
			c0.9-0.64,2.15-0.43,2.79,0.47c0.64,0.9,0.43,2.15-0.47,2.79l-9.07,6.48c-0.34,0.24-0.75,0.37-1.16,0.37h-7.58l-7.35,11.85
			C205.33,80.88,204.68,81.23,204,81.23z"/>
	</g>
	<g>
		<path class="st1" d="M179.43,103.15c-0.48,0-0.96-0.17-1.35-0.52c-0.82-0.74-0.88-2.01-0.13-2.83l5.41-5.94L185,79.01
			c0.12-1.1,1.12-1.88,2.21-1.77c1.1,0.12,1.89,1.11,1.77,2.21l-1.71,15.5c-0.05,0.42-0.22,0.81-0.51,1.13l-5.85,6.42
			C180.52,102.93,179.98,103.15,179.43,103.15z"/>
	</g>
	<g>
		<path class="st1" d="M165.45,101.27c-0.93,0-1.76-0.65-1.96-1.59l-2.27-10.96c-0.12-0.61,0.04-1.24,0.45-1.71l14.57-16.88
			c0.72-0.84,1.98-0.93,2.82-0.21s0.93,1.98,0.21,2.82l-13.93,16.14l2.07,9.99c0.22,1.08-0.47,2.14-1.55,2.36
			C165.72,101.25,165.58,101.27,165.45,101.27z"/>
	</g>
</g>
</svg>
