<?xml version="1.0" encoding="utf-8"?>
<!-- Generator: Adobe Illustrator 26.1.0, SVG Export Plug-In . SVG Version: 6.00 Build 0)  -->
<svg version="1.1" id="Layer_1" xmlns="http://www.w3.org/2000/svg" xmlns:xlink="http://www.w3.org/1999/xlink" x="0px" y="0px"
	 viewBox="0 0 256 256" style="enable-background:new 0 0 256 256;" xml:space="preserve">
<style type="text/css">
	.st0{fill:#FFFFFF;}
	.st1{fill:#1B401D;}
	.st2{fill:#97CC9A;}
	.st3{fill-rule:evenodd;clip-rule:evenodd;fill:#97CC9A;}
</style>
<g>
	<g>
		<g>
			<path class="st0" d="M12.22,253.26c-5.5-0.02-9.97-4.49-9.96-9.97l0.12-130.58L2.26,12c0-2.66,1.03-5.16,2.91-7.04
				c1.89-1.89,4.4-2.93,7.08-2.93L244.27,2.2c5.51,0,9.99,4.47,9.99,9.96v231.9c0,5.49-4.48,9.96-9.99,9.96L12.22,253.26z"/>
		</g>
		<g>
			<g>
				<path class="st1" d="M12.26,4.03L244.27,4.2c4.4,0,7.99,3.58,7.99,7.96v231.9c0,4.39-3.59,7.96-8.02,7.96l-232.01,0
					c-4.4-0.01-7.97-4.36-7.97-8.74L4.37,112.7L4.26,12c0-2.12,0.82-4.12,2.33-5.62C8.1,4.86,10.11,4.03,12.26,4.03L12.26,4.03
					 M12.26,0.03c-6.63,0-12,5.36-11.99,11.98l0.11,100.7L0.26,243.29c-0.01,6.6,5.34,12.72,11.96,12.74l232.01,0
					c0.01,0,0.03,0,0.04,0c6.62,0,11.99-5.35,11.99-11.96V12.16c0-6.6-5.36-11.96-11.99-11.96L12.26,0.03
					C12.26,0.03,12.26,0.03,12.26,0.03L12.26,0.03z"/>
			</g>
		</g>
	</g>
	<g>
		<g>
			<g>
				<rect x="66.26" y="66.03" class="st2" width="124" height="124"/>
			</g>
			<g>
				<path class="st1" d="M188.26,68.03v120h-120v-120H188.26 M192.26,64.03h-128v128h128V64.03L192.26,64.03z"/>
			</g>
		</g>
		<g>
			<rect x="64.36" y="127.72" class="st1" width="125.59" height="4"/>
		</g>
		<g>
			<g>
				<ellipse class="st2" cx="93.36" cy="153.72" rx="10" ry="14"/>
			</g>
			<g>
				<path class="st1" d="M93.36,141.72c4.34,0,8,5.5,8,12s-3.66,12-8,12s-8-5.5-8-12S89.02,141.72,93.36,141.72 M93.36,137.72
					c-6.63,0-12,7.16-12,16s5.37,16,12,16s12-7.16,12-16S99.99,137.72,93.36,137.72L93.36,137.72z"/>
			</g>
		</g>
		<g>
			<g>
				<ellipse class="st2" cx="109.36" cy="161.72" rx="10" ry="14"/>
			</g>
			<g>
				<path class="st1" d="M109.36,149.72c4.34,0,8,5.5,8,12s-3.66,12-8,12s-8-5.5-8-12S105.02,149.72,109.36,149.72 M109.36,145.72
					c-6.63,0-12,7.16-12,16s5.37,16,12,16s12-7.16,12-16S115.99,145.72,109.36,145.72L109.36,145.72z"/>
			</g>
		</g>
		<g>
			<rect x="107.36" y="175.38" class="st1" width="4" height="16"/>
		</g>
		<g>
			<rect x="91.36" y="167.64" class="st1" width="4" height="23.74"/>
		</g>
		<g>
			<g>
				<path class="st3" d="M149.36,188.72c-9.76,0-18-4.58-18-10c0-2.96,2.59-5.88,6.94-7.81c0.63-0.28,1.08-0.87,1.17-1.56
					c0.67-4.92,4.93-8.63,9.89-8.63c4.97,0,9.22,3.71,9.89,8.63c0.09,0.69,0.54,1.28,1.17,1.56c4.34,1.93,6.94,4.85,6.94,7.81
					C167.36,184.14,159.12,188.72,149.36,188.72z"/>
			</g>
			<g>
				<path class="st1" d="M149.36,162.72c3.97,0,7.37,2.97,7.91,6.9c0.19,1.37,1.07,2.55,2.34,3.11c3.55,1.58,5.75,3.87,5.75,5.98
					c0,3.78-6.84,8-16,8s-16-4.22-16-8c0-2.12,2.2-4.41,5.75-5.98c1.27-0.56,2.15-1.74,2.34-3.11
					C141.99,165.69,145.39,162.72,149.36,162.72 M149.36,158.72c-6.07,0-11.07,4.51-11.88,10.36c-4.92,2.19-8.12,5.68-8.12,9.64
					c0,6.63,8.95,12,20,12c11.05,0,20-5.37,20-12c0-3.96-3.2-7.45-8.12-9.64C160.43,163.23,155.43,158.72,149.36,158.72
					L149.36,158.72z"/>
			</g>
		</g>
		<g>
			<g>
				<circle class="st3" cx="173.36" cy="178.72" r="10"/>
			</g>
			<g>
				<path class="st1" d="M173.36,170.72c4.41,0,8,3.59,8,8s-3.59,8-8,8s-8-3.59-8-8S168.95,170.72,173.36,170.72 M173.36,166.72
					c-6.63,0-12,5.37-12,12s5.37,12,12,12s12-5.37,12-12S179.99,166.72,173.36,166.72L173.36,166.72z"/>
			</g>
		</g>
		<g>
			<path class="st3" d="M73.36,129.72l20.18-40.64c4.87-9.81,18.77-9.81,23.64,0l20.18,40.64H73.36z"/>
			<path class="st1" d="M137.36,131.72h-64c-0.69,0-1.33-0.36-1.7-0.95c-0.36-0.59-0.4-1.32-0.09-1.94l20.18-40.64
				c2.59-5.22,7.81-8.47,13.61-8.47c0,0,0,0,0,0c5.8,0,11.02,3.25,13.61,8.47l20.18,40.64c0.31,0.62,0.27,1.36-0.09,1.94
				C138.7,131.36,138.05,131.72,137.36,131.72z M76.59,127.72h57.55l-18.74-37.75c-1.94-3.91-5.69-6.25-10.03-6.25
				c-4.34,0-8.09,2.34-10.03,6.25L76.59,127.72z"/>
		</g>
		<g>
			<path class="st3" d="M107.69,129.72l10.93-22.01c2.64-5.31,10.17-5.31,12.81,0l10.93,22.01H107.69z"/>
			<path class="st1" d="M142.36,131.72h-34.67c-0.69,0-1.33-0.36-1.7-0.95c-0.36-0.59-0.4-1.32-0.09-1.94l10.93-22.01
				c1.56-3.14,4.7-5.09,8.19-5.1c3.49,0,6.63,1.95,8.2,5.1l10.93,22.01c0.31,0.62,0.27,1.36-0.09,1.94
				C143.7,131.36,143.05,131.72,142.36,131.72z M110.92,127.72h28.21l-9.5-19.12c-0.89-1.8-2.62-2.88-4.61-2.88
				c-1.99,0-3.72,1.08-4.61,2.88L110.92,127.72z"/>
		</g>
		<g>
			<path class="st3" d="M126.36,129.72l18.5-37.26c4.46-8.99,17.21-8.99,21.67,0l18.5,37.26H126.36z"/>
			<path class="st1" d="M185.03,131.72h-58.67c-0.69,0-1.33-0.36-1.7-0.95c-0.36-0.59-0.4-1.32-0.09-1.94l18.5-37.25
				c2.41-4.84,7.24-7.86,12.63-7.86c5.38,0,10.22,3.01,12.63,7.86l18.5,37.25c0.31,0.62,0.27,1.36-0.09,1.94
				C186.36,131.36,185.72,131.72,185.03,131.72z M129.59,127.72h52.22l-17.06-34.37c-1.75-3.53-5.13-5.63-9.04-5.63
				c-3.91,0-7.29,2.11-9.05,5.63L129.59,127.72z"/>
		</g>
		<g>
			<g>
				<g>
					<path class="st1" d="M68.49,216.2v-5.72c0-1.05-0.85-1.89-1.89-1.89H64.7v-6.31h6.95c1.05,0,1.89-0.85,1.89-1.89
						c0-1.05-0.85-1.89-1.89-1.89H53.97c-1.05,0-1.89,0.85-1.89,1.89c0,1.05,0.85,1.89,1.89,1.89h6.95v6.31h-1.89
						c-1.05,0-1.89,0.85-1.89,1.89v5.68H25.3v-5.68c0-1.05-0.85-1.89-1.89-1.89h-1.89v-6.31h6.95c1.05,0,1.89-0.85,1.89-1.89
						c0-1.05-0.85-1.89-1.89-1.89H10.78c-1.05,0-1.89,0.85-1.89,1.89c0,1.05,0.85,1.89,1.89,1.89h6.95v6.31h-1.89
						c-1.05,0-1.89,0.85-1.89,1.89v5.72c-2.84,0.32-5.05,2.73-5.05,5.65c0,3.13,2.55,5.68,5.68,5.68h10.3l-7.64,6.79
						c-0.4,0.36-0.64,0.87-0.64,1.42v10.1c0,1.05,0.85,1.89,1.89,1.89s1.89-0.85,1.89-1.89v-9.25l7.58-6.74
						c0.22,7.12,6.08,12.84,13.25,12.84c7.17,0,13.03-5.72,13.25-12.84l7.58,6.74v9.25c0,1.05,0.85,1.89,1.89,1.89
						c1.05,0,1.89-0.85,1.89-1.89v-10.1c0-0.54-0.23-1.06-0.64-1.42l-7.64-6.79h10.3c3.13,0,5.68-2.55,5.68-5.68
						C73.54,218.93,71.33,216.52,68.49,216.2L68.49,216.2z M17.72,212.38h3.79v3.79h-3.79V212.38z M27.95,223.74H14.57
						c-1.04,0-1.89-0.85-1.89-1.89s0.85-1.89,1.89-1.89h13.39V223.74z M50.68,229.43c0,5.22-4.25,9.47-9.47,9.47
						s-9.47-4.25-9.47-9.47v-9.47h18.94V229.43z M60.91,212.38h3.79v3.79h-3.79V212.38z M67.86,223.74H54.47v-3.79h13.39
						c1.04,0,1.89,0.85,1.89,1.89S68.9,223.74,67.86,223.74z"/>
				</g>
				<g>
					<path class="st1" d="M41.21,235.11c3.13,0,5.68-2.55,5.68-5.68c0-3.13-2.55-5.68-5.68-5.68c-3.13,0-5.68,2.55-5.68,5.68
						C35.53,232.56,38.08,235.11,41.21,235.11z M41.21,227.53c1.04,0,1.89,0.85,1.89,1.89s-0.85,1.89-1.89,1.89
						c-1.04,0-1.89-0.85-1.89-1.89S40.17,227.53,41.21,227.53z"/>
				</g>
			</g>
		</g>
		<g>
			<g>
				<g>
					<g>
						<path class="st1" d="M66.41,9.35c-1.39-1.39-3.8-1.53-6.97-0.4c-2.18,0.78-4.46,2.09-5.55,3.18l-8.77,8.77l-28.88-4.54
							l-7.35,7.35l24.01,9.41l-7.71,7.71l-10.94,0.64L9,46.72l11.88,5.73l-3.33,3.33l2.43,2.43l3.32-3.32l5.74,11.87l5.25-5.25
							l0.64-10.94l7.84-7.84l9.4,24.01l7.35-7.35l-4.54-28.88l8.65-8.65c1.09-1.09,2.4-3.38,3.18-5.55
							C67.94,13.15,67.8,10.74,66.41,9.35z M15.04,22.43l2.39-2.39l24.67,3.88l-6.55,6.55L15.04,22.43z M55.84,58.2l-2.39,2.39
							l-8.03-20.51l6.55-6.55L55.84,58.2z M63.57,15.16c-0.66,1.84-1.74,3.65-2.37,4.28L31.56,49.06l-0.64,10.94l-0.89,0.89
							l-4.15-8.59l2.99-2.99l-2.43-2.43l-2.99,2.99l-8.59-4.15l0.89-0.89L26.7,44.2l29.63-29.63c0.63-0.63,2.45-1.72,4.28-2.37
							c2.08-0.75,3.19-0.59,3.37-0.41C64.16,11.97,64.31,13.07,63.57,15.16z"/>
					</g>
				</g>
			</g>
		</g>
		<g>
			<g>
				<g>
					<path class="st1" d="M240.82,203.38h-11.94l-1.16-3.48c-0.73-2.19-2.78-3.67-5.09-3.67h-11.53c-2.31,0-4.36,1.47-5.09,3.67
						l-1.16,3.48h-2.88v-2.98c0-2.3-1.87-4.17-4.17-4.17h-2.38c-2.3,0-4.17,1.87-4.17,4.17v3.19c-2.81,0.74-4.88,3.3-4.88,6.34
						v30.98c0,3.61,2.94,6.55,6.55,6.55h47.89c3.61,0,6.55-2.94,6.55-6.55v-30.98C247.37,206.32,244.43,203.38,240.82,203.38z
						 M194.83,200.4c0-0.33,0.27-0.6,0.6-0.6h2.38c0.33,0,0.6,0.27,0.6,0.6v2.98h-3.57V200.4z M243.8,240.91
						c0,1.64-1.34,2.98-2.98,2.98h-47.89c-1.64,0-2.98-1.34-2.98-2.98v-30.98c0-1.64,1.34-2.98,2.98-2.98h13.22
						c0.77,0,1.45-0.49,1.7-1.22l1.57-4.7c0.24-0.73,0.93-1.22,1.7-1.22h11.53c0.77,0,1.45,0.49,1.7,1.22l1.57,4.7
						c0.24,0.73,0.93,1.22,1.7,1.22h13.22c1.64,0,2.98,1.34,2.98,2.98V240.91z"/>
				</g>
				<g>
					<circle class="st1" cx="238.32" cy="212.32" r="1.79"/>
				</g>
				<g>
					<path class="st1" d="M199,210.53h-3.57c-0.99,0-1.79,0.8-1.79,1.79s0.8,1.79,1.79,1.79H199c0.99,0,1.79-0.8,1.79-1.79
						S199.99,210.53,199,210.53z"/>
				</g>
				<g>
					<g>
						<path class="st1" d="M216.87,240.32c-8.87,0-16.08-7.22-16.08-16.08s7.22-16.08,16.08-16.08s16.08,7.22,16.08,16.08
							S225.74,240.32,216.87,240.32z M216.87,211.72c-6.9,0-12.51,5.61-12.51,12.51s5.61,12.51,12.51,12.51s12.51-5.61,12.51-12.51
							S223.77,211.72,216.87,211.72z"/>
					</g>
				</g>
				<g>
					<g>
						<path class="st1" d="M216.87,233.17c-4.93,0-8.94-4.01-8.94-8.94s4.01-8.94,8.94-8.94s8.94,4.01,8.94,8.94
							S221.8,233.17,216.87,233.17z M216.87,218.87c-2.96,0-5.36,2.41-5.36,5.36s2.41,5.36,5.36,5.36s5.36-2.41,5.36-5.36
							S219.83,218.87,216.87,218.87z"/>
					</g>
				</g>
			</g>
		</g>
		<g>
			<g>
				<path class="st1" d="M245.1,55.73l-17.05-9.75c-0.71-0.41-1.61-0.29-2.2,0.29l-2.17,2.17l-2.86-2.86l8.35-8.35c0,0,0,0,0,0
					l3.56-3.56c2.61-2.61,2.61-6.85,0-9.46c0,0,0,0,0,0l-0.12-0.12c-1.26-1.26-2.94-1.96-4.73-1.96s-3.46,0.7-4.73,1.96l-3.56,3.56
					L211.26,36l-2.58-2.58l2.17-2.17c0.58-0.58,0.7-1.48,0.29-2.19l-9.75-17.05c-0.48-0.83-1.52-1.15-2.38-0.73l-14.2,6.91
					c-0.53,0.26-0.9,0.76-1,1.34c-0.1,0.58,0.09,1.17,0.51,1.59l17.05,17.05c0.34,0.34,0.81,0.53,1.29,0.53
					c0.48,0,0.95-0.19,1.29-0.53L206.1,36l2.58,2.58c-1.15,1.2-1.78,2.72-1.88,4.27c-0.9-0.25-1.84-0.39-2.81-0.39
					c-2.77,0-5.37,1.08-7.33,3.04c-0.71,0.71-0.71,1.87,0,2.58l4.75,4.75l-1.31,1.31c-0.71,0.71-0.71,1.87,0,2.58
					c0.36,0.36,0.82,0.53,1.29,0.53s0.93-0.18,1.29-0.53l1.31-1.31l4.75,4.75c0.34,0.34,0.81,0.53,1.29,0.53
					c0.48,0,0.95-0.19,1.29-0.53c2.74-2.74,3.62-6.65,2.65-10.14c1.61-0.1,3.11-0.76,4.27-1.88l2.86,2.86l-2.17,2.17
					c-0.71,0.71-0.71,1.87,0,2.58L236,72.81c0.34,0.34,0.81,0.53,1.29,0.53c0.1,0,0.2-0.01,0.3-0.03c0.58-0.1,1.08-0.47,1.34-1
					l6.91-14.2C246.25,57.25,245.93,56.21,245.1,55.73z M202.65,34.3L188.7,20.35l10.37-5.04l8.21,14.36L202.65,34.3z M225.74,26.67
					c0.57-0.57,1.34-0.89,2.15-0.89c0.81,0,1.57,0.32,2.15,0.89l0.12,0.12c1.18,1.18,1.18,3.11,0,4.3l-2.27,2.27l-4.42-4.42
					L225.74,26.67z M209.86,56.12l-9.16-9.16c0.99-0.56,2.12-0.86,3.29-0.86c1.8,0,3.48,0.7,4.75,1.97
					C210.93,50.26,211.3,53.56,209.86,56.12L209.86,56.12z M213.55,46.4c-0.83,0-1.62-0.32-2.21-0.91c-1.22-1.22-1.22-3.2,0-4.42
					l1.2-1.2l0,0c0,0,0,0,0,0l8.35-8.35l4.42,4.42l-9.55,9.55C215.17,46.08,214.39,46.4,213.55,46.4L213.55,46.4z M236.76,68.42
					l-13.95-13.95l4.63-4.63l14.36,8.21L236.76,68.42z"/>
			</g>
		</g>
	</g>
</g>
</svg>
