<?xml version="1.0" encoding="utf-8"?>
<!-- Generator: Adobe Illustrator 26.1.0, SVG Export Plug-In . SVG Version: 6.00 Build 0)  -->
<svg version="1.1" id="Layer_1" xmlns="http://www.w3.org/2000/svg" xmlns:xlink="http://www.w3.org/1999/xlink" x="0px" y="0px"
	 viewBox="0 0 256 256" style="enable-background:new 0 0 256 256;" xml:space="preserve">
<style type="text/css">
	.st0{fill:#FFFFFF;}
	.st1{fill:#2C5FA8;}
	.st2{fill:#94C253;}
	.st3{fill:#9D9D9D;}
</style>
<g>
	<g>
		<path class="st0" d="M12.26,254.03c-2.67,0-5.18-1.04-7.07-2.92c-1.89-1.88-2.92-4.39-2.92-7.05l0.11-100.7L2.26,12.77
			c0-5.48,4.46-9.95,9.96-9.97l232.01-0.77c5.54,0,10.03,4.47,10.03,9.96v231.9c0,5.49-4.48,9.96-9.99,9.96L12.26,254.03
			L12.26,254.03z"/>
	</g>
	<g>
		<g>
			<path class="st1" d="M244.26,0.03v4c4.41,0,7.99,3.57,7.99,7.96v231.9c0,4.39-3.58,7.96-7.99,7.96l-232.01,0.17
				c-2.14,0-4.16-0.83-5.67-2.35c-1.5-1.5-2.33-3.5-2.33-5.62l0.11-100.71L4.26,12.77c0-4.38,3.57-8.72,7.97-8.74l232.01,0
				L244.26,0.03 M244.26,0.03c-0.01,0-0.03,0-0.04,0l-232.01,0C5.6,0.05,0.25,6.18,0.26,12.77l0.12,130.58l-0.11,100.7
				c-0.01,6.61,5.37,11.98,11.99,11.98c0,0,0.01,0,0.01,0l232.01-0.17c6.62,0,11.99-5.36,11.99-11.96V11.99
				C256.26,5.38,250.89,0.03,244.26,0.03L244.26,0.03z"/>
		</g>
	</g>
</g>
<g>
	<g>
		<g>
			<rect x="61.71" y="49.45" class="st2" width="40" height="151.99"/>
			<path class="st1" d="M101.71,203.44h-40c-1.1,0-2-0.9-2-2V49.45c0-1.1,0.9-2,2-2h40c1.1,0,2,0.9,2,2v151.99
				C103.71,202.54,102.81,203.44,101.71,203.44z M63.71,199.44h36V51.45h-36V199.44z"/>
		</g>
		<g>
			<rect x="161.19" y="105.44" class="st2" width="48.24" height="95.99"/>
			<path class="st1" d="M209.43,203.43h-48.24c-1.1,0-2-0.9-2-2v-95.99c0-1.1,0.9-2,2-2h48.24c1.1,0,2,0.9,2,2v95.99
				C211.43,202.53,210.54,203.43,209.43,203.43z M163.19,199.43h44.24v-91.99h-44.24V199.43z"/>
		</g>
		<g>
			<polygon class="st3" points="181.95,169.42 133.71,169.42 133.71,65.44 165.71,65.44 181.71,89.44 			"/>
			<path class="st1" d="M181.95,171.43h-48.24c-1.1,0-2-0.9-2-2V65.44c0-1.1,0.9-2,2-2h32c0.67,0,1.29,0.33,1.66,0.89l16,24
				c0.22,0.33,0.33,0.71,0.34,1.1l0.24,79.99c0,0.53-0.21,1.04-0.58,1.42C182.99,171.21,182.48,171.43,181.95,171.43z
				 M135.71,167.43h44.24l-0.24-77.38l-15.07-22.61h-28.93V167.43z"/>
		</g>
		<g>
			<rect x="53.71" y="65.44" class="st3" width="64" height="135.99"/>
			<path class="st1" d="M117.71,203.43h-64c-1.1,0-2-0.9-2-2V65.44c0-1.1,0.9-2,2-2h64c1.1,0,2,0.9,2,2v135.99
				C119.71,202.53,118.81,203.43,117.71,203.43z M55.71,199.43h60V67.44h-60V199.43z"/>
		</g>
		<g>
			<rect x="109.46" y="25.44" class="st3" width="48.24" height="168"/>
			<path class="st1" d="M157.71,195.44h-48.24c-1.1,0-2-0.9-2-2v-168c0-1.1,0.9-2,2-2h48.24c1.1,0,2,0.9,2,2v168
				C159.71,194.54,158.81,195.44,157.71,195.44z M111.46,191.44h44.24v-164h-44.24V191.44z"/>
		</g>
		<g>
			<rect x="145.1" y="89.44" class="st2" width="48.24" height="111.99"/>
			<path class="st1" d="M193.34,203.43H145.1c-1.1,0-2-0.9-2-2V89.44c0-1.1,0.9-2,2-2h48.24c1.1,0,2,0.9,2,2v111.99
				C195.34,202.53,194.45,203.43,193.34,203.43z M147.1,199.43h44.24V91.44H147.1V199.43z"/>
		</g>
		<g>
			<polygon class="st3" points="69.71,201.42 37.28,201.42 37.28,113.44 69.71,97.44 			"/>
			<path class="st1" d="M69.71,203.43H37.28c-1.1,0-2-0.9-2-2v-87.99c0-0.76,0.43-1.46,1.12-1.79l32.42-16
				c0.62-0.3,1.35-0.27,1.94,0.1c0.59,0.36,0.94,1.01,0.94,1.7v103.99C71.71,202.53,70.81,203.43,69.71,203.43z M39.28,199.43h28.42
				v-98.77l-28.42,14.03V199.43z"/>
		</g>
		<g>
			<rect x="173.71" y="137.44" class="st3" width="40.24" height="63.99"/>
			<path class="st1" d="M213.95,203.43h-40.24c-1.1,0-2-0.9-2-2v-63.99c0-1.1,0.9-2,2-2h40.24c1.1,0,2,0.9,2,2v63.99
				C215.95,202.53,215.06,203.43,213.95,203.43z M175.71,199.43h36.24v-59.99h-36.24V199.43z"/>
		</g>
		<g>
			<rect x="56.6" y="145.44" class="st3" width="45.11" height="55.99"/>
			<path class="st1" d="M101.71,203.43H56.6c-1.1,0-2-0.9-2-2v-55.99c0-1.1,0.9-2,2-2h45.11c1.1,0,2,0.9,2,2v55.99
				C103.71,202.53,102.81,203.43,101.71,203.43z M58.6,199.43h41.11v-51.99H58.6V199.43z"/>
		</g>
		<g>
			<rect x="101.71" y="113.44" class="st2" width="64" height="24"/>
			<path class="st1" d="M165.71,139.44h-64c-1.1,0-2-0.9-2-2v-24c0-1.1,0.9-2,2-2h64c1.1,0,2,0.9,2,2v24
				C167.71,138.54,166.81,139.44,165.71,139.44z M103.71,135.44h60v-20h-60V135.44z"/>
		</g>
		<g>
			<rect x="87.97" y="129.59" class="st2" width="88.11" height="71.84"/>
			<path class="st1" d="M176.08,203.43H87.97c-1.1,0-2-0.9-2-2v-71.84c0-1.1,0.9-2,2-2h88.11c1.1,0,2,0.9,2,2v71.84
				C178.08,202.53,177.18,203.43,176.08,203.43z M89.97,199.43h84.11v-67.84H89.97V199.43z"/>
		</g>
		<g>
			<rect x="101.71" y="145.44" class="st0" width="13.3" height="55.99"/>
			<path class="st1" d="M115.01,203.43h-13.3c-1.1,0-2-0.9-2-2v-55.99c0-1.1,0.9-2,2-2h13.3c1.1,0,2,0.9,2,2v55.99
				C117.01,202.53,116.11,203.43,115.01,203.43z M103.71,199.43h9.3v-51.99h-9.3V199.43z"/>
		</g>
		<g>
			<rect x="125.71" y="145.45" class="st0" width="13.3" height="55.99"/>
			<path class="st1" d="M139.01,203.44h-13.3c-1.1,0-2-0.9-2-2v-55.99c0-1.1,0.9-2,2-2h13.3c1.1,0,2,0.9,2,2v55.99
				C141.01,202.54,140.11,203.44,139.01,203.44z M127.71,199.44h9.3v-51.99h-9.3V199.44z"/>
		</g>
		<g>
			<rect x="149.31" y="145.44" class="st0" width="13.3" height="55.99"/>
			<path class="st1" d="M162.6,203.43h-13.3c-1.1,0-2-0.9-2-2v-55.99c0-1.1,0.9-2,2-2h13.3c1.1,0,2,0.9,2,2v55.99
				C164.6,202.53,163.71,203.43,162.6,203.43z M151.31,199.43h9.3v-51.99h-9.3V199.43z"/>
		</g>
		<g>
			<rect x="61.71" y="73.44" class="st0" width="40" height="16"/>
			<path class="st1" d="M101.71,91.44h-40c-1.1,0-2-0.9-2-2v-16c0-1.1,0.9-2,2-2h40c1.1,0,2,0.9,2,2v16
				C103.71,90.54,102.81,91.44,101.71,91.44z M63.71,87.44h36v-12h-36V87.44z"/>
		</g>
		<g>
			<g>
				<path class="st1" d="M184.11,103.44h-9.25c-1.1,0-2-0.9-2-2s0.9-2,2-2h9.25c1.1,0,2,0.9,2,2S185.22,103.44,184.11,103.44z"/>
			</g>
			<g>
				<path class="st1" d="M184.11,111.44h-9.25c-1.1,0-2-0.9-2-2s0.9-2,2-2h9.25c1.1,0,2,0.9,2,2S185.22,111.44,184.11,111.44z"/>
			</g>
		</g>
		<g>
			<g>
				<path class="st1" d="M141.71,43.44h-16c-1.1,0-2-0.9-2-2s0.9-2,2-2h16c1.1,0,2,0.9,2,2S142.81,43.44,141.71,43.44z"/>
			</g>
			<g>
				<path class="st1" d="M141.71,59.44h-16c-1.1,0-2-0.9-2-2s0.9-2,2-2h16c1.1,0,2,0.9,2,2S142.81,59.44,141.71,59.44z"/>
			</g>
			<g>
				<path class="st1" d="M141.71,75.44h-16c-1.1,0-2-0.9-2-2s0.9-2,2-2h16c1.1,0,2,0.9,2,2S142.81,75.44,141.71,75.44z"/>
			</g>
		</g>
		<g>
			<path class="st1" d="M81.71,51.44c-1.1,0-2-0.9-2-2v-16c0-1.1,0.9-2,2-2s2,0.9,2,2v16C83.71,50.54,82.81,51.44,81.71,51.44z"/>
		</g>
	</g>
	<g>
		<g>
			<polygon class="st0" points="65.14,230.62 19.42,230.62 19.42,194.05 42.28,175.76 65.14,194.05 			"/>
			<path class="st1" d="M65.14,232.62H19.42c-1.1,0-2-0.9-2-2v-36.57c0-0.61,0.28-1.18,0.75-1.56l22.86-18.29
				c0.73-0.58,1.77-0.58,2.5,0l22.86,18.29c0.47,0.38,0.75,0.95,0.75,1.56v36.57C67.14,231.72,66.24,232.62,65.14,232.62z
				 M21.42,228.62h41.71v-33.61l-20.86-16.68l-20.86,16.68V228.62z"/>
		</g>
		<g>
			<polygon class="st0" points="119.99,230.62 74.28,230.62 74.28,194.05 97.14,175.77 119.99,194.05 			"/>
			<path class="st1" d="M119.99,232.62H74.28c-1.1,0-2-0.9-2-2v-36.57c0-0.61,0.28-1.18,0.75-1.56l22.86-18.29
				c0.73-0.58,1.77-0.58,2.5,0l22.86,18.29c0.47,0.38,0.75,0.95,0.75,1.56v36.57C121.99,231.73,121.1,232.62,119.99,232.62z
				 M76.28,228.62h41.71v-33.61l-20.86-16.68l-20.86,16.68V228.62z"/>
		</g>
		<g>
			<polygon class="st2" points="92.56,230.62 46.85,230.62 46.85,194.05 69.71,175.77 92.56,194.05 			"/>
			<path class="st1" d="M92.56,232.62H46.85c-1.1,0-2-0.9-2-2v-36.57c0-0.61,0.28-1.18,0.75-1.56l22.86-18.29
				c0.73-0.58,1.77-0.58,2.5,0l22.86,18.29c0.47,0.38,0.75,0.95,0.75,1.56v36.57C94.56,231.73,93.67,232.62,92.56,232.62z
				 M48.85,228.62h41.71v-33.61l-20.86-16.68l-20.86,16.68V228.62z"/>
		</g>
		<g>
			<rect x="60.56" y="212.34" class="st0" width="18.29" height="18.29"/>
			<path class="st1" d="M78.85,232.62H60.56c-1.1,0-2-0.9-2-2v-18.29c0-1.1,0.9-2,2-2h18.29c1.1,0,2,0.9,2,2v18.29
				C80.85,231.73,79.95,232.62,78.85,232.62z M62.56,228.62h14.29v-14.29H62.56V228.62z"/>
		</g>
		<g>
			<path class="st1" d="M22.32,193.94c-1.1,0-2-0.9-2-2v-14.3c0-1.1,0.9-2,2-2s2,0.9,2,2v14.3
				C24.32,193.05,23.43,193.94,22.32,193.94z"/>
		</g>
		<g>
			<path class="st1" d="M34.94,220.99h-6.01c-1.1,0-2-0.9-2-2v-9.15c0-1.1,0.9-2,2-2h6.01c1.1,0,2,0.9,2,2v9.15
				C36.94,220.09,36.05,220.99,34.94,220.99z M30.93,216.99h2.01v-5.15h-2.01V216.99z"/>
		</g>
		<g>
			<path class="st1" d="M106.33,220.99h-6.01c-1.1,0-2-0.9-2-2v-9.15c0-1.1,0.9-2,2-2h6.01c1.1,0,2,0.9,2,2v9.15
				C108.33,220.09,107.44,220.99,106.33,220.99z M102.32,216.99h2.01v-5.15h-2.01V216.99z"/>
		</g>
	</g>
	<g>
		<g>
			<rect x="177.06" y="203.19" class="st2" width="54.86" height="27.43"/>
			<path class="st1" d="M231.92,232.62h-54.86c-1.1,0-2-0.9-2-2v-27.43c0-1.1,0.9-2,2-2h54.86c1.1,0,2,0.9,2,2v27.43
				C233.92,231.73,233.03,232.62,231.92,232.62z M179.06,228.62h50.86v-23.43h-50.86V228.62z"/>
		</g>
		<g>
			<path class="st0" d="M213.64,230.62h-18.29v-10.29c0-4.42,3.58-8,8-8h2.29c4.42,0,8,3.58,8,8V230.62z"/>
			<path class="st1" d="M213.64,232.62h-18.29c-1.1,0-2-0.9-2-2v-10.29c0-5.51,4.49-10,10-10h2.29c5.51,0,10,4.49,10,10v10.29
				C215.64,231.73,214.74,232.62,213.64,232.62z M197.35,228.62h14.29v-8.29c0-3.31-2.69-6-6-6h-2.29c-3.31,0-6,2.69-6,6V228.62z"/>
		</g>
		<g>
			<path class="st0" d="M171.22,203.19c0,0,18.93-23.62,32.36-23.62s33.52,23.62,33.52,23.62L171.22,203.19z"/>
			<path class="st1" d="M171.22,205.19c-0.77,0-1.47-0.44-1.8-1.13s-0.24-1.52,0.24-2.12c0.8-1,19.7-24.37,33.92-24.37
				c14.19,0,34.2,23.33,35.04,24.33c0.5,0.59,0.62,1.43,0.29,2.13c-0.33,0.71-1.04,1.16-1.82,1.16L171.22,205.19z M203.58,181.57
				c-8.76,0-21.4,12.15-28.04,19.62l57.07,0C225.58,193.7,212.35,181.57,203.58,181.57z"/>
		</g>
		<g>
			<path class="st1" d="M203.58,181.57c-1.1,0-2-0.9-2-2v-7.34c0-1.1,0.9-2,2-2s2,0.9,2,2v7.34
				C205.58,180.68,204.68,181.57,203.58,181.57z"/>
		</g>
		<g>
			<path class="st1" d="M214.2,205.19c-0.99,0-1.85-0.74-1.98-1.74c-0.01-0.11-1.51-11.37-5.13-17.33
				c-1.61-2.65-8.47-8.25-10.97-10.18c-0.87-0.67-1.04-1.93-0.36-2.8c0.67-0.88,1.93-1.04,2.8-0.36c0.98,0.76,9.67,7.51,11.95,11.27
				c4.06,6.69,5.61,18.4,5.67,18.9c0.14,1.09-0.63,2.1-1.73,2.24C214.37,205.19,214.29,205.19,214.2,205.19z"/>
		</g>
		<g>
			<path class="st1" d="M193.17,205.19c-0.09,0-0.17,0-0.26-0.02c-1.1-0.14-1.87-1.14-1.73-2.24c0.06-0.5,1.61-12.21,5.67-18.9
				c2.28-3.76,10.97-10.51,11.95-11.27c0.88-0.67,2.13-0.51,2.8,0.36c0.67,0.87,0.51,2.13-0.36,2.8
				c-2.51,1.93-9.37,7.53-10.97,10.18c-3.63,5.97-5.11,17.22-5.13,17.33C195.02,204.46,194.16,205.19,193.17,205.19z"/>
		</g>
	</g>
</g>
</svg>
