<?xml version="1.0" encoding="utf-8"?>
<!-- Generator: Adobe Illustrator 26.1.0, SVG Export Plug-In . SVG Version: 6.00 Build 0)  -->
<svg version="1.1" id="Layer_1" xmlns="http://www.w3.org/2000/svg" xmlns:xlink="http://www.w3.org/1999/xlink" x="0px" y="0px"
	 viewBox="0 0 256 256" style="enable-background:new 0 0 256 256;" xml:space="preserve">
<style type="text/css">
	.st0{fill:#97CC9A;}
	.st1{fill:#1B401D;}
</style>
<g>
	<g>
		<g>
			<path class="st0" d="M12.22,253.26c-5.5-0.02-9.97-4.49-9.96-9.97l0.12-130.58L2.26,12c0-2.66,1.03-5.16,2.91-7.04
				c1.89-1.89,4.41-2.93,7.08-2.93L244.27,2.2c5.51,0,9.99,4.47,9.99,9.96v231.9c0,5.49-4.48,9.96-9.99,9.96L12.22,253.26z"/>
		</g>
		<g>
			<g>
				<path class="st1" d="M12.26,4.03L244.27,4.2c4.4,0,7.99,3.58,7.99,7.96v231.9c0,4.39-3.59,7.96-8.02,7.96l-231.98,0
					c-4.4-0.01-8-4.36-8-8.74L4.37,112.7L4.26,12c0-2.12,0.82-4.12,2.33-5.62C8.1,4.86,10.11,4.03,12.26,4.03L12.26,4.03
					 M12.26,0.03c-6.63,0-12,5.36-11.99,11.98l0.11,100.7L0.26,243.29c-0.01,6.6,5.37,12.72,11.99,12.74l231.98,0
					c0.01,0,0.03,0,0.04,0c6.62,0,11.99-5.35,11.99-11.96V12.16c0-6.6-5.36-11.96-11.99-11.96L12.26,0.03
					C12.26,0.03,12.26,0.03,12.26,0.03L12.26,0.03z"/>
			</g>
		</g>
	</g>
	<path class="st1" d="M253.19,115.98l-32,13.71l-20.85-54.86l0.01-0.08l54.42-9.01l-0.63-3.95l-53.31,8.83l7.95-68.13l-3.97-0.46
		l-8.09,69.28l-41.26,6.83L144.9,1.98l-3.96,0.55l17.03,122.89l-59.26-30.2l15.58-92.63l-3.95-0.66L94.68,95.08l-28.18,5.19
		l0.95-97.99l-4-0.04l-0.6,62.21l-59.83-5.5l-0.37,3.98l60.16,5.53l-0.31,32.55L2.47,112.07L3.19,116l59.26-10.92l0,0.51l-5.51,27.7
		l-54.44,9.39l0.68,3.94l52.93-9.13l-6.05,30.38L2.41,178.13l0.84,3.91l45.95-9.89l-16.33,82.07l3.92,0.78l16.67-83.77l2.7-0.58
		h32.34l-7.67,81.62l3.98,0.38l7.7-81.99h26.42l23.95,82.36l3.84-1.12l-23.63-81.25h67.24l0.09,0.03l-0.38,84.92l4,0.02l0.37-83.49
		l27.79,10.04l-8.34,73.22l3.97,0.45l8.23-72.28l27.21,9.83l1.36-3.76l-28.39-10.25l-3.59-45.78l-0.07-0.18l32.16-13.77
		L253.19,115.98z M156.01,82.09l40.28-6.67l21.22,55.84l-26.12,11.19l-29.07-14.81L156.01,82.09z M66.4,106.19l0.04-0.18l0.02-1.67
		l30.37-5.6l84.48,43.06l-120.17-9.15L66.4,106.19z M55.74,166.66l-1.42,0.31l6.01-30.19l0.69-0.12l129.43,9.86v20.15H55.74z
		 M222.14,177.89l-27.7-10v-22.39l24.33-10.42L222.14,177.89z"/>
</g>
</svg>
