<?xml version="1.0" encoding="utf-8"?>
<!-- Generator: Adobe Illustrator 26.1.0, SVG Export Plug-In . SVG Version: 6.00 Build 0)  -->
<svg version="1.1" id="Layer_1" xmlns="http://www.w3.org/2000/svg" xmlns:xlink="http://www.w3.org/1999/xlink" x="0px" y="0px"
	 viewBox="0 0 256 256" style="enable-background:new 0 0 256 256;" xml:space="preserve">
<style type="text/css">
	.st0{fill:#FFFFFF;}
	.st1{fill:#1B401D;}
	.st2{fill:#97CC9A;}
</style>
<g>
	<g>
		<g>
			<path class="st0" d="M11.96,253.23c-5.5-0.02-9.97-4.49-9.96-9.97l0.12-130.58L2,11.97c0-2.66,1.03-5.16,2.91-7.04
				C6.8,3.04,9.32,2,12,2l232.01,0.17c5.51,0,9.99,4.47,9.99,9.96v231.9c0,5.49-4.48,9.96-9.99,9.96L11.96,253.23z"/>
		</g>
		<g>
			<g>
				<path class="st1" d="M12,4l232.01,0.17c4.41,0,7.99,3.58,7.99,7.96v231.9c0,4.39-3.59,7.96-8.02,7.96l-231.83,0
					c-4.4-0.01-8.15-4.36-8.15-8.74l0.12-130.59L4,11.97c0-2.12,0.82-4.12,2.33-5.62C7.84,4.83,9.85,4,12,4L12,4 M12,0
					C5.37,0,0,5.36,0,11.98l0.11,100.7L0,243.26c-0.01,6.6,5.52,12.72,12.14,12.74l231.83,0c0.01,0,0.03,0,0.04,0
					c6.62,0,11.99-5.35,11.99-11.96V12.13c0-6.6-5.36-11.96-11.99-11.96L12,0C12,0,12,0,12,0L12,0z"/>
			</g>
		</g>
	</g>
	<g>
		<g>
			<path class="st2" d="M169.22,102.69c0,37.93-18.6,68.67-41.55,68.67s-41.55-30.75-41.55-68.67s41.55-68.67,41.55-68.67
				S169.22,64.76,169.22,102.69z"/>
			<path class="st1" d="M127.68,173.36c-24.01,0-43.55-31.7-43.55-70.67c0-38.49,40.63-69,42.36-70.28c0.71-0.52,1.67-0.52,2.38,0
				c1.73,1.28,42.36,31.79,42.36,70.28C171.22,141.66,151.69,173.36,127.68,173.36z M127.68,36.55
				c-6.72,5.36-39.55,33.24-39.55,66.14c0,36.76,17.74,66.67,39.55,66.67c21.81,0,39.55-29.91,39.55-66.67
				C167.22,69.79,134.4,41.91,127.68,36.55z"/>
		</g>
		<g>
			<g>
				<path class="st1" d="M96.76,234.99H76.15c-6.79,0-12.31-5.52-12.31-12.31v-1.7c0-1.26-0.47-2.47-1.33-3.4l-42.3-45.64
					c-3.13-3.38-4.58-7.92-4.01-12.52c-0.08-0.68-0.12-1.27-0.12-1.85V88.55c0-4.44,1.92-8.68,5.26-11.65
					c3.33-2.96,7.78-4.35,12.21-3.81c7.8,0.94,13.68,7.74,13.68,15.82v22.33c0,1.1-0.9,2-2,2s-2-0.9-2-2V88.9
					c0-6.06-4.37-11.16-10.16-11.85c-3.35-0.4-6.57,0.61-9.08,2.83c-2.49,2.21-3.92,5.36-3.92,8.66v69.03
					c0,0.47,0.04,0.97,0.12,1.58c0.03,0.18,0.02,0.37,0,0.56c-0.5,3.49,0.58,6.96,2.95,9.52l42.3,45.64c1.55,1.67,2.4,3.84,2.4,6.12
					v1.7c0,4.58,3.73,8.31,8.31,8.31h20.61c4.58,0,8.31-3.73,8.31-8.31c0-0.05,0-0.09,0-0.14c0.97-13.78,1.11-37.16-2.63-41.26
					l-48.91-53.33c-2.08-2.25-4.95-3.56-8.05-3.68c-3.08-0.11-6.05,0.97-8.31,3.06c-4.68,4.34-4.96,11.68-0.62,16.36l23.89,26.1
					c0.75,0.81,0.69,2.08-0.12,2.83c-0.81,0.75-2.08,0.69-2.83-0.12l-23.89-26.09c-5.83-6.29-5.46-16.17,0.84-22.01
					c3.04-2.82,7.01-4.29,11.18-4.12c4.17,0.16,8.02,1.92,10.83,4.96l48.92,53.34c5.98,6.54,4.13,37.78,3.68,44.17
					C109.02,229.51,103.52,234.99,96.76,234.99z"/>
			</g>
			<g>
				<path class="st2" d="M60.72,253.87h53.21v-17.45c0-5.67-4.64-10.31-10.31-10.31H69.28c-5.67,0-10.31,4.64-10.31,10.31v17.61
					C59.54,253.93,60.13,253.87,60.72,253.87z"/>
				<path class="st1" d="M58.97,256.03c-0.47,0-0.92-0.16-1.29-0.47c-0.45-0.38-0.71-0.94-0.71-1.53v-17.61
					c0-6.79,5.52-12.31,12.31-12.31h34.35c6.79,0,12.31,5.52,12.31,12.31v17.45c0,1.1-0.9,2-2,2H60.72c-0.44,0-0.9,0.04-1.41,0.13
					C59.2,256.02,59.08,256.03,58.97,256.03z M60.97,251.87h50.96v-15.45c0-4.58-3.73-8.31-8.31-8.31H69.28
					c-4.58,0-8.31,3.73-8.31,8.31V251.87z"/>
			</g>
		</g>
		<g>
			<g>
				<path class="st1" d="M179.53,234.99h-20.61c-6.76,0-12.27-5.48-12.31-12.23c-0.45-6.39-2.3-37.63,3.68-44.17l48.91-53.33
					c5.85-6.31,15.72-6.68,22.02-0.84c6.3,5.84,6.68,15.72,0.84,22.02l-24.21,26.09c-0.75,0.81-2.02,0.86-2.83,0.11
					c-0.81-0.75-0.86-2.02-0.11-2.83l24.21-26.09c4.34-4.68,4.06-12.02-0.62-16.36c-4.68-4.34-12.02-4.06-16.36,0.62l-48.9,53.32
					c-3.74,4.09-3.6,27.48-2.63,41.25c0,0.05,0,0.09,0,0.14c0,4.58,3.73,8.31,8.31,8.31h20.61c4.58,0,8.31-3.73,8.31-8.31v-1.7
					c0-2.27,0.85-4.45,2.4-6.12l42.3-45.64c2.37-2.56,3.44-6.03,2.95-9.52c-0.03-0.18-0.03-0.37,0-0.56
					c0.08-0.61,0.12-1.11,0.12-1.58V88.55c0-3.29-1.43-6.45-3.92-8.66c-2.51-2.23-5.74-3.24-9.08-2.83
					c-5.79,0.7-10.16,5.79-10.16,11.85v22.33c0,1.1-0.9,2-2,2s-2-0.9-2-2V88.9c0-8.08,5.88-14.89,13.68-15.82
					c4.44-0.54,8.88,0.86,12.21,3.81c3.34,2.97,5.26,7.21,5.26,11.65v69.03c0,0.58-0.04,1.17-0.12,1.85
					c0.57,4.59-0.88,9.14-4.01,12.52l-42.3,45.64c-0.86,0.93-1.33,2.14-1.33,3.4v1.7C191.83,229.47,186.31,234.99,179.53,234.99z"/>
			</g>
			<g>
				<path class="st2" d="M194.95,253.87h-53.21v-17.45c0-5.67,4.64-10.31,10.31-10.31h34.35c5.67,0,10.31,4.64,10.31,10.31v17.61
					C196.13,253.93,195.55,253.87,194.95,253.87z"/>
				<path class="st1" d="M196.7,256.03c-0.11,0-0.23-0.01-0.34-0.03c-0.51-0.09-0.98-0.13-1.41-0.13h-53.21c-1.1,0-2-0.9-2-2v-17.45
					c0-6.79,5.52-12.31,12.31-12.31h34.35c6.79,0,12.31,5.52,12.31,12.31v17.61c0,0.59-0.26,1.15-0.71,1.53
					C197.63,255.86,197.17,256.03,196.7,256.03z M143.74,251.87h50.96v-15.45c0-4.58-3.73-8.31-8.31-8.31h-34.35
					c-4.58,0-8.31,3.73-8.31,8.31V251.87z"/>
			</g>
		</g>
		<g>
			<path class="st1" d="M127.68,254c-1.1,0-2-0.88-2-1.97V61.19c0-1.09,0.9-1.97,2-1.97s2,0.88,2,1.97v190.84
				C129.68,253.12,128.78,254,127.68,254z"/>
		</g>
		<g>
			<path class="st1" d="M127.68,118.19c-0.63,0-1.22-0.3-1.6-0.8l-20.61-27.48c-0.66-0.88-0.48-2.14,0.4-2.8
				c0.89-0.66,2.14-0.48,2.8,0.4l19.01,25.35l19.01-25.35c0.66-0.88,1.92-1.06,2.8-0.4c0.88,0.66,1.06,1.92,0.4,2.8l-20.61,27.48
				C128.9,117.89,128.31,118.19,127.68,118.19z"/>
		</g>
		<g>
			<path class="st1" d="M127.68,145.67c-0.42,0-0.84-0.13-1.2-0.4l-27.48-20.61c-0.88-0.66-1.06-1.92-0.4-2.8
				c0.66-0.88,1.92-1.06,2.8-0.4l26.28,19.71l26.28-19.71c0.89-0.67,2.14-0.48,2.8,0.4c0.66,0.88,0.48,2.14-0.4,2.8l-27.48,20.61
				C128.52,145.54,128.1,145.67,127.68,145.67z"/>
		</g>
	</g>
	<g>
		<g>
			<path class="st0" d="M85.71,48.03c-0.31-2.54-1.52-4.6-3.32-6.36c-1.62-1.58-3.54-2.4-5.83-2.29c-0.05,0-0.1-0.02-0.19-0.04
				c1.84-1.34,2.63-3.07,2.19-5.3c-0.31-1.54-0.57-3.1-0.96-4.62c-1.03-3.96-2.34-7.83-4.24-11.47c-0.5-0.96-1.14-1.87-1.82-2.73
				c-0.55-0.7-1.26-0.79-2.07-0.42c-0.41,0.19-0.81,0.45-1.17,0.73c-2.45,1.9-3.94,4.46-4.96,7.32c-1.74,4.93-2.24,10.02-1.78,15.2
				c0.2,2.22,0.61,4.41,1.51,6.47c0.17,0.38,0.36,0.75,0.53,1.09c-0.56-0.06-1.11-0.16-1.67-0.16c-0.27,0-0.41-0.07-0.49-0.26
				l-1.07,1.11c0.1,0.04,0.22,0.18,0.23,0.29c0.07,0.61,0.11,1.23,0.15,1.85c-1.46-0.83-3.07-1.33-4.74-1.64
				c-4.77-0.9-9.52-0.72-14.25,0.29c-2.9,0.62-5.67,1.58-8.14,3.28c-1.38,0.95-2.59,2.09-3.47,3.53c-0.69,1.12-0.51,1.97,0.54,2.75
				c0.67,0.5,1.37,0.97,2.1,1.37c3.02,1.64,6.25,2.78,9.52,3.77c2.42,0.74,4.87,1.36,7.39,1.66c1.31,0.16,2.51-0.09,3.53-0.94
				c0.46-0.38,0.85-0.83,1.37-1.35c-0.03,0.25-0.06,0.41-0.07,0.56c-0.01,1.39,0.33,2.68,1.05,3.88c0.77,1.29,1.85,2.28,3.05,3.15
				c3.37,2.47,7.77,2.44,11-0.09c1.38-1.08,2.42-2.4,2.58-4.24c0.11-1.21-0.17-2.36-0.65-3.46c-1-2.3-2.53-4.23-4.19-6.07
				c-0.66-0.73-1.39-1.4-2.09-2.1c0.03-0.05,0.06-0.09,0.09-0.14c0.04,0.01,0.08,0.02,0.12,0.04c1.13,0.47,2.71-1.53,2.4-2.46
				c0.09,0.03,0.15,0.08,0.21,0.13c0.97,0.89,1.91,1.8,2.91,2.66c1.72,1.47,3.53,2.81,5.68,3.59c1.62,0.59,3.24,0.7,4.83-0.14
				C84.31,55.01,86.11,51.34,85.71,48.03z"/>
			<path class="st1" d="M64.14,72.58c-2.32,0-4.65-0.74-6.67-2.21c-1.63-1.19-2.77-2.38-3.58-3.74c-0.32-0.54-0.59-1.1-0.8-1.68
				c-1.07,0.48-2.28,0.64-3.6,0.48c-2.32-0.27-4.7-0.81-7.73-1.73c-2.8-0.85-6.46-2.07-9.9-3.93c-0.72-0.39-1.46-0.87-2.34-1.52
				c-1.88-1.39-2.27-3.41-1.05-5.4c0.96-1.57,2.28-2.92,4.04-4.13c2.44-1.68,5.25-2.82,8.86-3.59c5.17-1.11,10.23-1.21,15.03-0.3
				c0.78,0.15,1.52,0.33,2.21,0.54c0.09-0.16,0.2-0.32,0.33-0.46l1.07-1.11c0.15-0.16,0.33-0.29,0.53-0.39
				c-0.48-1.54-0.79-3.23-0.96-5.18c-0.5-5.68,0.13-11.08,1.88-16.05c1.27-3.59,3.11-6.29,5.62-8.24c0.53-0.41,1.04-0.73,1.56-0.97
				c1.7-0.78,3.37-0.41,4.48,1c0.85,1.08,1.51,2.08,2.02,3.04c1.78,3.4,3.18,7.18,4.4,11.89c0.31,1.2,0.54,2.4,0.76,3.56l0.23,1.17
				c0.31,1.55,0.17,2.98-0.4,4.26c1.33,0.47,2.55,1.25,3.66,2.34c2.25,2.2,3.56,4.73,3.91,7.54c0.51,4.11-1.74,8.61-5.23,10.46
				c-1.93,1.02-4.1,1.11-6.45,0.25c-2.54-0.92-4.55-2.46-6.19-3.86c1.31,1.54,2.65,3.36,3.59,5.53c0.67,1.54,0.94,2.99,0.81,4.43
				c-0.2,2.18-1.29,4.02-3.34,5.63C68.9,71.8,66.53,72.58,64.14,72.58z M54.62,59.16c0.3,0,0.59,0.07,0.87,0.2
				c0.77,0.37,1.21,1.19,1.11,2.04l-0.05,0.4c-0.01,0.98,0.24,1.91,0.76,2.78c0.54,0.9,1.32,1.69,2.52,2.57
				c2.64,1.93,6.09,1.91,8.59-0.05c1.17-0.92,1.73-1.79,1.82-2.85c0.07-0.76-0.09-1.55-0.49-2.48c-0.94-2.17-2.47-4.01-3.84-5.52
				c-0.43-0.47-0.89-0.92-1.34-1.36c-0.23-0.22-0.45-0.44-0.68-0.67c-0.66-0.66-0.78-1.69-0.28-2.48c0.44-0.69,1.32-1.15,2.11-1.04
				c0.07-0.08,0.14-0.17,0.19-0.26c-0.06-0.59,0.15-1.19,0.58-1.62c0.54-0.53,1.33-0.72,2.04-0.48c0.5,0.17,0.82,0.46,0.92,0.55
				c0.31,0.28,0.61,0.56,0.91,0.85c0.64,0.6,1.29,1.2,1.95,1.77c1.39,1.19,3.07,2.5,5.06,3.23c1.29,0.47,2.28,0.46,3.21-0.03
				c2.03-1.08,3.43-3.96,3.13-6.43l0,0c-0.24-1.92-1.13-3.61-2.73-5.17c-1.27-1.24-2.69-1.8-4.34-1.73
				c-0.37,0.01-0.64-0.06-0.75-0.1c-0.76-0.18-1.34-0.78-1.5-1.55s0.16-1.55,0.79-2.01c1.26-0.91,1.68-1.9,1.4-3.29l-0.23-1.2
				c-0.22-1.15-0.43-2.24-0.7-3.31c-1.15-4.41-2.44-7.92-4.08-11.05c-0.35-0.68-0.82-1.39-1.43-2.18c-0.19,0.1-0.41,0.25-0.63,0.42
				c-1.91,1.49-3.28,3.52-4.3,6.41C63.64,28,63.1,32.7,63.56,37.88c0.21,2.35,0.64,4.21,1.35,5.85c0.1,0.22,0.21,0.44,0.32,0.65
				l0.18,0.35c0.32,0.65,0.26,1.43-0.16,2.03s-1.13,0.92-1.85,0.84c-0.18-0.02-0.36-0.04-0.54-0.07c-0.05-0.01-0.1-0.01-0.15-0.02
				c0.01,0.1,0.01,0.2,0.02,0.29l0.04,0.47c0.06,0.74-0.3,1.45-0.92,1.84c-0.62,0.4-1.42,0.42-2.06,0.05
				c-1.14-0.65-2.49-1.11-4.12-1.42c-4.34-0.82-8.75-0.72-13.46,0.28c-3.08,0.66-5.44,1.6-7.43,2.97c-1.29,0.88-2.23,1.84-2.89,2.92
				c-0.01,0.02-0.03,0.04-0.04,0.06c0.02,0.01,0.04,0.03,0.06,0.04c0.72,0.53,1.31,0.92,1.86,1.22c3.12,1.69,6.53,2.82,9.15,3.62
				c2.8,0.85,4.97,1.34,7.04,1.58c1.11,0.13,1.66-0.19,2.02-0.49c0.22-0.18,0.46-0.43,0.73-0.71c0.16-0.16,0.32-0.33,0.5-0.51
				C53.59,59.36,54.1,59.16,54.62,59.16z M66,50.86C66,50.86,66,50.86,66,50.86C66,50.86,66,50.86,66,50.86z"/>
		</g>
		<g>
			<line class="st0" x1="61.72" y1="45.92" x2="57.19" y2="28.69"/>
			<path class="st1" d="M61.72,47.92c-0.89,0-1.7-0.59-1.93-1.49L55.25,29.2c-0.28-1.07,0.36-2.16,1.43-2.44
				c1.07-0.28,2.16,0.36,2.44,1.43l4.53,17.23c0.28,1.07-0.36,2.16-1.43,2.44C62.05,47.9,61.88,47.92,61.72,47.92z"/>
		</g>
		<g>
			<line class="st0" x1="61.33" y1="46.69" x2="44.71" y2="40.12"/>
			<path class="st1" d="M61.33,48.69c-0.24,0-0.49-0.05-0.73-0.14l-16.62-6.57c-1.03-0.41-1.53-1.57-1.12-2.6
				c0.41-1.03,1.57-1.53,2.6-1.12l16.62,6.57c1.03,0.41,1.53,1.57,1.12,2.6C62.88,48.22,62.13,48.69,61.33,48.69z"/>
		</g>
		<g>
			<line class="st0" x1="66.22" y1="51.22" x2="74.36" y2="59.29"/>
			<path class="st1" d="M74.36,61.29c-0.51,0-1.02-0.19-1.41-0.58l-8.15-8.06c-0.79-0.78-0.79-2.04-0.01-2.83
				c0.78-0.78,2.04-0.79,2.83-0.01l8.15,8.06c0.79,0.78,0.79,2.04,0.01,2.83C75.39,61.09,74.88,61.29,74.36,61.29z"/>
		</g>
	</g>
	<g>
		<g>
			<path class="st0" d="M180.01,59.65c-2.38-1.67-4.84-3.33-7.22-5.1c-1.42-1.06-2.85-2.17-4.05-3.47
				c-3.73-4.07-2.43-9.56,2.78-11.51c1.6-0.6,3.42-0.84,5.13-0.83c3.18,0.03,6.27-0.31,9.33-1.19c1.39-0.4,2.87-0.65,4.32-0.72
				c4.98-0.23,8.59,2.65,9.45,7.57c0.28,1.59,0.36,3.24,0.28,4.85c-0.14,2.94,0.3,5.77,1.06,8.58c0.3,1.1,0.46,2.25,0.54,3.39
				c0.21,3.03-1.01,5.45-3.34,7.33c-1.55,1.26-3.32,1.52-5.22,0.94c-2.37-0.72-4.3-2.19-6.14-3.76
				C184.63,63.73,182.35,61.69,180.01,59.65z"/>
			<path class="st1" d="M194.95,71.77c-0.79,0-1.61-0.12-2.44-0.38c-2.84-0.86-5.03-2.6-6.86-4.16c-1.63-1.39-3.24-2.8-4.85-4.23
				l-2.03-1.79c-0.67-0.47-1.36-0.95-2.04-1.42c-1.69-1.17-3.44-2.38-5.13-3.65c-1.38-1.03-2.97-2.25-4.33-3.73
				c-2.24-2.44-3.12-5.49-2.44-8.36c0.69-2.89,2.88-5.21,5.99-6.37c2.17-0.81,4.4-0.95,5.85-0.96c3.21,0.03,6.08-0.34,8.76-1.12
				c1.57-0.45,3.18-0.72,4.79-0.8c5.98-0.28,10.48,3.35,11.51,9.22c0.29,1.67,0.4,3.45,0.31,5.29c-0.12,2.48,0.21,5.08,1,7.96
				c0.31,1.14,0.51,2.37,0.6,3.78c0.24,3.55-1.17,6.67-4.08,9.03C198.2,71.21,196.63,71.77,194.95,71.77z M176.54,40.73
				c-1.56,0-3.08,0.25-4.3,0.71c-1.88,0.7-3.12,1.96-3.5,3.56c-0.37,1.56,0.17,3.29,1.49,4.73c1.12,1.21,2.53,2.3,3.77,3.22
				c1.64,1.22,3.36,2.42,5.02,3.57c0.72,0.5,1.44,1,2.15,1.5c0.06,0.04,0.11,0.08,0.17,0.13l2.12,1.87c1.6,1.41,3.19,2.81,4.8,4.18
				c1.52,1.3,3.33,2.73,5.43,3.37c1.32,0.4,2.39,0.21,3.38-0.58c1.9-1.54,2.76-3.39,2.6-5.64c-0.08-1.12-0.24-2.13-0.47-3
				c-0.9-3.29-1.27-6.3-1.13-9.2c0.07-1.55-0.01-3.03-0.25-4.41c-0.69-3.94-3.4-6.08-7.39-5.91c-1.27,0.06-2.61,0.28-3.85,0.64
				c-3.06,0.89-6.28,1.3-9.91,1.27C176.61,40.73,176.57,40.73,176.54,40.73z"/>
		</g>
		<g>
			<path class="st0" d="M173.83,22.41c1.88-2.12,3.86-4.13,6.35-5.5c1.09-0.6,2.38-1.01,3.62-1.17c1.33-0.17,2.12,0.55,2.16,1.89
				c0.03,1.44-0.02,2.95-0.43,4.31c-0.87,2.87-1.86,5.72-3.04,8.47c-1.34,3.13-5.07,4.19-8.16,2.53c-2.82-1.52-3.85-5.29-2.17-8.08
				C172.65,24.01,173.26,23.23,173.83,22.41z"/>
			<path class="st1" d="M177.36,35.72c-1.36,0-2.74-0.34-3.99-1.02c-1.82-0.98-3.19-2.72-3.75-4.77c-0.57-2.07-0.27-4.3,0.81-6.1
				c0.39-0.66,0.83-1.26,1.25-1.83c0.17-0.24,0.35-0.48,0.52-0.72c0.04-0.06,0.09-0.12,0.14-0.18c1.91-2.16,4.07-4.38,6.88-5.93
				c1.29-0.71,2.83-1.21,4.33-1.4c1.54-0.2,2.54,0.34,3.11,0.83c0.57,0.49,1.27,1.41,1.3,3c0.03,1.39,0,3.21-0.52,4.93
				c-0.96,3.17-1.98,6.01-3.12,8.68c-0.83,1.94-2.38,3.39-4.37,4.09C179.11,35.57,178.24,35.72,177.36,35.72z M175.4,23.65
				c-0.16,0.23-0.32,0.46-0.49,0.68c-0.39,0.54-0.75,1.04-1.06,1.55c-0.52,0.87-0.66,1.95-0.38,2.98c0.28,1,0.93,1.85,1.79,2.31
				c1.08,0.58,2.3,0.7,3.36,0.33c0.65-0.23,1.52-0.74,2.01-1.88c1.08-2.53,2.05-5.24,2.97-8.26c0.35-1.16,0.37-2.54,0.35-3.62
				c-0.98,0.14-1.97,0.46-2.81,0.93C178.9,19.9,177.06,21.79,175.4,23.65z"/>
		</g>
		<g>
			<path class="st0" d="M217.14,57.47c-0.34,0.38-0.93,1.1-1.59,1.74c-2.2,2.17-6.07,2.11-8.16-0.1c-2.36-2.48-2.41-6.34,0.06-8.44
				c2.95-2.51,6.17-4.66,9.8-6.12c0.64-0.26,1.32-0.44,2-0.53c1.47-0.2,2.38,0.37,2.52,1.84c0.12,1.18-0.01,2.45-0.33,3.6
				C220.67,52.3,219.1,54.76,217.14,57.47z"/>
			<path class="st1" d="M211.52,62.81c-0.04,0-0.09,0-0.13,0c-2.09-0.03-4.08-0.88-5.44-2.31c-1.59-1.67-2.44-3.92-2.32-6.15
				c0.11-2.05,1.01-3.9,2.54-5.2c3.44-2.92,6.82-5.03,10.34-6.45c0.79-0.32,1.66-0.55,2.49-0.66c1.34-0.18,2.47,0.08,3.34,0.76
				c0.57,0.45,1.29,1.32,1.44,2.86c0.14,1.4,0,2.9-0.39,4.33c-0.83,3.01-2.44,5.64-4.61,8.65c-0.04,0.06-0.09,0.12-0.14,0.17
				l-0.3,0.35c-0.35,0.4-0.83,0.96-1.36,1.48C215.56,62.02,213.58,62.81,211.52,62.81z M219.78,45.98c-0.06,0-0.15,0.01-0.26,0.02
				c-0.5,0.07-1.03,0.21-1.52,0.41c-3.12,1.26-6.14,3.15-9.25,5.79c-0.87,0.74-1.1,1.69-1.13,2.36c-0.06,1.14,0.39,2.3,1.23,3.18
				c0.63,0.66,1.58,1.05,2.61,1.07c1.03,0,2.03-0.35,2.7-1.01c0.42-0.42,0.83-0.88,1.15-1.25c0.1-0.12,0.2-0.23,0.28-0.32
				c1.94-2.7,3.27-4.87,3.94-7.29c0.26-0.95,0.36-1.97,0.27-2.87C219.79,46.03,219.78,46,219.78,45.98z"/>
		</g>
		<g>
			<path class="st0" d="M200.1,29.98c-2.48,3.25-6.12,3.78-8.81,1.66c-2.63-2.07-3.07-5.83-0.75-8.46c2.79-3.17,6.2-5.55,10.28-6.83
				c0.65-0.2,1.37-0.29,2.05-0.27c1.83,0.05,2.66,0.95,2.36,2.75c-0.22,1.32-0.66,2.63-1.16,3.87c-0.57,1.4-1.29,2.75-2.02,4.08
				C201.36,28.03,200.57,29.21,200.1,29.98z"/>
			<path class="st1" d="M194.83,34.9c-1.7,0-3.37-0.59-4.77-1.69c-1.73-1.36-2.79-3.3-2.99-5.45c-0.19-2.14,0.51-4.24,1.98-5.91
				c3.16-3.58,6.92-6.08,11.18-7.41c0.83-0.26,1.77-0.39,2.71-0.36c1.54,0.04,2.72,0.54,3.49,1.48c0.52,0.63,1.08,1.77,0.78,3.59
				c-0.22,1.31-0.62,2.68-1.29,4.3c-0.58,1.42-1.26,2.74-2.12,4.29c-0.53,0.96-1.1,1.86-1.55,2.58c-0.16,0.26-0.31,0.49-0.43,0.69
				c-0.04,0.06-0.07,0.11-0.12,0.17c-1.58,2.07-3.69,3.37-5.94,3.65C195.44,34.88,195.13,34.9,194.83,34.9z M202.68,18.08
				c-0.45,0-0.89,0.06-1.26,0.18c-3.55,1.11-6.71,3.21-9.38,6.24c-0.73,0.83-1.09,1.86-0.99,2.9c0.09,1.04,0.62,1.99,1.48,2.66
				c0.82,0.65,1.77,0.93,2.73,0.81c1.15-0.14,2.28-0.87,3.2-2.04c0.12-0.19,0.26-0.41,0.4-0.64c0.43-0.68,0.96-1.52,1.43-2.38
				c0.79-1.43,1.42-2.64,1.92-3.87c0.54-1.34,0.88-2.43,1.04-3.44c0.03-0.17,0.03-0.29,0.03-0.37c-0.09-0.02-0.24-0.05-0.48-0.06
				C202.77,18.09,202.72,18.08,202.68,18.08z"/>
		</g>
		<g>
			<path class="st0" d="M204.35,32.46c2.16-2.29,4.64-4.77,7.62-6.67c0.8-0.51,1.7-0.9,2.6-1.17c1.16-0.35,2.02,0.02,2.38,1.17
				c0.34,1.1,0.56,2.34,0.44,3.48c-0.39,3.85-1.81,7.38-3.95,10.58c-2.02,3.01-5.81,3.65-8.5,1.57
				C202.15,39.26,201.8,35.58,204.35,32.46z"/>
			<path class="st1" d="M208.42,44.63c-1.69,0-3.32-0.56-4.71-1.63c-1.73-1.34-2.81-3.2-3.04-5.26c-0.25-2.24,0.5-4.56,2.13-6.55
				c0.03-0.04,0.06-0.07,0.09-0.11c2.3-2.44,4.86-4.98,8-6.98c0.91-0.58,1.99-1.07,3.11-1.4c2.24-0.67,4.19,0.33,4.86,2.49
				c0.33,1.05,0.69,2.65,0.52,4.27c-0.4,3.98-1.84,7.84-4.28,11.49c-1.3,1.94-3.23,3.21-5.43,3.57
				C209.25,44.6,208.84,44.63,208.42,44.63z M205.85,33.78c-0.91,1.13-1.34,2.38-1.21,3.51c0.11,0.99,0.64,1.87,1.52,2.55
				c0.83,0.64,1.84,0.91,2.86,0.74c1.09-0.18,2.07-0.83,2.75-1.85c2.07-3.09,3.29-6.34,3.62-9.66c0.07-0.71-0.04-1.58-0.31-2.52
				c-0.75,0.23-1.45,0.55-2.04,0.93C210.29,29.23,207.96,31.54,205.85,33.78z"/>
		</g>
	</g>
</g>
</svg>
