<?xml version="1.0" encoding="utf-8"?>
<!-- Generator: Adobe Illustrator 26.1.0, SVG Export Plug-In . SVG Version: 6.00 Build 0)  -->
<svg version="1.1" id="Layer_1" xmlns="http://www.w3.org/2000/svg" xmlns:xlink="http://www.w3.org/1999/xlink" x="0px" y="0px"
	 viewBox="0 0 256 256" style="enable-background:new 0 0 256 256;" xml:space="preserve">
<style type="text/css">
	.st0{fill:#94C253;}
	.st1{fill:#2C5FA8;}
	.st2{clip-path:url(#SVGID_00000114066109625171688080000015862204596309597613_);}
</style>
<g>
	<g>
		<g>
			<g>
				<path class="st0" d="M12,254c-5.51,0-10-4.49-10-10V12C2,6.49,6.49,2,12,2h232c5.51,0,10,4.49,10,10v232c0,5.51-4.49,10-10,10
					H12z"/>
			</g>
		</g>
		<g>
			<path class="st1" d="M244,4c4.41,0,8,3.59,8,8v232c0,4.41-3.59,8-8,8H12c-4.41,0-8-3.59-8-8V12c0-4.41,3.59-8,8-8H244 M244,0H12
				C5.4,0,0,5.4,0,12v232c0,6.6,5.4,12,12,12h232c6.6,0,12-5.4,12-12V12C256,5.4,250.6,0,244,0L244,0z"/>
		</g>
	</g>
	<g>
		<defs>
			<path id="SVGID_1_" d="M243.87,255.87H12.13c-6.6,0-12-5.4-12-12V12.13c0-6.6,5.4-12,12-12h231.75c6.6,0,12,5.4,12,12v231.75
				C255.87,250.47,250.47,255.87,243.87,255.87z"/>
		</defs>
		<clipPath id="SVGID_00000073712692128900607890000008910941313347943602_">
			<use xlink:href="#SVGID_1_"  style="overflow:visible;"/>
		</clipPath>
		<g style="clip-path:url(#SVGID_00000073712692128900607890000008910941313347943602_);">
			<path class="st1" d="M140.83,270.21c-41.8,0-88.73-28.92-93.38-82.52c-0.69-7.9,0.15-15.8,2.55-24.11
				c-20.31-25.15-25.62-57.53-14.2-86.84c0.26-0.67,0.57-1.52,0.94-2.54l0.11-0.3c3.42-9.36,10.54-28.84,23.17-46.63
				c22.85-32.18,49.54-38.93,67.92-38.93c1.05,0,2.09,0.01,3.11,0.04c17.76,0.39,28.45,13.96,39.77,28.33
				c5.11,6.49,12.83,16.29,17.59,19.18c21.85,13.24,37.5,33.88,46.52,61.37c1.19,3.62,2.14,6.93,2.9,9.59l0.04,0.12
				c0.13,0.47,0.35,1.21,0.57,1.96c0.95,1.34,2.44,3.19,4.15,5.33c5.37,6.69,13.5,16.8,17.25,26.23
				c13.67,34.25-0.65,71.97-19.73,92.53c-19.33,20.82-50.14,33.22-91.56,36.87C146.04,270.1,143.44,270.21,140.83,270.21z
				 M127.94-7.66c-17.43,0-42.8,6.46-64.66,37.25C50.96,46.94,43.97,66.08,40.61,75.27l-0.11,0.31c-0.38,1.04-0.7,1.93-0.97,2.62
				c-11.01,28.26-5.69,59.54,14.24,83.67c0.43,0.52,0.57,1.21,0.37,1.85c-2.48,8.19-3.36,15.92-2.7,23.63
				c4.45,51.23,49.38,78.87,89.39,78.87c2.48,0,4.97-0.11,7.38-0.32c40.41-3.56,70.34-15.54,88.98-35.61
				c18.25-19.66,31.97-55.68,18.95-88.32c-3.54-8.87-11.43-18.7-16.66-25.21c-1.83-2.27-3.4-4.24-4.42-5.69l-0.09-0.12
				c-0.12-0.18-0.22-0.37-0.28-0.58c-0.25-0.87-0.51-1.76-0.67-2.3l-0.04-0.12c-0.75-2.62-1.69-5.89-2.86-9.44
				c-8.71-26.55-23.79-46.47-44.79-59.2c-5.38-3.26-13.05-13-18.66-20.12C156.97,5.57,146.84-7.28,130.96-7.63
				C129.97-7.65,128.97-7.66,127.94-7.66z"/>
		</g>
		<g style="clip-path:url(#SVGID_00000073712692128900607890000008910941313347943602_);">
			<path class="st1" d="M143.08,242.69c-31.36,0-66.56-20.52-70.01-58.55c-0.81-8.89,1.91-16.25,4.54-23.36
				c0.41-1.12,0.82-2.23,1.21-3.33c-0.9-0.93-1.62-1.84-2.33-2.73c-0.79-0.99-1.53-1.92-2.52-2.92
				c-17.89-18.09-23.41-43.07-14.39-65.19c0.34-0.84,0.76-1.94,1.26-3.25c6.39-16.73,25.84-67.62,69.1-67.62
				c0.35,0,0.71,0.02,1.06,0.05c0.45,0.03,0.88,0.06,1.18,0.01c10.38-1.72,18.55,8.97,27.21,20.31c6.24,8.17,12.7,16.62,20.24,20.99
				c15.77,9.14,27.34,24.93,35.36,48.29c1.09,3.17,1.95,6.05,2.71,8.6c0.58,1.92,1.41,4.69,1.89,5.91c0.5,0.75,1.55,2.18,2.13,2.98
				c3.56,4.87,8.94,12.22,12.94,21.82c10.17,24.37,0.93,49.47-12.74,63.55c-18.85,19.41-45.53,31.87-73.2,34.2
				C146.89,242.61,144.99,242.69,143.08,242.69z M129.93,19.74c-40.5,0-59.21,48.96-65.36,65.05c-0.51,1.34-0.94,2.46-1.29,3.33
				c-8.4,20.61-3.21,43.93,13.53,60.87c1.14,1.15,1.99,2.21,2.8,3.23c0.89,1.11,1.73,2.16,2.87,3.21c0.58,0.54,0.8,1.37,0.54,2.12
				c-0.52,1.53-1.09,3.07-1.66,4.62c-2.47,6.7-5.03,13.62-4.3,21.61c3.24,35.67,36.43,54.91,66.03,54.91c1.8,0,3.58-0.07,5.3-0.22
				c26.72-2.25,52.48-14.28,70.67-33c12.75-13.13,21.39-36.54,11.92-59.22c-3.82-9.16-9.03-16.29-12.48-21
				c-0.9-1.23-1.89-2.59-2.36-3.3c-0.07-0.1-0.13-0.21-0.17-0.33c-0.54-1.31-1.43-4.26-2.08-6.42c-0.77-2.57-1.62-5.42-2.68-8.51
				c-7.69-22.41-18.68-37.5-33.58-46.13c-8.24-4.77-14.94-13.54-21.42-22.03c-7.91-10.35-15.38-20.13-23.37-18.79
				c-0.77,0.13-1.48,0.08-2.12,0.04C130.45,19.76,130.19,19.74,129.93,19.74z"/>
		</g>
		<g style="clip-path:url(#SVGID_00000073712692128900607890000008910941313347943602_);">
			<g>
				<path class="st0" d="M148.46,215.12c-17.34,0-36.76-11.51-38.6-32.85c-0.4-4.6,3.31-11.6,6.57-17.79
					c3.47-6.58,6.47-12.26,5.96-16.52c-0.7-5.8-6.51-8.3-11.64-10.5c-2.92-1.25-5.93-2.55-7.54-4.26
					c-9.51-10.12-12.56-23.81-7.95-35.71c0.29-0.75,0.61-1.64,0.97-2.64c3.71-10.34,11.43-31.85,34.74-31.85
					c0.63,0,1.26,0.01,1.88,0.02c5.32,0.12,14.76,6.72,23.09,12.55c3.87,2.71,7.87,5.5,11.52,7.73
					c10.41,6.34,17.82,16.65,22.67,31.5c0.86,2.63,1.57,5.14,2.26,7.57c1.26,4.43,2.45,8.6,3.99,11.42
					c0.91,1.67,2.29,3.66,3.76,5.76c2.97,4.28,6.64,9.56,9.24,16.12c5.12,12.91,0.15,26.71-6.63,34.06
					c-13.23,14.34-31.96,23.55-51.4,25.27C150.43,215.08,149.45,215.12,148.46,215.12z"/>
			</g>
			<g>
				<path class="st1" d="M130.99,64.99c0.62,0,1.23,0.01,1.83,0.02c4.71,0.1,13.89,6.53,21.99,12.19c3.89,2.72,7.92,5.54,11.62,7.8
					c9.98,6.09,17.12,16.03,21.81,30.41c0.85,2.6,1.56,5.09,2.25,7.51c1.29,4.53,2.51,8.8,4.16,11.82c0.96,1.76,2.38,3.8,3.87,5.95
					l0.03,0.04c2.89,4.16,6.48,9.33,8.99,15.67c4.8,12.11,0.13,25.06-6.24,31.96c-12.9,13.98-31.16,22.96-50.1,24.63
					c-0.88,0.08-1.79,0.12-2.72,0.12c-16.45,0-34.87-10.87-36.6-31.02c-0.35-4.01,3.21-10.74,6.35-16.68
					c3.63-6.87,6.77-12.81,6.18-17.7c-0.84-6.94-7.49-9.8-12.83-12.1c-2.73-1.17-5.55-2.39-6.87-3.79
					c-8.98-9.56-11.87-22.44-7.54-33.62c0.3-0.78,0.62-1.67,0.99-2.69c1.84-5.13,4.63-12.89,9.81-19.36
					C113.96,68.65,121.5,64.99,130.99,64.99 M130.99,60.99c-27.04,0-34.26,27.21-37.57,35.77c-4.89,12.63-1.69,27.12,8.35,37.8
					c4.81,5.12,17.72,5.96,18.65,13.63s-13.39,24.37-12.54,34.24c1.94,22.52,22.36,34.68,40.59,34.68c1.05,0,2.08-0.04,3.07-0.13
					c19.92-1.76,39.13-11.21,52.69-25.91c7.19-7.79,12.46-22.43,7.02-36.15c-2.68-6.77-6.42-12.16-9.43-16.48
					c-1.44-2.08-2.81-4.04-3.67-5.63c-1.44-2.63-2.6-6.7-3.83-11.01c-0.7-2.45-1.42-4.97-2.29-7.64c-5-15.33-12.7-25.99-23.53-32.59
					c-11.92-7.27-27.12-20.39-35.6-20.57C132.27,61,131.63,60.99,130.99,60.99L130.99,60.99z"/>
			</g>
		</g>
		<g style="clip-path:url(#SVGID_00000073712692128900607890000008910941313347943602_);">
			<g>
				<path class="st0" d="M148.46,191.12c-3.82,0-13.91-1.96-14.69-10.91c-0.28-3.27,2.13-11.64,6.93-15.48l0.43-0.35
					c5.32-4.25,11.94-9.55,11.37-17.09c-0.35-4.64-3.54-8.4-6.27-11.16c-4.39-4.44-9.31-8.37-14.6-11.68
					c-0.8-0.5-1.61-0.99-2.43-1.48c-3.16-1.9-6.14-3.7-8.49-6.19c-2.34-2.49-4.55-6.77-3.06-10.62c1.65-4.26,6.79-6.32,15.71-6.32
					c0.46,0,0.91,0.01,1.35,0.02c6.7,0.15,14.3,0.31,20.26,3.94c5.31,3.24,9.35,9.27,12.34,18.45c0.72,2.2,1.37,4.49,2,6.7
					c1.57,5.5,3.19,11.18,6.02,16.37c1.53,2.8,3.36,5.43,5.13,7.98c2.59,3.72,5.03,7.24,6.61,11.23c1.44,3.62-1.11,8.02-1.96,8.94
					c-9.23,10.01-22.31,16.44-35.88,17.64C149.01,191.11,148.75,191.12,148.46,191.12z"/>
			</g>
			<g>
				<path class="st1" d="M133.36,97.83v4h0c0.44,0,0.88,0.01,1.31,0.01c6.45,0.14,13.76,0.3,19.26,3.65
					c4.89,2.98,8.64,8.66,11.48,17.37c0.71,2.16,1.35,4.43,1.98,6.63c1.6,5.6,3.25,11.4,6.19,16.78c1.58,2.9,3.44,5.57,5.24,8.16
					c2.52,3.63,4.9,7.05,6.4,10.83c1.03,2.6-0.97,6.17-1.57,6.84c-8.9,9.65-21.51,15.84-34.58,17c-0.17,0.02-0.38,0.02-0.6,0.02
					c-0.12,0-11.93-0.25-12.69-9.08c-0.25-2.89,2.13-10.5,6.19-13.74l0.43-0.34c5.69-4.55,12.76-10.21,12.11-18.81
					c-0.4-5.29-3.87-9.42-6.84-12.42c-4.5-4.55-9.54-8.58-14.97-11.97c-0.81-0.51-1.63-1-2.45-1.5c-3.04-1.83-5.91-3.56-8.06-5.85
					c-2.1-2.23-3.73-5.73-2.65-8.52c1.3-3.35,5.95-5.05,13.84-5.05L133.36,97.83 M133.36,97.83c-7,0-15.1,1.24-17.57,7.6
					c-1.67,4.32,0.29,9.33,3.47,12.71c3.17,3.38,7.38,5.54,11.31,8c5.17,3.23,9.96,7.07,14.25,11.4c2.74,2.77,5.4,6.03,5.7,9.91
					c0.51,6.67-5.83,11.54-11.05,15.73c-5.22,4.18-8.02,13.18-7.67,17.21c0.87,10.08,11.75,12.74,16.68,12.74
					c0.35,0,0.67-0.01,0.96-0.04c14.07-1.25,27.59-7.89,37.17-18.27c1.2-1.3,4.14-6.5,2.35-11.03c-2.8-7.07-8.19-12.76-11.84-19.43
					c-3.86-7.05-5.38-15.09-7.87-22.72s-6.35-15.36-13.21-19.54c-6.24-3.81-13.94-4.08-21.25-4.24
					C134.3,97.83,133.83,97.83,133.36,97.83L133.36,97.83z"/>
			</g>
		</g>
		<g style="clip-path:url(#SVGID_00000073712692128900607890000008910941313347943602_);">
			<path class="st1" d="M3.41,283.85c-0.34,0-0.69-0.09-1.01-0.27c-0.95-0.56-1.27-1.78-0.71-2.74c2.88-4.92,7.49-8.16,11.95-11.29
				c2.08-1.46,4.23-2.97,6.12-4.61c12.62-10.94,17.3-30.89,12.51-53.37c-2.08-9.76-5.55-19.38-8.92-28.68
				c-3.29-9.12-6.7-18.55-8.85-28.22c-7.45-33.47,0.24-68.55,7.01-99.5c1.89-8.62,3.84-17.54,8.07-25.64
				c3.91-7.49,9.57-13.84,15.04-19.99C49.49,4.06,54.53-1.6,58.17-7.94c0.55-0.96,1.77-1.29,2.73-0.74
				c0.96,0.55,1.29,1.77,0.74,2.73c-3.84,6.7-9.03,12.51-14.04,18.14c-5.31,5.96-10.8,12.12-14.48,19.18
				c-3.98,7.63-5.87,16.28-7.71,24.64c-6.69,30.54-14.27,65.17-7.02,97.78c2.1,9.42,5.46,18.73,8.71,27.73
				c3.41,9.43,6.93,19.18,9.07,29.21c5.1,23.93-0.06,45.32-13.8,57.23c-2.04,1.77-4.28,3.34-6.44,4.86
				c-4.3,3.02-8.36,5.88-10.8,10.04C4.77,283.49,4.1,283.85,3.41,283.85z"/>
		</g>
		<g style="clip-path:url(#SVGID_00000073712692128900607890000008910941313347943602_);">
			<path class="st1" d="M290.02,124.75c-0.59,0-1.18-0.26-1.57-0.76c-19.39-24.57-36.12-51.61-52.29-77.76
				c-14.14-22.85-28.75-46.49-45.07-68.32c-0.66-0.88-0.48-2.14,0.41-2.8c0.89-0.66,2.14-0.48,2.8,0.41
				c16.42,21.97,31.08,45.68,45.26,68.61c16.12,26.05,32.78,52.99,52.03,77.38c0.68,0.87,0.54,2.12-0.33,2.81
				C290.89,124.61,290.46,124.75,290.02,124.75z"/>
		</g>
		<g style="clip-path:url(#SVGID_00000073712692128900607890000008910941313347943602_);">
			<g>
				<path class="st1" d="M127.5,239.45c-0.04,0-0.09,0-0.14,0c-1.1-0.07-1.93-1.03-1.86-2.13l1.01-15c0.07-1.1,1.02-1.95,2.13-1.86
					c1.1,0.07,1.93,1.03,1.86,2.13l-1.01,15C129.42,238.64,128.54,239.45,127.5,239.45z"/>
			</g>
			<g>
				<path class="st1" d="M96.68,224.58c-0.5,0-1-0.18-1.38-0.55c-0.8-0.76-0.83-2.03-0.06-2.83l10.39-10.87
					c0.76-0.8,2.03-0.83,2.83-0.06s0.83,2.03,0.06,2.83l-10.39,10.87C97.73,224.37,97.2,224.58,96.68,224.58z"/>
			</g>
			<g>
				<path class="st1" d="M74.95,182.05c-1.09,0-1.99-0.88-2-1.98c-0.01-1.1,0.87-2.01,1.98-2.02l15.03-0.18c0.01,0,0.02,0,0.02,0
					c1.09,0,1.99,0.88,2,1.98c0.01,1.1-0.87,2.01-1.98,2.02l-15.03,0.18C74.96,182.05,74.95,182.05,74.95,182.05z"/>
			</g>
			<g>
				<path class="st1" d="M77.81,153.14c-0.63,0-1.25-0.3-1.64-0.85c-0.64-0.9-0.42-2.15,0.48-2.79l12.29-8.66
					c0.9-0.63,2.15-0.42,2.79,0.48c0.64,0.9,0.42,2.15-0.48,2.79l-12.29,8.66C78.61,153.02,78.21,153.14,77.81,153.14z"/>
			</g>
			<g>
				<path class="st1" d="M60.96,117.61c-0.97,0-1.82-0.71-1.97-1.69c-0.17-1.09,0.58-2.11,1.67-2.28l14.86-2.3
					c1.09-0.17,2.11,0.58,2.28,1.67c0.17,1.09-0.58,2.11-1.67,2.28l-14.86,2.3C61.17,117.6,61.06,117.61,60.96,117.61z"/>
			</g>
			<g>
				<path class="st1" d="M79.3,89.45c-0.26,0-0.52-0.05-0.77-0.16l-13.87-5.8c-1.02-0.43-1.5-1.6-1.07-2.62
					c0.43-1.02,1.6-1.49,2.62-1.07l13.87,5.8c1.02,0.43,1.5,1.6,1.07,2.62C80.82,88.98,80.08,89.45,79.3,89.45z"/>
			</g>
			<g>
				<path class="st1" d="M93.3,59.9c-0.4,0-0.8-0.12-1.15-0.37l-12.28-8.68c-0.9-0.64-1.12-1.89-0.48-2.79
					c0.64-0.9,1.88-1.12,2.79-0.48l12.28,8.68c0.9,0.64,1.12,1.89,0.48,2.79C94.54,59.61,93.93,59.9,93.3,59.9z"/>
			</g>
			<g>
				<path class="st1" d="M119.7,36.2c-0.86,0-1.66-0.56-1.92-1.43l-4.28-14.41c-0.31-1.06,0.29-2.17,1.35-2.49
					c1.06-0.32,2.17,0.29,2.49,1.35l4.28,14.41c0.31,1.06-0.29,2.17-1.35,2.49C120.08,36.17,119.89,36.2,119.7,36.2z"/>
			</g>
			<g>
				<path class="st1" d="M140.51,41.89c-0.61,0-1.21-0.28-1.61-0.81c-0.66-0.89-0.48-2.14,0.41-2.8l12.07-8.97
					c0.89-0.66,2.14-0.48,2.8,0.41c0.66,0.89,0.48,2.14-0.41,2.8l-12.07,8.97C141.35,41.76,140.93,41.89,140.51,41.89z"/>
			</g>
			<g>
				<path class="st1" d="M170.42,73.42c-0.39,0-0.79-0.12-1.14-0.36c-0.91-0.63-1.13-1.88-0.5-2.79l8.6-12.33
					c0.63-0.91,1.88-1.13,2.79-0.5c0.91,0.63,1.13,1.88,0.5,2.79l-8.6,12.33C171.67,73.12,171.05,73.42,170.42,73.42z"/>
			</g>
			<g>
				<path class="st1" d="M191.57,96.1c-0.73,0-1.44-0.41-1.79-1.11c-0.49-0.99-0.09-2.19,0.9-2.68l13.45-6.72
					c0.99-0.49,2.19-0.09,2.68,0.9c0.49,0.99,0.09,2.19-0.9,2.68l-13.45,6.72C192.17,96.04,191.87,96.1,191.57,96.1z"/>
			</g>
			<g>
				<path class="st1" d="M204.21,131.57c-0.64,0-1.27-0.31-1.66-0.88c-0.62-0.92-0.38-2.16,0.54-2.78l12.46-8.42
					c0.92-0.62,2.16-0.38,2.78,0.54c0.62,0.92,0.38,2.16-0.54,2.78l-12.46,8.42C204.99,131.46,204.6,131.57,204.21,131.57z"/>
			</g>
			<g>
				<path class="st1" d="M219.07,161.46c-1.06,0-1.95-0.83-2-1.91c-0.05-1.1,0.8-2.04,1.9-2.09l15.02-0.71
					c1.07-0.04,2.04,0.8,2.09,1.9c0.05,1.1-0.8,2.04-1.9,2.09l-15.02,0.71C219.13,161.46,219.1,161.46,219.07,161.46z"/>
			</g>
			<g>
				<path class="st1" d="M224.6,199.89c-0.38,0-0.77-0.11-1.11-0.34l-12.5-8.36c-0.92-0.61-1.16-1.86-0.55-2.77
					c0.61-0.92,1.86-1.17,2.77-0.55l12.5,8.36c0.92,0.61,1.16,1.86,0.55,2.77C225.88,199.58,225.24,199.89,224.6,199.89z"/>
			</g>
			<g>
				<path class="st1" d="M197.03,226.89c-0.69,0-1.37-0.36-1.74-1l-7.49-13.04c-0.55-0.96-0.22-2.18,0.74-2.73
					c0.96-0.55,2.18-0.22,2.73,0.74l7.49,13.04c0.55,0.96,0.22,2.18-0.74,2.73C197.71,226.81,197.37,226.89,197.03,226.89z"/>
			</g>
			<g>
				<path class="st1" d="M161.47,240.27c-0.94,0-1.77-0.66-1.96-1.62l-2.89-14.75c-0.21-1.08,0.49-2.13,1.58-2.35
					c1.09-0.21,2.13,0.49,2.35,1.58l2.89,14.75c0.21,1.08-0.49,2.13-1.58,2.35C161.73,240.26,161.6,240.27,161.47,240.27z"/>
			</g>
		</g>
	</g>
</g>
</svg>
