<?xml version="1.0" encoding="utf-8"?>
<!-- Generator: Adobe Illustrator 26.1.0, SVG Export Plug-In . SVG Version: 6.00 Build 0)  -->
<svg version="1.1" id="Layer_1" xmlns="http://www.w3.org/2000/svg" xmlns:xlink="http://www.w3.org/1999/xlink" x="0px" y="0px"
	 viewBox="0 0 256 256" style="enable-background:new 0 0 256 256;" xml:space="preserve">
<style type="text/css">
	.st0{fill:#97CC9A;}
	.st1{fill:#1B401D;}
	.st2{fill:#FFFFFF;stroke:#1B401D;stroke-width:4;stroke-linejoin:round;}
</style>
<g>
	<path class="st0" d="M12.22,253.26c-5.5-0.02-9.97-4.49-9.96-9.97l0.12-130.58L2.26,12c0-2.66,1.03-5.16,2.91-7.04
		c1.89-1.89,4.4-2.93,7.08-2.93L244.27,2.2c5.51,0,9.99,4.47,9.99,9.96v231.9c0,5.49-4.48,9.96-9.99,9.96L12.22,253.26z"/>
	<path class="st1" d="M12.26,4.03L244.27,4.2c4.4,0,7.99,3.58,7.99,7.96l0,231.9c0,4.39-3.59,7.96-8.02,7.96l-231.74,0
		c-4.4-0.01-8.24-4.36-8.24-8.74L4.37,112.7L4.26,12c0-2.12,0.82-4.12,2.33-5.62C8.1,4.86,10.11,4.03,12.26,4.03L12.26,4.03
		 M12.25,0.03c-6.63,0-12,5.36-11.99,11.98l0.11,100.7L0.26,243.29c-0.01,6.6,5.61,12.72,12.22,12.74l231.74,0c0.01,0,0.03,0,0.04,0
		c6.62,0,11.99-5.35,11.99-11.96l0-231.9c0-6.6-5.36-11.96-11.99-11.96L12.25,0.03C12.26,0.03,12.26,0.03,12.25,0.03L12.25,0.03z"/>
</g>
<g>
	<circle class="st2" cx="128.39" cy="126.26" r="111.94"/>
	<polygon class="st2" points="128.26,249.85 101.52,154.84 6.44,128.03 105.33,105.33 128.26,6.21 154.84,101.52 250.07,128.03
		154.84,154.84 	"/>
	<g>
		<g>
			<path class="st0" d="M126.59,215.89c-57.56,0-83.77-45.52-83.77-87.82c0-23.06,7.45-44.52,20.97-60.45
				c15.2-17.9,36.92-27.36,62.81-27.36c0.52,0,1.06,0,1.58,0.01c0.6-0.01,1.12-0.01,1.65-0.01c31.28,0,56.59,14,71.26,39.41
				c16.72,28.96,16.72,67.87,0,96.83c-14.67,25.4-39.97,39.39-71.25,39.39c-0.01,0-0.01,0-0.02,0c-0.52,0-1.06,0-1.58-0.01
				C127.65,215.89,127.12,215.89,126.59,215.89z"/>
			<path class="st1" d="M129.81,38.27l0.01,4c25.29,0,46.47,9.22,61.28,26.66c13.21,15.57,20.49,36.58,20.49,59.16
				c0,41.32-25.59,85.8-81.77,85.8c-0.51,0-1.04,0-1.55-0.01l-0.06,0l-0.06,0c-0.53,0.01-1.04,0.01-1.56,0.01
				c-30.54,0-55.24-13.64-69.54-38.41c-16.37-28.36-16.37-66.47,0-94.82c14.3-24.76,38.99-38.39,69.52-38.39c0,0,0.01,0,0.02,0
				c0.51,0,1.04,0,1.55,0.01l0.06,0l0.06,0c0.52-0.01,1.03-0.01,1.55-0.01V38.27 M129.83,38.27c-0.54,0-1.08,0-1.62,0.01
				c-0.53-0.01-1.08-0.01-1.61-0.01c-114.38-0.02-114.36,179.63-0.01,179.63c0.54,0,1.08,0,1.62-0.01c0.53,0.01,1.08,0.01,1.61,0.01
				C244.19,217.89,244.18,38.28,129.83,38.27L129.83,38.27z"/>
		</g>
		<path class="st1" d="M138.79,40.27c0.59,6.62-4.59,7.74,3.94,9.9c-12.8,23.31-10.31-7.81-35.95,1.21
			c-5.3,7.53-24.83,10.85-11.42,19.97c10.28-2.94,12.26-8.91,24.5-8c5.5,2.38,9.46,6.06,13.69,9.35c7.29-0.98,8.4,1.5,11.35,5.97
			c7.76-3.02,11.79,3.33,4.55,7.28c-3.74-1.62-3.75,2.75-7.55,2.83c-5.53-4.83-10.91-5.21-17.39-5.86
			c-3.86-9.47-14.03-13.35-22.53-5.66c-25.41,10.3-42.73,29.79-10.69,49.05c7.66,3.63,16.88-0.4,21.93-4.05
			c7.24,2.28,9.67,2.75,7.32,10.63c0.33,5.86,8.24,2.73,8.97,9.84c1.82,11.5-5.66,13.97-1.19,24.47c-3.65,7.3,4.35,13.68,7.91,18.45
			c0.77,7.24,4.89,6.2,10.12,3.72c7.17-0.88,14.24-10.7,18.63-14.81c-1.41-7.72,4.15-9.8,5.43-17.71
			c-2.22-14.91,2.46-28.98,11.82-38.87c-1.7-2.82-9.96,1.63-12.1,0.74c-2-2.27-23.45-21.34-19.64-27
			c21.34,19.67,14.14,26.35,39.83,5.84c3.03-10.91-17.33-0.27-16.42-17.2C241.45,107.61,173.2,39.49,138.79,40.27z M175.52,73.37
			c-13.73,3.62-13.03,9.52-23.27-6.35c-3.25-2.47-15.74,2.25-8.51-5.06c16.44-3.37,15.16,9.73,21.11,7.27
			C163.45,54.04,181.73,63.7,175.52,73.37z M190.42,157.21c-3.15,3.92-5.93,18.57-12.05,14.4
			C172.21,162.1,193.74,137.55,190.42,157.21z M70.02,173.55c-1.78,45.74-33.73-28.71-27.27-51.41
			C43.63,151.88,64.31,149.88,70.02,173.55z"/>
	</g>
</g>
</svg>
