<?xml version="1.0" encoding="utf-8"?>
<!-- Generator: Adobe Illustrator 26.1.0, SVG Export Plug-In . SVG Version: 6.00 Build 0)  -->
<svg version="1.1" id="Layer_1" xmlns="http://www.w3.org/2000/svg" xmlns:xlink="http://www.w3.org/1999/xlink" x="0px" y="0px"
	 viewBox="0 0 256 256" style="enable-background:new 0 0 256 256;" xml:space="preserve">
<style type="text/css">
	.st0{fill:#FFFFFF;}
	.st1{fill:#2C5FA8;}
	.st2{fill:#94C253;}
	.st3{fill:#9D9D9D;}
</style>
<g>
	<g>
		<g>
			<path class="st0" d="M12.22,253.26c-5.5-0.02-9.97-4.49-9.96-9.97l0.12-130.58L2.26,12c0-2.66,1.03-5.16,2.91-7.04
				c1.89-1.89,4.41-2.93,7.08-2.93L244.27,2.2c5.51,0,9.99,4.47,9.99,9.96v231.9c0,5.49-4.48,9.96-10,9.96L12.22,253.26z"/>
		</g>
		<g>
			<path class="st1" d="M12.26,4.03L244.27,4.2c4.4,0,7.99,3.58,7.99,7.96v231.9c0,4.39-3.59,7.96-8.02,7.96L13.2,252.24
				c-4.4-0.01-8.95-4.56-8.94-8.94L4.37,112.7L4.26,12c0-2.12,0.82-4.12,2.33-5.62C8.1,4.86,10.11,4.03,12.26,4.03L12.26,4.03
				 M12.26,0.03c-6.63,0-12,5.36-11.99,11.98l0.11,100.7L0.26,243.29c-0.01,6.6,6.32,12.93,12.93,12.95l231.04-0.21
				c0.01,0,0.03,0,0.04,0c6.62,0,11.99-5.35,11.99-11.96V12.16c0-6.6-5.36-11.96-11.99-11.96L12.26,0.03
				C12.26,0.03,12.26,0.03,12.26,0.03L12.26,0.03z"/>
		</g>
	</g>
	<g>
		<g>
			<g>
				<g>
					<path class="st2" d="M58.49,241.83l-1.61-3.19c-0.21-0.42-0.57-0.76-1.01-0.94l-6.15-2.57l-1.48-3.22
						c-0.33-0.72-1.04-1.16-1.82-1.16c-0.1,0-0.21,0.01-0.31,0.02l-3.77,0.59l1.71-5.96c0.17-0.61,0.05-1.27-0.34-1.77l-7.6-9.84
						l3.53-1.77c0.69-0.35,1.12-1.06,1.1-1.84l-0.27-11.08c-0.01-0.31-0.09-0.62-0.24-0.9l-5.78-10.72
						c-0.08-0.16-0.19-0.31-0.32-0.44l-6.67-6.94l-4.81-9.17l-2.11-9.04c-0.06-0.25-0.16-0.48-0.31-0.69l-3.94-5.67l-5.79-9.55
						l2.97-1.05c0.56-0.2,1.01-0.64,1.21-1.2l1.84-4.99l2.46,2.36l1.66,6.04c0.21,0.75,0.83,1.32,1.6,1.44l9.04,1.5
						c0.11,0.02,0.22,0.03,0.33,0.03h17.35c0.64,0,1.24-0.31,1.62-0.82l4.36-6l4.89-1.96c0.78-0.31,1.28-1.08,1.25-1.92l-1.65-52.66
						l6.96,6.65l3.07,9.12L65.21,107c-0.47,0.5-0.65,1.2-0.49,1.86l1.08,4.29c0.2,0.79,0.85,1.37,1.65,1.49L83.73,117
						c0.1,0.01,0.19,0.02,0.29,0.02c0.55,0,1.08-0.22,1.46-0.63l12.65-13.44c0.19-0.2,0.33-0.44,0.43-0.7l3.61-10.05l5.08-1.18
						c0.04-0.01,2.46-0.73,2.46-0.73l3.86,4.69c0.38,0.46,0.95,0.73,1.54,0.73h4.56l4.26,2.27c0.29,0.15,0.61,0.23,0.94,0.23
						c0.11,0,0.23-0.01,0.34-0.03l8.08-1.39l5.55,0.34c0.04,0,0.08,0,0.12,0c0.67,0,1.3-0.34,1.67-0.9l3.98-6.08
						c0.11-0.17,0.19-0.34,0.25-0.53l2.83-9.64h7.54c0.79,0,1.51-0.47,1.83-1.19l2-4.53h2.31c1.1,0,2-0.9,2-2v-8.36h1.25
						c0.67,0,1.29-0.33,1.66-0.88l2.3-3.41h2.91c1.1,0,2-0.9,2-2v-0.86h2.34c0.78,0,1.49-0.46,1.82-1.16l1.27-2.77h0.89
						c0.75,0,1.44-0.42,1.79-1.1l2.06-4.07l1.41-1.62h8.49c0.92,0,1.71-0.62,1.94-1.51l1.06-4.21h10.27l5.37,2.65
						c0.26,0.13,0.55,0.2,0.84,0.21l14.05,0.32l3.15,11.53v7.59c0,0.39,0.11,0.77,0.33,1.1l3.65,5.58v5.48
						c0,0.45,0.15,0.88,0.43,1.24l2.02,2.56l-2.07,16.69c-0.01,0.04-0.01,0.09-0.01,0.13l-0.17,3.12l-5.47-3.29
						c-0.32-0.19-0.68-0.29-1.03-0.29c-0.65,0-1.29,0.32-1.67,0.9l-4.46,6.79l-4.7,2.99c-0.68,0.43-1.03,1.23-0.9,2.02l1.45,8.58
						c0.03,0.2,0.1,0.39,0.19,0.57l2.17,4.29c0.17,0.34,0.45,0.63,0.78,0.83l6.15,3.57c0.24,0.14,0.51,0.23,0.79,0.26l6.51,0.71
						c0.07,0.01,0.15,0.01,0.22,0.01c0.89,0,1.68-0.59,1.92-1.46l1.71-6.13l8,2.08l-3.04,3.66c-0.21,0.25-0.36,0.56-0.42,0.88
						l-3.19,15.75l-3.16,5.37l-11.43,6.1c-0.31,0.17-0.57,0.41-0.76,0.71l-6.83,11.01l-9.71,13.16l-7.06,9.77l-6.98,5.18
						c-0.14,0.11-0.27,0.23-0.38,0.37l-7.36,9.36l-6.91,4.1c-0.08,0.04-0.15,0.1-0.22,0.15l-3.62,2.86l-11.42,9.88l-5.89,2.74
						c-0.05,0.02-0.1,0.05-0.16,0.08l-3.66,2.11l-7.19-1.62c-0.14-0.03-0.29-0.05-0.44-0.05c-0.09,0-0.19,0.01-0.28,0.02l-2.53,0.36
						c-0.71,0.1-1.31,0.57-1.58,1.23l-1.66,4.11h-1.91l-1.62-1.33c-0.37-0.3-0.82-0.46-1.27-0.46c-0.4,0-0.81,0.12-1.15,0.37
						l-2.53,1.79c-0.09,0.06-0.17,0.14-0.25,0.21l-2.1,2.08l-12.21-2.86l-1.81-1.49c-0.36-0.3-0.81-0.46-1.27-0.46
						c-0.12,0-0.24,0.01-0.35,0.03l-3.98,0.71c-0.97,0.17-1.65,1.02-1.65,1.97c-0.28-0.14-0.58-0.21-0.89-0.21
						c-0.18,0-0.37,0.02-0.54,0.08l-1.83,0.52l-3.31-1.49c-0.17-0.08-0.35-0.13-0.54-0.16l-2.53-0.36
						c-0.09-0.01-0.19-0.02-0.28-0.02c-0.75,0-1.44,0.42-1.78,1.1l-0.24,0.48l-0.81-0.34c-0.25-0.11-0.52-0.16-0.78-0.16
						c-0.73,0-1.44,0.4-1.79,1.1l-0.89,1.76h-1.3c-0.7,0-1.35,0.37-1.71,0.96l-1.58,2.61H72.81c-0.28,0-0.55,0.06-0.81,0.17
						l-6.51,2.87c-0.42,0.19-0.77,0.51-0.98,0.93l-1.61,3.19H58.49z"/>
				</g>
				<g>
					<path class="st1" d="M206.35,42.32l4.95,2.44c0.52,0.26,1.1,0.4,1.68,0.41l12.56,0.29l2.69,9.83v7.33
						c0,0.78,0.23,1.54,0.65,2.19l3.32,5.08v4.88c0,0.9,0.3,1.77,0.86,2.47l1.5,1.91l-1.96,15.86c0,0.03-0.01,0.05-0.01,0.08
						l-2.64-1.59c-0.64-0.39-1.36-0.57-2.06-0.57c-1.3,0-2.58,0.64-3.35,1.8l-4.23,6.43l-4.34,2.76c-1.36,0.86-2.07,2.46-1.8,4.04
						l1.45,8.58c0.07,0.4,0.19,0.78,0.38,1.14l2.17,4.29c0.35,0.69,0.89,1.26,1.56,1.65l6.15,3.57c0.48,0.28,1.02,0.46,1.57,0.52
						l6.51,0.71c0.15,0.02,0.29,0.02,0.44,0.02c1.78,0,3.36-1.18,3.85-2.93l1.18-4.23l3.04,0.79l-1.03,1.24
						c-0.42,0.51-0.72,1.12-0.85,1.77l-3.12,15.42l-2.7,4.59l-10.94,5.84c-0.62,0.33-1.15,0.82-1.52,1.42l-6.78,10.94l-9.69,13.13
						l-6.87,9.51l-6.73,4.99c-0.29,0.21-0.54,0.46-0.76,0.74l-7.13,9.06l-6.59,3.91c-0.15,0.09-0.3,0.19-0.44,0.3l-3.61,2.86
						c-0.05,0.04-0.09,0.07-0.14,0.11l-11.15,9.64l-5.64,2.62c-0.11,0.05-0.21,0.1-0.31,0.16l-2.99,1.72l-6.43-1.44
						c-0.29-0.06-0.58-0.1-0.88-0.1c-0.19,0-0.37,0.01-0.56,0.04l-2.53,0.36c-1.41,0.2-2.61,1.14-3.15,2.46l-1.12,2.76l-0.94-0.78
						c-0.74-0.61-1.64-0.91-2.54-0.91c-0.81,0-1.61,0.24-2.31,0.73l-2.53,1.79c-0.18,0.13-0.35,0.27-0.51,0.43l-1.31,1.3l-10.68-2.5
						l-1.45-1.19c-0.72-0.59-1.62-0.91-2.54-0.91c-0.24,0-0.47,0.02-0.71,0.06l-3.98,0.71c-1.13,0.2-2.06,0.86-2.64,1.75
						c-0.21,0.02-0.42,0.07-0.63,0.12l-1.13,0.32l-2.65-1.19c-0.34-0.15-0.71-0.26-1.08-0.31l-2.53-0.36
						c-0.19-0.03-0.38-0.04-0.56-0.04c-1.06,0-2.07,0.42-2.81,1.15c-0.27-0.06-0.54-0.08-0.8-0.08c-1.47,0-2.87,0.81-3.57,2.2
						l-0.34,0.66h-0.07c-1.4,0-2.69,0.73-3.42,1.92l-1,1.65h-5.34h-7.95c-0.56,0-1.1,0.12-1.61,0.34l-6.51,2.87
						c-0.85,0.37-1.54,1.03-1.96,1.85l-1.06,2.09h-1.95l-1.06-2.09c-0.43-0.85-1.15-1.52-2.03-1.88l-5.43-2.27l-1.15-2.51
						c-0.66-1.44-2.09-2.33-3.63-2.33c-0.2,0-0.41,0.02-0.62,0.05l-0.68,0.11l0.84-2.95c0.35-1.22,0.1-2.54-0.68-3.55l-6.11-7.92
						l1.36-0.68c1.38-0.69,2.24-2.13,2.21-3.67l-0.27-11.08c-0.02-0.63-0.18-1.25-0.48-1.8l-5.78-10.72
						c-0.17-0.32-0.39-0.61-0.64-0.87l-6.47-6.74l-4.56-8.69l-2.05-8.8c-0.12-0.49-0.32-0.96-0.61-1.37l-3.91-5.62l-4.49-7.4
						l0.66-0.23c1.12-0.4,2.01-1.27,2.42-2.39l0.72-1.95l1.43,5.21c0.41,1.5,1.66,2.63,3.2,2.89l9.04,1.5
						c0.22,0.04,0.43,0.05,0.65,0.05h10.85h6.51c1.28,0,2.48-0.61,3.24-1.65l4.02-5.54l4.35-1.75c1.56-0.63,2.56-2.16,2.51-3.84
						l-1.5-47.77l3.06,2.93l2.53,7.51l-3.41,3.61c-0.94,0.99-1.3,2.4-0.97,3.73l1.08,4.29c0.4,1.57,1.7,2.75,3.3,2.98l16.27,2.36
						c0.19,0.03,0.38,0.04,0.57,0.04c1.09,0,2.15-0.45,2.91-1.26l12.65-13.44c0.38-0.4,0.67-0.87,0.85-1.39l3.24-9.03l4.02-0.94
						c0.08-0.02,0.15-0.04,0.23-0.06l1.07-0.32l3.02,3.67c0.76,0.92,1.89,1.46,3.09,1.46h4.06l3.82,2.03
						c0.58,0.31,1.23,0.47,1.88,0.47c0.23,0,0.45-0.02,0.68-0.06l7.85-1.35l5.32,0.33c0.08,0.01,0.17,0.01,0.25,0.01
						c1.34,0,2.6-0.68,3.35-1.81l3.98-6.08c0.22-0.33,0.38-0.69,0.49-1.06l2.41-8.21h6.04c1.58,0,3.02-0.93,3.66-2.38l1.48-3.34
						h1.01c2.21,0,4-1.79,4-4v-6.43c1.04-0.2,1.97-0.8,2.57-1.69l1.7-2.53h1.85c1.81,0,3.34-1.21,3.83-2.86h0.5
						c1.56,0,2.98-0.91,3.63-2.33l0.75-1.62c1.35-0.14,2.55-0.95,3.17-2.17l1.95-3.85l0.65-0.75h2.87h2.89h1.81
						c1.83,0,3.43-1.24,3.88-3.02l0.68-2.7h0.86H206.35 M207.29,38.32h-8.31h-3.98l-1.45,5.72h-1.81h-2.89h-4.7l-2.17,2.5
						l-2.17,4.29h-2.17l-1.81,3.93h-4.34v2.86h-3.98l-2.89,4.29h-3.25v10.36h-3.61l-2.53,5.72h-6.51h-2.53l-3.25,11.08l-3.98,6.08
						l-5.78-0.36l-8.31,1.43l-4.7-2.5h-5.06L110.4,88l-3.62,1.07l-6.15,1.43l-3.98,11.08l-12.65,13.44l-16.27-2.36l-1.08-4.29
						l5.06-5.36l-3.62-10.72L57.26,81.92l1.81,57.54l-5.42,2.18l-4.7,6.47h-6.51H31.6l-9.04-1.5l-1.81-6.57l-5.06-4.87l-2.89,7.86
						l-5.29,1.87l7.1,11.71l3.98,5.72l2.17,9.29l5.06,9.65l6.87,7.15l5.78,10.72l0.27,11.08l-5.7,2.86l9.08,11.76l-2.57,8.97
						l6.87-1.07l1.81,3.93l6.87,2.87l2.17,4.28h6.87l2.17-4.28l6.51-2.87h7.95h7.59l2.17-3.57h2.53l1.45-2.86l2.53,1.07l1.08-2.14
						l2.53,0.36l3.98,1.79l2.53-0.71l3.61,2.5l-0.72-4.29l3.98-0.71l2.17,1.79l13.74,3.22l2.88-2.86l2.53-1.79l2.17,1.79h3.98
						l2.17-5.36l2.53-0.36l7.95,1.79l4.34-2.5l6.15-2.86l11.57-10.01l3.61-2.86l7.23-4.29l7.59-9.65l7.23-5.36l7.23-10.01
						l9.76-13.22l6.87-11.08l11.93-6.37l3.61-6.14l3.25-16.08l5.06-6.08l-12.95-3.38l-2.24,8.02l-6.51-0.71l-6.15-3.57l-2.17-4.29
						l-1.45-8.58l5.06-3.22l4.7-7.15l8.31,5l0.36-6.43l2.17-17.51l-2.53-3.22V68.7l-3.98-6.08v-7.86l-3.61-13.22l-15.54-0.36
						L207.29,38.32L207.29,38.32z"/>
				</g>
			</g>
			<g>
				<g>
					<path class="st0" d="M169.14,169.99l-4.51-10.41l5.01-3.03c0.33-0.2,0.6-0.49,0.77-0.84l2.91-6.01l7.58-2.92
						c0.18-0.07,0.34-0.16,0.49-0.27l3.63-2.75l5.92,6.29l4.1,5.5L188,164.9l-8.77,2.67c-0.42,0.13-0.79,0.4-1.05,0.76l-3.88,5.48
						L169.14,169.99z"/>
				</g>
				<g>
					<path class="st1" d="M184.79,146.43l4.61,4.9l3.14,4.21l-5.73,7.64l-8.15,2.48c-0.85,0.26-1.59,0.79-2.1,1.52l-2.7,3.81
						l-3.08-2.29l-3.61-8.32l3.52-2.12c0.66-0.4,1.19-0.98,1.53-1.68l2.57-5.3l6.84-2.63c0.35-0.13,0.68-0.32,0.98-0.55
						L184.79,146.43 M185.23,141.07l-5.06,3.84l-8.31,3.2l-3.25,6.72l-6.51,3.93l5.42,12.51l7.23,5.36l5.06-7.15l9.4-2.86
						l8.31-11.08l-5.06-6.79L185.23,141.07L185.23,141.07z"/>
				</g>
			</g>
		</g>
		<g>
			<g>
				<path class="st3" d="M98.57,186.71h16V19.09c0-4.42-3.58-8-8-8h0c-4.42,0-8,3.58-8,8V186.71z"/>
				<path class="st1" d="M114.57,188.71h-16c-1.1,0-2-0.9-2-2V19.09c0-5.51,4.49-10,10-10s10,4.49,10,10v167.62
					C116.57,187.82,115.68,188.71,114.57,188.71z M100.57,184.71h12V19.09c0-3.31-2.69-6-6-6s-6,2.69-6,6V184.71z"/>
			</g>
			<g>
				<path class="st3" d="M82.57,202.71h48v-3.31c0-7.01-5.68-12.69-12.69-12.69H95.26c-7.01,0-12.69,5.68-12.69,12.69V202.71z"/>
				<path class="st1" d="M130.57,204.71h-48c-1.1,0-2-0.9-2-2v-3.31c0-8.1,6.59-14.69,14.69-14.69h22.63
					c8.1,0,14.68,6.59,14.68,14.69v3.31C132.57,203.82,131.68,204.71,130.57,204.71z M84.57,200.71h44v-1.31
					c0-5.89-4.79-10.69-10.68-10.69H95.26c-5.89,0-10.69,4.79-10.69,10.69V200.71z"/>
			</g>
			<g>
				<polygon class="st3" points="26.57,58.71 98.57,58.71 98.57,26.71 26.57,26.71 10.57,42.71 				"/>
				<path class="st1" d="M98.57,60.71h-72c-0.53,0-1.04-0.21-1.41-0.59l-16-16c-0.78-0.78-0.78-2.05,0-2.83l16-16
					c0.38-0.38,0.88-0.59,1.41-0.59h72c1.1,0,2,0.9,2,2v32C100.57,59.82,99.68,60.71,98.57,60.71z M27.4,56.71h69.17v-28H27.4
					l-14,14L27.4,56.71z"/>
			</g>
			<g>
				<polygon class="st3" points="115.51,90.71 187.51,90.71 203.51,74.71 187.51,58.71 115.51,58.71 				"/>
				<path class="st1" d="M187.51,92.71h-72c-1.1,0-2-0.9-2-2v-32c0-1.1,0.9-2,2-2h72c0.53,0,1.04,0.21,1.41,0.59l16,16
					c0.78,0.78,0.78,2.05,0,2.83l-16,16C188.55,92.5,188.04,92.71,187.51,92.71z M117.51,88.71h69.17l14-14l-14-14h-69.17V88.71z"/>
			</g>
			<g>
				<polygon class="st3" points="26.57,122.71 98.57,122.71 98.57,90.71 26.57,90.71 10.57,106.71 				"/>
				<path class="st1" d="M98.57,124.71h-72c-0.53,0-1.04-0.21-1.41-0.59l-16-16c-0.78-0.78-0.78-2.05,0-2.83l16-16
					c0.38-0.38,0.88-0.59,1.41-0.59h72c1.1,0,2,0.9,2,2v32C100.57,123.82,99.68,124.71,98.57,124.71z M27.4,120.71h69.17v-28H27.4
					l-14,14L27.4,120.71z"/>
			</g>
		</g>
	</g>
</g>
</svg>
