<?xml version="1.0" encoding="utf-8"?>
<!-- Generator: Adobe Illustrator 26.1.0, SVG Export Plug-In . SVG Version: 6.00 Build 0)  -->
<svg version="1.1" id="Layer_1" xmlns="http://www.w3.org/2000/svg" xmlns:xlink="http://www.w3.org/1999/xlink" x="0px" y="0px"
	 viewBox="0 0 256 256" style="enable-background:new 0 0 256 256;" xml:space="preserve">
<style type="text/css">
	.st0{fill:#FFFFFF;}
	.st1{clip-path:url(#SVGID_00000153682911508188340010000013785412293986129321_);}
	.st2{fill:#94C253;}
	.st3{fill:#9D9D9D;}
	.st4{fill:#2C5FA8;}
	.st5{fill-rule:evenodd;clip-rule:evenodd;fill:#2C5FA8;}
	.st6{fill-rule:evenodd;clip-rule:evenodd;fill:#94C253;}
</style>
<g>
	<path class="st0" d="M12,253.89c-5.51,0-10-4.49-10-10V12.11c0-5.51,4.48-9.99,10-10L244,2c5.52,0,10,4.48,10,10v232.01
		c0,5.51-4.49,9.99-10,9.99L12,253.89z"/>
	<g>
		<defs>
			<path id="SVGID_1_" d="M243.97,256l-232.01-0.77C5.34,255.21-0.01,249.85,0,243.26l0.12-130.58L0,11.98C0,5.36,5.37,0,12.01,0
				l232.01,0.17c6.62,0,11.99,5.36,11.99,11.96v231.9C256,250.66,250.61,256.02,243.97,256z"/>
		</defs>
		<clipPath id="SVGID_00000085245464641477841740000006956085828037044379_">
			<use xlink:href="#SVGID_1_"  style="overflow:visible;"/>
		</clipPath>
		<g style="clip-path:url(#SVGID_00000085245464641477841740000006956085828037044379_);">
			<path class="st2" d="M1.92,154.6l12.36-4.99c6.83-2.76,14.03-4.16,21.4-4.16c5.02,0,10.01,0.66,14.85,1.96l13.46,3.62
				c5.18,1.4,10.53,2.1,15.9,2.1c5.37,0,10.72-0.71,15.9-2.1l17.22-4.64c4.84-1.3,9.84-1.96,14.86-1.96
				c5.02,0,10.01,0.66,14.86,1.96l17.22,4.64c5.18,1.4,10.53,2.1,15.9,2.1c5.37,0,10.72-0.71,15.9-2.1l13.46-3.62
				c4.84-1.3,9.84-1.96,14.85-1.96c7.37,0,14.57,1.4,21.4,4.16l12.35,4.99v60.57l-9.15-4.09c-7.9-3.53-16.3-5.32-24.95-5.32
				c-5.92,0-11.79,0.86-17.47,2.55l-10.07,3c-5.3,1.58-10.79,2.38-16.32,2.38c-5.53,0-11.02-0.8-16.32-2.38l-14.19-4.23
				c-5.67-1.69-11.55-2.55-17.47-2.55c-5.92,0-11.8,0.86-17.47,2.55l-14.19,4.23c-5.3,1.58-10.79,2.38-16.32,2.38
				c-5.53,0-11.02-0.8-16.32-2.38l-10.07-3c-5.67-1.69-11.55-2.55-17.47-2.55c-8.66,0-17.05,1.79-24.95,5.32l-9.15,4.09V154.6z"/>
			<g>
				<g>
					<path class="st3" d="M2.06,94.69l12.36-4.99c6.83-2.76,14.03-4.16,21.4-4.16c5.02,0,10.01,0.66,14.85,1.96l13.46,3.62
						c5.18,1.4,10.53,2.1,15.9,2.1c5.37,0,10.72-0.71,15.9-2.1l17.22-4.64c4.84-1.3,9.84-1.96,14.86-1.96
						c5.02,0,10.01,0.66,14.86,1.96l17.22,4.64c5.18,1.4,10.53,2.1,15.9,2.1c5.37,0,10.72-0.71,15.9-2.1l13.46-3.62
						c4.84-1.3,9.84-1.96,14.85-1.96c7.37,0,14.57,1.4,21.4,4.16l12.35,4.99v60.57l-9.15-4.09c-7.9-3.53-16.3-5.32-24.95-5.32
						c-5.92,0-11.79,0.86-17.47,2.55l-10.07,3c-5.3,1.58-10.79,2.38-16.32,2.38c-5.53,0-11.02-0.8-16.32-2.38l-14.19-4.23
						c-5.67-1.69-11.55-2.55-17.47-2.55c-5.92,0-11.8,0.86-17.47,2.55l-14.19,4.23c-5.3,1.58-10.79,2.38-16.32,2.38
						c-5.53,0-11.02-0.8-16.32-2.38l-10.07-3c-5.67-1.69-11.55-2.55-17.47-2.55c-8.66,0-17.05,1.79-24.95,5.32l-9.15,4.09V94.69z"/>
				</g>
				<g>
					<path class="st4" d="M128,86.53c4.84,0,9.66,0.64,14.34,1.9l17.22,4.64c5.35,1.44,10.88,2.17,16.42,2.17s11.07-0.73,16.42-2.17
						l13.46-3.62c4.67-1.26,9.5-1.9,14.34-1.9c7.11,0,14.06,1.35,20.65,4.01l11.11,4.48v56.15l-6.34-2.83
						c-8.16-3.65-16.83-5.5-25.77-5.5c-6.11,0-12.18,0.88-18.04,2.63l-10.07,3c-5.11,1.52-10.41,2.3-15.75,2.3
						c-5.34,0-10.64-0.77-15.75-2.3l-14.19-4.23c-5.86-1.75-11.93-2.63-18.04-2.63c-6.11,0-12.18,0.88-18.04,2.63l-14.19,4.23
						c-5.11,1.52-10.41,2.3-15.75,2.3c-5.34,0-10.64-0.77-15.75-2.3l-10.07-3c-5.86-1.75-11.93-2.63-18.04-2.63
						c-8.94,0-17.61,1.85-25.77,5.5l-6.34,2.83V96.03l11.11-4.48c6.59-2.66,13.54-4.01,20.65-4.01c4.84,0,9.66,0.64,14.34,1.9
						l13.46,3.62c5.35,1.44,10.88,2.17,16.42,2.17c5.54,0,11.07-0.73,16.42-2.17l17.22-4.64C118.34,87.16,123.16,86.53,128,86.53
						 M128,82.54c-5.17,0-10.34,0.68-15.38,2.03L95.4,89.21c-5.04,1.36-10.21,2.03-15.38,2.03c-5.17,0-10.34-0.68-15.38-2.03
						l-13.46-3.62c-5.05-1.36-10.22-2.03-15.38-2.03c-7.54,0-15.07,1.44-22.15,4.3L0.06,93.35v64.99l11.97-5.35
						c7.65-3.42,15.88-5.15,24.14-5.15c5.68,0,11.37,0.82,16.89,2.46l10.07,3c5.51,1.64,11.2,2.46,16.89,2.46
						c5.69,0,11.38-0.82,16.89-2.46l14.19-4.23c5.51-1.64,11.2-2.46,16.89-2.46s11.38,0.82,16.89,2.46l14.19,4.23
						c5.51,1.64,11.2,2.46,16.89,2.46s11.38-0.82,16.89-2.46l10.07-3c5.52-1.65,11.22-2.46,16.89-2.46c8.26,0,16.49,1.73,24.14,5.15
						l11.97,5.35V93.35l-13.61-5.49c-7.08-2.86-14.6-4.3-22.15-4.3c-5.16,0-10.33,0.68-15.38,2.03l-13.46,3.62
						c-5.04,1.36-10.21,2.03-15.38,2.03s-10.34-0.68-15.38-2.03l-17.22-4.64C138.34,83.22,133.17,82.54,128,82.54L128,82.54z"/>
				</g>
			</g>
			<g>
				<g>
					<path class="st3" d="M2.06,207.81l12.36-4.99c6.83-2.76,14.03-4.16,21.4-4.16c5.02,0,10.01,0.66,14.85,1.96l13.46,3.62
						c5.18,1.4,10.53,2.1,15.9,2.1c5.37,0,10.72-0.71,15.9-2.1l17.22-4.64c4.84-1.3,9.84-1.96,14.86-1.96
						c5.02,0,10.01,0.66,14.86,1.96l17.22,4.64c5.18,1.4,10.53,2.1,15.9,2.1c5.37,0,10.72-0.71,15.9-2.1l13.46-3.62
						c4.84-1.3,9.84-1.96,14.85-1.96c7.37,0,14.57,1.4,21.4,4.16l12.35,4.99v60.57l-9.15-4.09c-7.9-3.53-16.3-5.32-24.95-5.32
						c-5.92,0-11.79,0.86-17.47,2.55l-10.07,3c-5.3,1.58-10.79,2.38-16.32,2.38c-5.53,0-11.02-0.8-16.32-2.38l-14.19-4.23
						c-5.67-1.69-11.55-2.55-17.47-2.55c-5.92,0-11.8,0.86-17.47,2.55l-14.19,4.23c-5.3,1.58-10.79,2.38-16.32,2.38
						c-5.53,0-11.02-0.8-16.32-2.38l-10.07-3c-5.67-1.69-11.55-2.55-17.47-2.55c-8.66,0-17.05,1.79-24.95,5.32l-9.15,4.09V207.81z"
						/>
				</g>
				<g>
					<path class="st4" d="M128,199.64c4.84,0,9.66,0.64,14.34,1.9l17.22,4.64c5.35,1.44,10.88,2.17,16.42,2.17
						s11.07-0.73,16.42-2.17l13.46-3.62c4.67-1.26,9.5-1.9,14.34-1.9c7.11,0,14.06,1.35,20.65,4.01l11.11,4.48v56.15l-6.34-2.83
						c-8.16-3.65-16.83-5.5-25.77-5.5c-6.11,0-12.18,0.88-18.04,2.63l-10.07,3c-5.11,1.52-10.41,2.3-15.75,2.3
						c-5.34,0-10.64-0.77-15.75-2.3l-14.19-4.23c-5.86-1.75-11.93-2.63-18.04-2.63c-6.11,0-12.18,0.88-18.04,2.63l-14.19,4.23
						c-5.11,1.52-10.41,2.3-15.75,2.3c-5.34,0-10.64-0.77-15.75-2.3l-10.07-3c-5.86-1.75-11.93-2.63-18.04-2.63
						c-8.94,0-17.61,1.85-25.77,5.5l-6.34,2.83v-56.15l11.11-4.48c6.59-2.66,13.54-4.01,20.65-4.01c4.84,0,9.66,0.64,14.34,1.9
						l13.46,3.62c5.35,1.44,10.88,2.17,16.42,2.17c5.54,0,11.07-0.73,16.42-2.17l17.22-4.64C118.34,200.28,123.16,199.64,128,199.64
						 M128,195.65c-5.17,0-10.34,0.68-15.38,2.03l-17.22,4.64c-5.04,1.36-10.21,2.03-15.38,2.03c-5.17,0-10.34-0.68-15.38-2.03
						l-13.46-3.62c-5.05-1.36-10.22-2.03-15.38-2.03c-7.54,0-15.07,1.44-22.15,4.3l-13.61,5.49v64.99l11.97-5.35
						c7.65-3.42,15.88-5.15,24.14-5.15c5.68,0,11.37,0.82,16.89,2.46l10.07,3c5.51,1.64,11.2,2.46,16.89,2.46
						c5.69,0,11.38-0.82,16.89-2.46l14.19-4.23c5.51-1.64,11.2-2.46,16.89-2.46s11.38,0.82,16.89,2.46l14.19,4.23
						c5.51,1.64,11.2,2.46,16.89,2.46s11.38-0.82,16.89-2.46l10.07-3c5.52-1.65,11.21-2.46,16.89-2.46c8.26,0,16.49,1.73,24.14,5.15
						l11.97,5.35v-64.99l-13.61-5.49c-7.08-2.86-14.6-4.3-22.15-4.3c-5.16,0-10.33,0.68-15.38,2.03l-13.46,3.62
						c-5.04,1.36-10.21,2.03-15.38,2.03s-10.34-0.68-15.38-2.03l-17.22-4.64C138.34,196.33,133.17,195.65,128,195.65L128,195.65z"/>
				</g>
			</g>
			<g>
				<ellipse class="st5" cx="20.05" cy="179.93" rx="4" ry="3.99"/>
			</g>
			<g>
				<ellipse class="st5" cx="68.03" cy="171.96" rx="4" ry="3.99"/>
			</g>
			<g>
				<ellipse class="st5" cx="60.03" cy="187.91" rx="4" ry="3.99"/>
			</g>
			<g>
				<ellipse class="st5" cx="100.01" cy="163.98" rx="4" ry="3.99"/>
			</g>
			<g>
				<ellipse class="st5" cx="155.99" cy="179.93" rx="4" ry="3.99"/>
			</g>
			<g>
				<ellipse class="st5" cx="235.95" cy="187.91" rx="4" ry="3.99"/>
			</g>
			<g>
				<ellipse class="st5" cx="139.99" cy="163.98" rx="4" ry="3.99"/>
			</g>
			<g>
				<ellipse class="st5" cx="179.98" cy="163.98" rx="4" ry="3.99"/>
			</g>
			<g>
				<ellipse class="st5" cx="171.98" cy="195.88" rx="4" ry="3.99"/>
			</g>
			<g>
				<ellipse class="st5" cx="195.97" cy="187.91" rx="4" ry="3.99"/>
			</g>
			<g>
				<ellipse class="st5" cx="187.97" cy="224.78" rx="4" ry="3.99"/>
			</g>
			<g>
				<ellipse class="st5" cx="219.96" cy="240.73" rx="4" ry="3.99"/>
			</g>
			<g>
				<ellipse class="st5" cx="227.95" cy="216.81" rx="4" ry="3.99"/>
			</g>
			<g>
				<ellipse class="st5" cx="163.98" cy="240.73" rx="4" ry="3.99"/>
			</g>
			<g>
				<ellipse class="st5" cx="92.02" cy="216.81" rx="4" ry="3.99"/>
			</g>
			<g>
				<ellipse class="st5" cx="139.99" cy="216.81" rx="4" ry="3.99"/>
			</g>
			<g>
				<ellipse class="st5" cx="116.01" cy="232.76" rx="4" ry="3.99"/>
			</g>
			<g>
				<ellipse class="st5" cx="76.02" cy="240.73" rx="4" ry="3.99"/>
			</g>
			<g>
				<ellipse class="st5" cx="20.05" cy="240.73" rx="4" ry="3.99"/>
			</g>
			<g>
				<ellipse class="st5" cx="52.03" cy="232.76" rx="4" ry="3.99"/>
			</g>
			<g>
				<ellipse class="st5" cx="28.05" cy="216.81" rx="4" ry="3.99"/>
			</g>
			<g>
				<ellipse class="st5" cx="92.02" cy="187.91" rx="4" ry="3.99"/>
			</g>
			<g>
				<path class="st4" d="M40.04,177.94c-5.51,0-10-4.47-10-9.97s4.48-9.97,10-9.97s10,4.47,10,9.97S45.55,177.94,40.04,177.94z
					 M40.04,161.99c-3.31,0-6,2.68-6,5.98s2.69,5.98,6,5.98s6-2.68,6-5.98S43.35,161.99,40.04,161.99z"/>
			</g>
			<g>
				<path class="st4" d="M120,185.91c-5.51,0-10-4.47-10-9.97c0-5.5,4.48-9.97,10-9.97c5.51,0,10,4.47,10,9.97
					C130,181.44,125.51,185.91,120,185.91z M120,169.96c-3.31,0-6,2.68-6,5.98c0,3.3,2.69,5.98,6,5.98c3.31,0,6-2.68,6-5.98
					C126,172.65,123.31,169.96,120,169.96z"/>
			</g>
			<g>
				<path class="st4" d="M223.96,177.94c-5.51,0-10-4.47-10-9.97s4.48-9.97,10-9.97s10,4.47,10,9.97S229.47,177.94,223.96,177.94z
					 M223.96,161.99c-3.31,0-6,2.68-6,5.98s2.69,5.98,6,5.98s6-2.68,6-5.98S227.26,161.99,223.96,161.99z"/>
			</g>
			<g>
				<path class="st4" d="M48.04,106.16H16.05c-1.1,0-2-0.89-2-1.99s0.9-1.99,2-1.99h31.99c1.1,0,2,0.89,2,1.99
					S49.14,106.16,48.04,106.16z"/>
			</g>
			<g>
				<path class="st4" d="M64.03,122.11H32.04c-1.1,0-2-0.89-2-1.99s0.9-1.99,2-1.99h31.99c1.1,0,2,0.89,2,1.99
					S65.13,122.11,64.03,122.11z"/>
			</g>
			<g>
				<path class="st4" d="M80.02,138.06H48.04c-1.1,0-2-0.89-2-1.99c0-1.1,0.9-1.99,2-1.99h31.99c1.1,0,2,0.89,2,1.99
					C82.02,137.17,81.13,138.06,80.02,138.06z"/>
			</g>
			<g>
				<path class="st4" d="M104.01,106.16H72.02c-1.1,0-2-0.89-2-1.99s0.9-1.99,2-1.99h31.99c1.1,0,2,0.89,2,1.99
					S105.11,106.16,104.01,106.16z"/>
			</g>
			<g>
				<path class="st4" d="M120,122.11H88.02c-1.1,0-2-0.89-2-1.99s0.9-1.99,2-1.99H120c1.1,0,2,0.89,2,1.99S121.11,122.11,120,122.11
					z"/>
			</g>
			<g>
				<path class="st4" d="M159.99,106.16H128c-1.1,0-2-0.89-2-1.99s0.9-1.99,2-1.99h31.99c1.1,0,2,0.89,2,1.99
					S161.09,106.16,159.99,106.16z"/>
			</g>
			<g>
				<path class="st4" d="M175.98,122.11h-31.99c-1.1,0-2-0.89-2-1.99s0.9-1.99,2-1.99h31.99c1.1,0,2,0.89,2,1.99
					S177.08,122.11,175.98,122.11z"/>
			</g>
			<g>
				<path class="st4" d="M191.97,138.06h-31.99c-1.1,0-2-0.89-2-1.99c0-1.1,0.9-1.99,2-1.99h31.99c1.1,0,2,0.89,2,1.99
					C193.97,137.17,193.07,138.06,191.97,138.06z"/>
			</g>
			<g>
				<path class="st4" d="M215.96,106.16h-31.99c-1.1,0-2-0.89-2-1.99s0.9-1.99,2-1.99h31.99c1.1,0,2,0.89,2,1.99
					S217.06,106.16,215.96,106.16z"/>
			</g>
			<g>
				<path class="st4" d="M231.95,122.11h-31.99c-1.1,0-2-0.89-2-1.99s0.9-1.99,2-1.99h31.99c1.1,0,2,0.89,2,1.99
					S233.06,122.11,231.95,122.11z"/>
			</g>
			<g>
				<g>
					<g>
						<path class="st6" d="M123.3,58.58c-5.31,0-15-0.87-20.31-6.69c-6.79-7.45-4.93-20.98-4.12-25.27c1.05-0.1,2.63-0.2,4.52-0.2
							c5.31,0,15,0.87,20.31,6.69c6.77,7.43,4.92,20.97,4.12,25.27C126.77,58.47,125.19,58.58,123.3,58.58z"/>
					</g>
					<g>
						<path class="st4" d="M103.39,28.41L103.39,28.41c4.98,0,14.04,0.79,18.83,6.04c5.54,6.08,4.67,16.98,3.89,22.05
							c-0.81,0.05-1.76,0.08-2.81,0.08c-4.98,0-14.04-0.78-18.83-6.04c-5.54-6.08-4.67-16.98-3.89-22.06
							C101.38,28.44,102.34,28.41,103.39,28.41 M103.39,24.42c-3.65,0-6.18,0.37-6.18,0.37s-4.61,18.65,4.3,28.43
							c5.66,6.21,15.43,7.35,21.79,7.35c3.65,0,6.18-0.37,6.18-0.37s4.61-18.66-4.3-28.43C119.51,25.55,109.75,24.42,103.39,24.42
							L103.39,24.42z"/>
					</g>
				</g>
				<g>
					<g>
						<path class="st6" d="M132.7,58.58c-1.89,0-3.47-0.1-4.52-0.2c-0.8-4.3-2.65-17.84,4.12-25.27c5.31-5.82,15-6.69,20.31-6.69
							c1.89,0,3.47,0.1,4.52,0.2c0.8,4.3,2.65,17.84-4.12,25.27C147.7,57.71,138.01,58.58,132.7,58.58
							C132.7,58.58,132.7,58.58,132.7,58.58z"/>
					</g>
					<g>
						<path class="st4" d="M152.61,28.41c1.06,0,2.02,0.03,2.83,0.08c0.92,5.9,1.26,16.37-3.92,22.05
							c-4.79,5.26-13.86,6.04-18.83,6.04c-1.05,0-2-0.03-2.81-0.08c-0.78-5.08-1.65-15.98,3.89-22.05
							C138.57,29.19,147.64,28.41,152.61,28.41 M152.61,24.42c-6.36,0-16.13,1.13-21.79,7.35c-8.91,9.78-4.3,28.43-4.3,28.43
							s2.53,0.37,6.18,0.37c6.36,0,16.13-1.13,21.79-7.35c8.91-9.78,4.3-28.43,4.3-28.43S156.26,24.42,152.61,24.42L152.61,24.42z"
							/>
					</g>
				</g>
				<g>
					<path class="st4" d="M128,86.02c-1.1,0-2-0.89-2-1.99v-27.7c0-1.1,0.9-1.99,2-1.99c1.1,0,2,0.89,2,1.99v27.7
						C130,85.12,129.1,86.02,128,86.02z"/>
				</g>
			</g>
		</g>
	</g>
	<path class="st4" d="M12,4l232.01,0.17c4.4,0,7.99,3.58,7.99,7.96v231.9c0,4.39-3.59,7.96-8.02,7.96l-230.97,0.27
		c-4.4-0.01-9.01-4.63-9.01-9.01l0.12-130.59L4,11.97c0-2.12,0.82-4.12,2.33-5.62C7.84,4.83,9.85,4,12,4L12,4 M12,0
		C5.37,0,0,5.36,0,11.98l0.11,100.7L0,243.26c-0.01,6.6,6.38,12.99,12.99,13.01L243.97,256c0.01,0,0.03,0,0.04,0
		c6.62,0,11.99-5.35,11.99-11.96V12.13c0-6.6-5.36-11.96-11.99-11.96L12,0C12,0,12,0,12,0L12,0z"/>
</g>
</svg>
