<?xml version="1.0" encoding="utf-8"?>
<!-- Generator: Adobe Illustrator 26.1.0, SVG Export Plug-In . SVG Version: 6.00 Build 0)  -->
<svg version="1.1" id="Layer_1" xmlns="http://www.w3.org/2000/svg" xmlns:xlink="http://www.w3.org/1999/xlink" x="0px" y="0px"
	 viewBox="0 0 256 256" style="enable-background:new 0 0 256 256;" xml:space="preserve">
<style type="text/css">
	.st0{fill:#97CC9A;}
	.st1{fill:#1B401D;}
	.st2{fill:#FFFFFF;}
</style>
<g>
	<g>
		<g>
			<path class="st0" d="M12.26,254.03c-5.51,0-10-4.49-10-10v-232c0-5.51,4.49-10,10-10h232c5.51,0,10,4.49,10,10v232
				c0,5.51-4.49,10-10,10H12.26z"/>
		</g>
		<g>
			<path class="st1" d="M244.26,4.03c4.41,0,8,3.59,8,8v232c0,4.41-3.59,8-8,8h-232c-4.41,0-8-3.59-8-8v-232c0-4.41,3.59-8,8-8
				H244.26 M244.26,0.03h-232c-6.6,0-12,5.4-12,12v232c0,6.6,5.4,12,12,12h232c6.6,0,12-5.4,12-12v-232
				C256.26,5.43,250.86,0.03,244.26,0.03L244.26,0.03z"/>
		</g>
	</g>
	<g>
		<g>
			<path class="st2" d="M128.44,174.6c-30.23,0-54.83-23.72-54.83-52.87c0-26.48,45.66-88.71,54.83-100.93
				c9.16,12.22,54.83,74.46,54.83,100.93C183.26,150.88,158.67,174.6,128.44,174.6z"/>
		</g>
		<g>
			<g>
				<path class="st1" d="M128.44,24.14c4.97,6.69,15.05,20.59,25.04,36.25c18.18,28.5,27.79,49.71,27.79,61.34
					c0,28.05-23.7,50.87-52.83,50.87s-52.83-22.82-52.83-50.87c0-11.62,9.6-32.81,27.76-61.29
					C113.36,44.76,123.46,30.84,128.44,24.14 M128.44,17.48c0,0-56.83,73.95-56.83,104.25c0,30.3,25.44,54.87,56.83,54.87
					c31.38,0,56.83-24.56,56.83-54.87C185.26,91.43,128.44,17.48,128.44,17.48L128.44,17.48z"/>
			</g>
		</g>
	</g>
	<g>
		<path class="st1" d="M128.44,164.39c-24.6,0-44.62-19.14-44.62-42.66c0-7.58,5.26-20.67,15.62-38.94
			c0.55-0.96,1.77-1.29,2.73-0.75c0.96,0.54,1.3,1.77,0.75,2.73c-9.88,17.4-15.1,30.18-15.1,36.96c0,21.32,18.22,38.66,40.62,38.66
			c1.1,0,2,0.9,2,2S129.54,164.39,128.44,164.39z"/>
	</g>
	<g>
		<path class="st1" d="M252.82,212.29c-0.33,0-0.67-0.08-0.98-0.26l-22.44-12.61c-5.57-3.13-12.29-3.26-17.97-0.34l-11.5,5.91
			c-6.58,3.38-14.43,3.38-21,0L167,198.86c-5.43-2.79-11.91-2.79-17.34,0L137.72,205c-6.57,3.38-14.42,3.38-21,0l-11.94-6.14
			c-5.43-2.79-11.91-2.79-17.34,0L75.5,205c-6.58,3.38-14.43,3.38-21,0L42.82,199c-5.58-2.87-12.2-2.79-17.72,0.2L4.89,210.16
			c-0.97,0.53-2.18,0.17-2.71-0.8c-0.53-0.97-0.17-2.18,0.8-2.71l20.21-10.96c6.68-3.62,14.7-3.71,21.45-0.24l11.68,6.01
			c5.43,2.79,11.91,2.79,17.34,0l11.94-6.14c6.57-3.38,14.43-3.38,21,0l11.94,6.14c5.43,2.79,11.92,2.79,17.34,0l11.94-6.14
			c6.58-3.38,14.43-3.38,21,0l11.94,6.14c5.43,2.79,11.91,2.79,17.34,0l11.5-5.91c6.88-3.54,15.01-3.39,21.76,0.41l22.44,12.61
			c0.96,0.54,1.31,1.76,0.76,2.72C254.2,211.92,253.52,212.29,252.82,212.29z"/>
	</g>
	<g>
		<path class="st1" d="M252.82,235.1c-0.33,0-0.67-0.08-0.98-0.26l-22.44-12.61c-5.57-3.13-12.29-3.25-17.97-0.34l-11.5,5.91
			c-6.58,3.38-14.43,3.38-21,0L167,221.67c-5.43-2.79-11.91-2.79-17.34,0l-11.94,6.14c-6.57,3.38-14.42,3.38-21,0l-11.94-6.14
			c-5.43-2.79-11.91-2.79-17.34,0l-11.94,6.14c-6.58,3.38-14.43,3.38-21,0l-11.68-6.01c-5.58-2.87-12.2-2.79-17.72,0.2L4.89,232.96
			c-0.97,0.53-2.18,0.17-2.71-0.8c-0.53-0.97-0.17-2.18,0.8-2.71l20.21-10.96c6.68-3.62,14.7-3.71,21.45-0.24l11.68,6.01
			c5.43,2.79,11.91,2.79,17.34,0l11.94-6.14c6.58-3.38,14.43-3.38,21,0l11.94,6.14c5.43,2.79,11.92,2.79,17.34,0l11.94-6.14
			c6.58-3.38,14.43-3.38,21,0l11.94,6.14c5.43,2.79,11.92,2.79,17.34,0l11.5-5.91c6.88-3.54,15.01-3.38,21.76,0.41l22.44,12.61
			c0.96,0.54,1.31,1.76,0.76,2.72C254.2,234.73,253.52,235.1,252.82,235.1z"/>
	</g>
</g>
</svg>
