<?xml version="1.0" encoding="utf-8"?>
<!-- Generator: Adobe Illustrator 26.1.0, SVG Export Plug-In . SVG Version: 6.00 Build 0)  -->
<svg version="1.1" id="Layer_1" xmlns="http://www.w3.org/2000/svg" xmlns:xlink="http://www.w3.org/1999/xlink" x="0px" y="0px"
	 viewBox="0 0 256 256" style="enable-background:new 0 0 256 256;" xml:space="preserve">
<style type="text/css">
	.st0{fill:#FFFFFF;}
	.st1{fill:#2C5FA8;}
	.st2{fill:#9D9D9D;}
	.st3{fill:#94C253;}
</style>
<g>
	<g>
		<g>
			<g>
				<path class="st0" d="M12.22,253.26c-5.5-0.02-9.97-4.49-9.96-9.97l0.12-130.58L2.26,12c0-2.66,1.03-5.16,2.91-7.04
					c1.89-1.89,4.41-2.93,7.08-2.93L244.27,2.2c5.51,0,9.99,4.47,9.99,9.96v231.9c0,5.49-4.48,9.96-9.99,9.96L12.22,253.26z"/>
			</g>
		</g>
		<g>
			<g>
				<g>
					<path class="st1" d="M12.26,4.03L244.27,4.2c4.4,0,7.99,3.58,7.99,7.96v231.9c0,4.39-3.59,7.96-8.02,7.96l-231.89,0
						c-4.4-0.01-8.1-4.36-8.09-8.74L4.37,112.7L4.26,12c0-2.12,0.82-4.12,2.33-5.62C8.1,4.86,10.11,4.03,12.26,4.03L12.26,4.03
						 M12.26,0.03c-6.63,0-12,5.36-11.99,11.98l0.11,100.7L0.26,243.29c-0.01,6.6,5.47,12.72,12.08,12.74l231.89,0
						c0.01,0,0.03,0,0.04,0c6.62,0,11.99-5.35,11.99-11.96V12.16c0-6.6-5.36-11.96-11.99-11.96L12.26,0.03
						C12.26,0.03,12.26,0.03,12.26,0.03L12.26,0.03z"/>
				</g>
			</g>
		</g>
	</g>
	<g>
		<g>
			<g>
				<g>
					<rect x="16.45" y="167.07" class="st2" width="121.82" height="30.45"/>
					<path class="st1" d="M138.26,199.52H16.45c-1.1,0-2-0.9-2-2v-30.45c0-1.1,0.9-2,2-2h121.82c1.1,0,2,0.9,2,2v30.45
						C140.26,198.62,139.37,199.52,138.26,199.52z M18.45,195.52h117.82v-26.45H18.45V195.52z"/>
				</g>
				<g>
					<path class="st1" d="M128.27,184.35h-16c-1.1,0-2-0.9-2-2s0.9-2,2-2h16c1.1,0,2,0.9,2,2S129.37,184.35,128.27,184.35z
						 M96.27,184.35L96.27,184.35l-16,0c-1.1,0-2-0.9-2-2s0.9-2,2-2l0,0l16,0c1.1,0,2,0.9,2,2S97.37,184.35,96.27,184.35z
						 M64.27,184.35L64.27,184.35l-16,0c-1.1,0-2-0.9-2-2s0.9-2,2-2l0,0l16,0c1.1,0,2,0.9,2,2S65.37,184.35,64.27,184.35z
						 M32.27,184.34L32.27,184.34l-16,0c-1.1,0-2-0.9-2-2s0.9-2,2-2l0,0l16,0c1.1,0,2,0.9,2,2S33.37,184.34,32.27,184.34z"/>
				</g>
			</g>
			<g>
				<g>
					<path class="st2" d="M109.36,129.11c-9.48,0-18.29,4.71-23.56,12.59l-40.4,60.47c-1.41,2.11-3.79,3.38-6.33,3.38l-22.8,0.04
						v30.36L41.42,236c11.27,0,21.73-5.59,27.99-14.96l38.82-58.1c1.41-2.11,3.79-3.38,6.33-3.38l23.7,0v-30.44L109.36,129.11z"/>
					<path class="st1" d="M41.42,238l-25.16-0.06c-1.1,0-2-0.9-2-2v-30.36c0-1.1,0.89-2,2-2l22.8-0.04c1.88,0,3.63-0.93,4.67-2.5
						l40.4-60.47c5.64-8.44,15.07-13.48,25.22-13.48h0l28.91,0.01c1.1,0,2,0.9,2,2v30.44c0,1.1-0.9,2-2,2l-23.71,0
						c-1.88,0-3.62,0.93-4.67,2.5l-38.82,58.1C64.44,232.08,53.36,238,41.42,238z M18.27,233.95L41.43,234
						c10.59,0,20.43-5.26,26.32-14.07l38.82-58.1c1.79-2.67,4.78-4.27,7.99-4.27l21.71,0v-26.44l-26.91-0.01
						c-8.81,0-17,4.38-21.89,11.7l-40.4,60.47c-1.79,2.67-4.78,4.27-7.99,4.27l-20.8,0.03V233.95z"/>
				</g>
				<g>
					<path class="st1" d="M33.28,222.78h-16c-1.1,0-2-0.9-2-2s0.9-2,2-2h16c1.1,0,2,0.9,2,2S34.39,222.78,33.28,222.78z
						 M49.05,221.12c-0.76,0-1.49-0.44-1.82-1.17c-0.46-1.01-0.01-2.19,0.99-2.65c2.79-1.27,5.16-3.28,6.87-5.83l3.2-4.79
						c0.61-0.92,1.85-1.16,2.77-0.55c0.92,0.61,1.17,1.86,0.55,2.77l-3.2,4.79c-2.12,3.17-5.07,5.68-8.54,7.25
						C49.6,221.07,49.32,221.12,49.05,221.12z M68.84,196.49c-0.38,0-0.77-0.11-1.11-0.34c-0.92-0.61-1.17-1.86-0.55-2.77l8.89-13.3
						c0.61-0.92,1.86-1.16,2.77-0.55c0.92,0.61,1.17,1.86,0.55,2.77l-8.89,13.3C70.12,196.18,69.48,196.49,68.84,196.49z
						 M86.62,169.88c-0.38,0-0.77-0.11-1.11-0.34c-0.92-0.61-1.17-1.86-0.55-2.77l8.89-13.3c0.61-0.92,1.85-1.16,2.77-0.55
						c0.92,0.61,1.17,1.86,0.55,2.77l-8.89,13.3C87.89,169.57,87.26,169.88,86.62,169.88z M107.18,146.51
						c-0.96,0-1.81-0.69-1.97-1.67c-0.18-1.09,0.55-2.12,1.64-2.3c0.82-0.14,1.67-0.21,2.51-0.21h13.82c1.1,0,2,0.9,2,2s-0.9,2-2,2
						h-13.82c-0.62,0-1.24,0.05-1.84,0.15C107.4,146.5,107.29,146.51,107.18,146.51z"/>
				</g>
			</g>
		</g>
		<g>
			<g>
				<g>
					<path class="st3" d="M130.4,54.89c4.4,0,7.97,3.57,7.97,7.97v24.03h16V62.86c0-4.4,3.57-7.97,7.97-7.97h40.06
						c4.4,0,7.97,3.57,7.97,7.97v24.03h16V62.86c0-4.4,3.57-7.97,7.97-7.97h5.03V39.65h-114v15.24H130.4z"/>
				</g>
				<g>
					<path class="st1" d="M226.37,88.89h-16c-1.1,0-2-0.9-2-2V62.86c0-3.29-2.68-5.97-5.97-5.97h-40.06c-3.29,0-5.97,2.68-5.97,5.97
						v24.03c0,1.1-0.9,2-2,2h-16c-1.1,0-2-0.9-2-2V62.86c0-3.29-2.68-5.97-5.97-5.97h-5.03c-1.1,0-2-0.9-2-2V39.65c0-1.1,0.9-2,2-2
						h114c1.1,0,2,0.9,2,2v15.24c0,1.1-0.9,2-2,2h-5.03c-3.29,0-5.97,2.68-5.97,5.97v24.03C228.37,87.99,227.47,88.89,226.37,88.89z
						 M212.37,84.89h12V62.86c0-5.5,4.47-9.97,9.97-9.97h3.03V41.65h-110v11.24h3.03c5.5,0,9.97,4.47,9.97,9.97v22.03h12V62.86
						c0-5.5,4.47-9.97,9.97-9.97h40.06c5.5,0,9.97,4.47,9.97,9.97V84.89z"/>
				</g>
			</g>
			<g>
				<g>
					<path class="st1" d="M239.37,24.89h-114c-1.1,0-2-0.9-2-2s0.9-2,2-2h114c1.1,0,2,0.9,2,2S240.47,24.89,239.37,24.89z"/>
				</g>
			</g>
			<g>
				<g>
					<g>
						<path class="st1" d="M135.67,40.89c-1.1,0-2-0.9-2-2v-16c0-1.1,0.9-2,2-2s2,0.9,2,2v16
							C137.67,39.99,136.78,40.89,135.67,40.89z"/>
					</g>
				</g>
				<g>
					<g>
						<path class="st1" d="M159.67,40.89c-1.1,0-2-0.9-2-2v-16c0-1.1,0.9-2,2-2s2,0.9,2,2v16
							C161.67,39.99,160.78,40.89,159.67,40.89z"/>
					</g>
				</g>
				<g>
					<g>
						<path class="st1" d="M183.67,40.89c-1.1,0-2-0.9-2-2v-16c0-1.1,0.9-2,2-2s2,0.9,2,2v16
							C185.67,39.99,184.78,40.89,183.67,40.89z"/>
					</g>
				</g>
				<g>
					<g>
						<path class="st1" d="M207.67,40.89c-1.1,0-2-0.9-2-2v-16c0-1.1,0.9-2,2-2s2,0.9,2,2v16
							C209.67,39.99,208.78,40.89,207.67,40.89z"/>
					</g>
				</g>
				<g>
					<g>
						<path class="st1" d="M231.67,40.89c-1.1,0-2-0.9-2-2v-16c0-1.1,0.9-2,2-2s2,0.9,2,2v16
							C233.67,39.99,232.78,40.89,231.67,40.89z"/>
					</g>
				</g>
			</g>
			<g>
				<g>
					<path class="st1" d="M125.8,105.17c-0.68,0-1.34-0.35-1.72-0.97c-0.57-0.95-0.26-2.18,0.68-2.75l11.08-6.65
						c3.97-2.38,8.74-2.44,12.75-0.16l6.4,3.65c2.71,1.54,5.82,1.54,8.53,0l6.54-3.73c3.91-2.23,8.58-2.23,12.49,0l6.54,3.73
						c2.71,1.55,5.82,1.54,8.53,0l6.54-3.73c3.91-2.23,8.58-2.23,12.49,0l6.54,3.73c2.71,1.55,5.82,1.54,8.53,0l6.3-3.59
						c0.96-0.55,2.18-0.21,2.73,0.75c0.55,0.96,0.21,2.18-0.75,2.73l-6.3,3.59c-3.91,2.23-8.58,2.23-12.49,0l-6.54-3.73
						c-2.71-1.54-5.82-1.54-8.53,0l-6.54,3.73c-3.91,2.23-8.58,2.23-12.49,0l-6.54-3.73c-2.71-1.55-5.82-1.54-8.53,0l-6.54,3.73
						c-3.91,2.23-8.58,2.23-12.49,0l-6.4-3.64c-2.74-1.56-6-1.52-8.71,0.11l-11.08,6.66C126.5,105.08,126.15,105.17,125.8,105.17z"
						/>
				</g>
			</g>
			<g>
				<g>
					<path class="st1" d="M127.04,113.45c-0.68,0-1.34-0.35-1.72-0.97c-0.57-0.95-0.26-2.18,0.68-2.74l11.08-6.66
						c3.97-2.39,8.74-2.44,12.75-0.16l6.4,3.65c2.71,1.54,5.82,1.54,8.53,0l6.54-3.73c3.91-2.23,8.58-2.23,12.49,0l6.54,3.73
						c2.71,1.54,5.82,1.54,8.53,0l6.54-3.73c3.91-2.23,8.58-2.23,12.49,0l6.54,3.73c2.71,1.54,5.82,1.54,8.53,0l6.3-3.59
						c0.96-0.55,2.18-0.21,2.73,0.75c0.55,0.96,0.21,2.18-0.75,2.73l-6.3,3.59c-3.91,2.23-8.58,2.23-12.49,0l-6.54-3.73
						c-2.71-1.54-5.82-1.54-8.53,0l-6.54,3.73c-3.91,2.23-8.58,2.23-12.49,0l-6.54-3.73c-2.71-1.55-5.82-1.54-8.53,0l-6.54,3.73
						c-3.91,2.23-8.58,2.23-12.49,0l-6.4-3.65c-2.74-1.56-6-1.52-8.71,0.11l-11.08,6.65C127.74,113.36,127.39,113.45,127.04,113.45z
						"/>
				</g>
			</g>
		</g>
		<g>
			<g>
				<g>
					<path class="st3" d="M113.27,113.5h-96V47.21c0-3.15,2.56-5.71,5.71-5.71h84.58c3.15,0,5.71,2.56,5.71,5.71V113.5z"/>
				</g>
				<g>
					<path class="st1" d="M113.27,115.5h-96c-1.1,0-2-0.9-2-2V47.21c0-4.25,3.46-7.71,7.71-7.71h84.58c4.25,0,7.71,3.46,7.71,7.71
						v66.29C115.27,114.61,114.37,115.5,113.27,115.5z M19.27,111.5h92V47.21c0-2.04-1.66-3.71-3.71-3.71H22.97
						c-2.04,0-3.71,1.66-3.71,3.71V111.5z"/>
				</g>
			</g>
			<g>
				<g>
					<path class="st3" d="M101.27,113.5h-72v-88.9c0-3.92,3.18-7.1,7.1-7.1h57.8c3.92,0,7.1,3.18,7.1,7.1V113.5z"/>
				</g>
				<g>
					<path class="st1" d="M101.27,115.5h-72c-1.1,0-2-0.9-2-2v-88.9c0-5.02,4.08-9.1,9.1-9.1h57.79c5.02,0,9.1,4.08,9.1,9.1v88.9
						C103.27,114.61,102.37,115.5,101.27,115.5z M31.27,111.5h68v-86.9c0-2.81-2.29-5.1-5.1-5.1H36.37c-2.81,0-5.1,2.29-5.1,5.1
						V111.5z"/>
				</g>
			</g>
			<g>
				<g>
					<rect x="45.27" y="89.5" class="st2" width="40" height="24"/>
				</g>
				<g>
					<path class="st1" d="M85.27,115.5h-40c-1.1,0-2-0.9-2-2v-24c0-1.1,0.9-2,2-2h40c1.1,0,2,0.9,2,2v24
						C87.27,114.61,86.37,115.5,85.27,115.5z M47.27,111.5h36v-20h-36V111.5z"/>
				</g>
			</g>
			<g>
				<g>
					<rect x="45.27" y="73.5" class="st1" width="8" height="8"/>
				</g>
				<g>
					<rect x="61.27" y="73.5" class="st1" width="8" height="8"/>
				</g>
				<g>
					<rect x="77.27" y="73.5" class="st1" width="8" height="8"/>
				</g>
			</g>
			<g>
				<g>
					<rect x="45.27" y="57.5" class="st1" width="8" height="8"/>
				</g>
				<g>
					<rect x="61.27" y="57.5" class="st1" width="8" height="8"/>
				</g>
				<g>
					<rect x="77.27" y="57.5" class="st1" width="8" height="8"/>
				</g>
			</g>
			<g>
				<polygon class="st1" points="77.27,33.5 69.27,33.5 69.27,25.5 61.27,25.5 61.27,33.5 53.27,33.5 53.27,41.5 61.27,41.5
					61.27,49.5 69.27,49.5 69.27,41.5 77.27,41.5 				"/>
			</g>
		</g>
		<g>
			<g>
				<path class="st3" d="M224.25,174.55h-15.72c-2.76-5.66-8.55-9.56-15.27-9.56s-12.51,3.91-15.27,9.56h-12.51
					c-7.3,0-13.22,5.92-13.22,13.22v18.78h16v-16h10.32c2.95,5.05,8.41,8.46,14.68,8.46s11.74-3.4,14.68-8.46h16.31V174.55z"/>
				<path class="st1" d="M168.25,208.55h-16c-1.1,0-2-0.9-2-2v-18.78c0-8.39,6.83-15.22,15.22-15.22h11.31
					c3.39-5.93,9.59-9.56,16.48-9.56s13.09,3.63,16.48,9.56h14.52c1.1,0,2,0.9,2,2v16c0,1.1-0.9,2-2,2h-15.2
					c-3.51,5.24-9.46,8.46-15.79,8.46c-6.33,0-12.28-3.21-15.79-8.46h-7.22v14C170.25,207.66,169.35,208.55,168.25,208.55z
					 M154.25,204.55h12v-14c0-1.1,0.9-2,2-2h10.32c0.71,0,1.37,0.38,1.73,0.99c2.69,4.6,7.65,7.46,12.96,7.46
					c5.31,0,10.27-2.86,12.96-7.46c0.36-0.61,1.02-0.99,1.73-0.99h14.31v-12h-13.72c-0.76,0-1.46-0.44-1.8-1.12
					c-2.54-5.21-7.71-8.44-13.48-8.44s-10.93,3.23-13.48,8.44c-0.33,0.69-1.03,1.12-1.8,1.12h-12.51c-6.19,0-11.22,5.03-11.22,11.22
					V204.55z"/>
			</g>
			<g>
				<path class="st3" d="M240.25,198.55h-8.54c-4.12,0-7.46-3.34-7.46-7.46v-17.07c0-4.12,3.34-7.46,7.46-7.46h8.54V198.55z"/>
				<path class="st1" d="M240.25,200.55h-8.54c-5.22,0-9.46-4.25-9.46-9.46v-17.07c0-5.22,4.25-9.46,9.46-9.46h8.54c1.1,0,2,0.9,2,2
					v32C242.25,199.66,241.35,200.55,240.25,200.55z M231.72,168.55c-3.01,0-5.46,2.45-5.46,5.46v17.07c0,3.01,2.45,5.46,5.46,5.46
					h6.54v-28H231.72z"/>
			</g>
			<g>
				<path class="st3" d="M216.25,142.55c-2.74,0-11.29,1.38-17.41,3.47c-1.44-2.1-3.86-3.47-6.59-3.47s-5.15,1.38-6.59,3.47
					c-6.12-2.1-14.67-3.47-17.41-3.47c-4.42,0-8,3.58-8,8s3.58,8,8,8c2.74,0,11.29-1.38,17.41-3.47c1.44,2.1,3.86,3.47,6.59,3.47
					s5.15-1.38,6.59-3.47c6.12,2.1,14.67,3.47,17.41,3.47c4.42,0,8-3.58,8-8S220.67,142.55,216.25,142.55z"/>
				<path class="st1" d="M216.25,160.55c-2.82,0-10.6-1.24-16.72-3.14c-1.88,1.99-4.5,3.14-7.28,3.14s-5.4-1.15-7.28-3.14
					c-6.12,1.91-13.9,3.14-16.72,3.14c-5.51,0-10-4.49-10-10s4.49-10,10-10c2.82,0,10.6,1.24,16.72,3.15
					c1.88-1.99,4.5-3.15,7.28-3.15s5.4,1.15,7.28,3.15c6.13-1.91,13.9-3.15,16.72-3.15c5.51,0,10,4.49,10,10
					S221.76,160.55,216.25,160.55z M198.84,153.08c0.22,0,0.44,0.04,0.65,0.11c5.99,2.05,14.37,3.36,16.76,3.36c3.31,0,6-2.69,6-6
					s-2.69-6-6-6c-2.38,0-10.77,1.31-16.76,3.36c-0.84,0.29-1.79-0.02-2.3-0.76c-1.12-1.63-2.97-2.61-4.95-2.61
					s-3.82,0.97-4.95,2.61c-0.51,0.74-1.45,1.05-2.3,0.76c-5.99-2.05-14.37-3.36-16.76-3.36c-3.31,0-6,2.69-6,6s2.69,6,6,6
					c2.39,0,10.77-1.31,16.76-3.36c0.85-0.29,1.79,0.02,2.3,0.76c1.12,1.63,2.97,2.61,4.95,2.61s3.82-0.97,4.95-2.61
					C197.58,153.39,198.2,153.08,198.84,153.08z"/>
			</g>
			<g>
				<rect x="190.25" y="158.55" class="st1" width="4" height="8"/>
			</g>
			<g>
				<path class="st1" d="M240.25,208.55c-1.1,0-2-0.9-2-2v-48c0-1.1,0.9-2,2-2s2,0.9,2,2v48
					C242.25,207.66,241.35,208.55,240.25,208.55z"/>
			</g>
			<g>
				<path class="st2" d="M168.25,230.55c0,4.42-3.58,8-8,8s-8-3.58-8-8c0-4.42,8-16,8-16S168.25,226.14,168.25,230.55z"/>
				<path class="st1" d="M160.25,240.55c-5.51,0-10-4.49-10-10c0-4.8,6.96-15.12,8.35-17.14c0.37-0.54,0.99-0.86,1.65-0.86
					s1.27,0.32,1.65,0.86c1.4,2.02,8.35,12.34,8.35,17.14C170.25,236.07,165.76,240.55,160.25,240.55z M160.25,218.17
					c-2.88,4.5-6,10.2-6,12.38c0,3.31,2.69,6,6,6s6-2.69,6-6C166.25,228.37,163.13,222.67,160.25,218.17z"/>
			</g>
		</g>
	</g>
</g>
</svg>
