<?xml version="1.0" encoding="utf-8"?>
<!-- Generator: Adobe Illustrator 26.1.0, SVG Export Plug-In . SVG Version: 6.00 Build 0)  -->
<svg version="1.1" id="Layer_1" xmlns="http://www.w3.org/2000/svg" xmlns:xlink="http://www.w3.org/1999/xlink" x="0px" y="0px"
	 viewBox="0 0 256 256" style="enable-background:new 0 0 256 256;" xml:space="preserve">
<style type="text/css">
	.st0{fill:#FFFFFF;}
	.st1{clip-path:url(#SVGID_00000043430200553465860610000007698910133581981099_);}
	.st2{fill:#1B401D;}
	.st3{clip-path:url(#SVGID_00000024689772195305348660000001938931773691635892_);}
	.st4{fill-rule:evenodd;clip-rule:evenodd;fill:#97CC9A;}
	.st5{clip-path:url(#SVGID_00000157303490301507318290000013425760915466913170_);}
	.st6{fill-rule:evenodd;clip-rule:evenodd;fill:#1B401D;}
</style>
<g>
	<path class="st0" d="M12,254c-2.67,0-5.18-1.04-7.07-2.92C3.04,249.19,2,246.69,2,244.03l0.11-100.7L2,12.74
		c0-5.48,4.46-9.95,9.96-9.97L243.97,2C249.52,2,254,6.47,254,11.96v231.9c0,5.49-4.48,9.96-9.99,9.96L12,254L12,254z"/>
	<g>
		<defs>
			<polygon id="SVGID_1_" points="0.06,0 62.65,0 80.04,63.22 0,48 			"/>
		</defs>
		<clipPath id="SVGID_00000088096576991686257290000015027372302025145230_">
			<use xlink:href="#SVGID_1_"  style="overflow:visible;"/>
		</clipPath>
		<g style="clip-path:url(#SVGID_00000088096576991686257290000015027372302025145230_);">
			<g>
				<g>

						<rect x="-40.2" y="42.53" transform="matrix(0.7071 -0.7071 0.7071 0.7071 -3.4355 80.7751)" class="st2" width="271.97" height="4"/>
				</g>
			</g>
			<g>
				<g>

						<rect x="-51.51" y="31.22" transform="matrix(0.7071 -0.7071 0.7071 0.7071 1.2521 69.463)" class="st2" width="271.97" height="4"/>
				</g>
			</g>
			<g>
				<g>

						<rect x="-62.82" y="19.91" transform="matrix(0.7071 -0.7071 0.7071 0.7071 5.939 58.1513)" class="st2" width="271.97" height="4"/>
				</g>
			</g>
			<g>
				<g>

						<rect x="-74.13" y="8.59" transform="matrix(0.7071 -0.7071 0.7071 0.7071 10.6259 46.8395)" class="st2" width="271.97" height="4"/>
				</g>
			</g>
			<g>
				<g>

						<rect x="-85.44" y="-2.72" transform="matrix(0.7071 -0.7071 0.7071 0.7071 15.313 35.5281)" class="st2" width="271.97" height="4"/>
				</g>
			</g>
			<g>
				<g>

						<rect x="-96.75" y="-14.03" transform="matrix(0.7071 -0.7071 0.7071 0.7071 20.0006 24.2161)" class="st2" width="271.97" height="4"/>
				</g>
			</g>
		</g>
	</g>
	<g>
		<defs>
			<path id="SVGID_00000147938992008710117820000001985490843903255227_" d="M244,256H12.06c-6.63,0-12-5.37-12-12V12
				c0-6.63,5.37-12,12-12H244c6.63,0,12,5.37,12,12v232C256,250.63,250.63,256,244,256z"/>
		</defs>
		<clipPath id="SVGID_00000052093711892181090730000001509830859376083644_">
			<use xlink:href="#SVGID_00000147938992008710117820000001985490843903255227_"  style="overflow:visible;"/>
		</clipPath>
		<g style="clip-path:url(#SVGID_00000052093711892181090730000001509830859376083644_);">
			<polygon class="st4" points="175.96,0.19 63.6,0.19 80.04,63.22 175.96,64 			"/>
			<path class="st2" d="M175.96,66c0,0-0.01,0-0.02,0l-95.91-0.78c-0.9-0.01-1.69-0.62-1.92-1.5L61.66,0.69
				c-0.16-0.6-0.03-1.24,0.35-1.73c0.38-0.49,0.96-0.78,1.58-0.78h112.36c1.1,0,2,0.9,2,2V64c0,0.53-0.21,1.04-0.59,1.42
				C176.99,65.79,176.48,66,175.96,66z M81.59,61.24l92.36,0.75V2.19H66.19L81.59,61.24z"/>
		</g>
		<g style="clip-path:url(#SVGID_00000052093711892181090730000001509830859376083644_);">
			<polygon class="st4" points="0,176 111.97,176 95.98,256 0.06,256 			"/>
			<path class="st2" d="M95.98,258H0.06c-1.1,0-2-0.89-2-2L-2,176c0-0.53,0.21-1.04,0.58-1.42C-1.04,174.21-0.53,174,0,174h111.97
				c0.6,0,1.17,0.27,1.55,0.73c0.38,0.46,0.53,1.07,0.41,1.66l-16,80C97.75,257.33,96.93,258,95.98,258z M2.06,254h92.28l15.2-76H2
				L2.06,254z"/>
		</g>
		<g style="clip-path:url(#SVGID_00000052093711892181090730000001509830859376083644_);">
			<g>
				<rect x="137.97" y="98" class="st4" width="19.99" height="60"/>
			</g>
			<g>
				<path class="st2" d="M155.96,100v56h-15.99v-56H155.96 M159.96,96h-23.99v64h23.99V96L159.96,96z"/>
			</g>
		</g>
		<g style="clip-path:url(#SVGID_00000052093711892181090730000001509830859376083644_);">
			<defs>
				<polygon id="SVGID_00000018920423049474517560000014847421214727814049_" points="96.66,256 256,256 255.94,192 176.02,176.04
					111.97,176 				"/>
			</defs>
			<clipPath id="SVGID_00000176041908126746299260000011255198938851245720_">
				<use xlink:href="#SVGID_00000018920423049474517560000014847421214727814049_"  style="overflow:visible;"/>
			</clipPath>
			<g style="clip-path:url(#SVGID_00000176041908126746299260000011255198938851245720_);">
				<g>
					<g>

							<rect x="131.22" y="304.99" transform="matrix(0.7071 -0.7071 0.7071 0.7071 -138.8111 278.8596)" class="st2" width="271.97" height="4"/>
					</g>
				</g>
				<g>
					<g>

							<rect x="119.91" y="293.68" transform="matrix(0.7071 -0.7071 0.7071 0.7071 -134.1242 267.5479)" class="st2" width="271.97" height="4"/>
					</g>
				</g>
				<g>
					<g>

							<rect x="108.6" y="282.36" transform="matrix(0.7071 -0.7071 0.7071 0.7071 -129.4373 256.2361)" class="st2" width="271.97" height="4"/>
					</g>
				</g>
				<g>
					<g>

							<rect x="97.29" y="271.05" transform="matrix(0.7071 -0.7071 0.7071 0.7071 -124.7503 244.9247)" class="st2" width="271.97" height="4"/>
					</g>
				</g>
				<g>
					<g>

							<rect x="85.98" y="259.73" transform="matrix(0.7071 -0.7071 0.7071 0.7071 -120.0626 233.6127)" class="st2" width="271.97" height="4"/>
					</g>
				</g>
				<g>
					<g>

							<rect x="74.67" y="248.42" transform="matrix(0.7071 -0.7071 0.7071 0.7071 -115.3757 222.3009)" class="st2" width="271.97" height="4"/>
					</g>
				</g>
				<g>
					<g>

							<rect x="63.36" y="237.11" transform="matrix(0.7071 -0.7071 0.7071 0.7071 -110.6888 210.9892)" class="st2" width="271.97" height="4"/>
					</g>
				</g>
				<g>
					<g>

							<rect x="52.05" y="225.79" transform="matrix(0.7071 -0.7071 0.7071 0.7071 -106.0019 199.6774)" class="st2" width="271.97" height="4"/>
					</g>
				</g>
				<g>
					<g>

							<rect x="40.74" y="214.48" transform="matrix(0.7071 -0.7071 0.7071 0.7071 -101.3142 188.3657)" class="st2" width="271.97" height="4"/>
					</g>
				</g>
				<g>
					<g>

							<rect x="29.43" y="203.17" transform="matrix(0.7071 -0.7071 0.7071 0.7071 -96.6273 177.054)" class="st2" width="271.97" height="4"/>
					</g>
				</g>
				<g>
					<g>

							<rect x="18.11" y="191.85" transform="matrix(0.7071 -0.7071 0.7071 0.7071 -91.9404 165.7422)" class="st2" width="271.97" height="4"/>
					</g>
				</g>
				<g>
					<g>

							<rect x="6.8" y="180.54" transform="matrix(0.7071 -0.7071 0.7071 0.7071 -87.2534 154.4305)" class="st2" width="271.97" height="4"/>
					</g>
				</g>
				<g>
					<g>

							<rect x="-4.51" y="169.23" transform="matrix(0.7071 -0.7071 0.7071 0.7071 -82.5662 143.1186)" class="st2" width="271.97" height="4"/>
					</g>
				</g>
				<g>
					<g>

							<rect x="-15.82" y="157.91" transform="matrix(0.7071 -0.7071 0.7071 0.7071 -77.8788 131.807)" class="st2" width="271.97" height="4"/>
					</g>
				</g>
				<g>
					<g>

							<rect x="-27.13" y="146.6" transform="matrix(0.7071 -0.7071 0.7071 0.7071 -73.1919 120.4953)" class="st2" width="271.97" height="4"/>
					</g>
				</g>
				<g>
					<g>

							<rect x="-38.44" y="135.28" transform="matrix(0.7071 -0.7071 0.7071 0.7071 -68.505 109.1835)" class="st2" width="271.97" height="4"/>
					</g>
				</g>
				<g>
					<g>

							<rect x="-49.75" y="123.97" transform="matrix(0.7071 -0.7071 0.7071 0.7071 -63.8179 97.8721)" class="st2" width="271.97" height="4"/>
					</g>
				</g>
			</g>
		</g>
		<g style="clip-path:url(#SVGID_00000052093711892181090730000001509830859376083644_);">
			<polygon class="st2" points="0.07,178.37 0.05,174.37 77.98,174.01 77.98,64.25 61.85,0.49 65.73,-0.49 81.98,63.75
				81.98,177.99 			"/>
		</g>
		<g style="clip-path:url(#SVGID_00000052093711892181090730000001509830859376083644_);">

				<rect x="119.41" y="118" transform="matrix(9.765159e-03 -1 1 9.765159e-03 53.7101 294.237)" class="st2" width="112.01" height="4"/>
		</g>
		<g style="clip-path:url(#SVGID_00000052093711892181090730000001509830859376083644_);">
			<polygon class="st2" points="176.02,65.22 79.82,65.22 -0.37,47.35 0.5,43.45 80.26,61.22 176.02,61.22 			"/>
		</g>
		<g style="clip-path:url(#SVGID_00000052093711892181090730000001509830859376083644_);">
			<polygon class="st2" points="255.58,195.33 175.81,178.04 80.04,178.04 80.04,174.04 176.23,174.04 176.44,174.08 256.42,191.42
							"/>
		</g>
		<g style="clip-path:url(#SVGID_00000052093711892181090730000001509830859376083644_);">
			<polygon class="st2" points="208.56,130 175.96,130 175.96,126 207.34,126 254.89,94.2 257.11,97.53 			"/>
		</g>
		<g style="clip-path:url(#SVGID_00000052093711892181090730000001509830859376083644_);">
			<path class="st2" d="M244,4c4.41,0,8,3.59,8,8v232c0,4.41-3.59,8-8,8H12.06c-4.41,0-8-3.59-8-8V12c0-4.41,3.59-8,8-8H244 M244,0
				H12.06c-6.63,0-12,5.37-12,12v232c0,6.63,5.37,12,12,12H244c6.63,0,12-5.37,12-12V12C256,5.37,250.63,0,244,0L244,0z"/>
		</g>
		<g style="clip-path:url(#SVGID_00000052093711892181090730000001509830859376083644_);">
			<g>
				<rect x="97.98" y="82" class="st4" width="43.99" height="76"/>
			</g>
			<g>
				<path class="st2" d="M139.96,84v72H99.98V84H139.96 M143.96,80H95.98v80h47.99V80L143.96,80z"/>
			</g>
		</g>
		<g style="clip-path:url(#SVGID_00000052093711892181090730000001509830859376083644_);">
			<path class="st2" d="M111.97,106c-1.1,0-2-0.9-2-2v-8c0-1.1,0.9-2,2-2s2,0.9,2,2v8C113.97,105.1,113.08,106,111.97,106z"/>
		</g>
		<g style="clip-path:url(#SVGID_00000052093711892181090730000001509830859376083644_);">
			<path class="st2" d="M127.97,106c-1.1,0-2-0.9-2-2v-8c0-1.1,0.9-2,2-2s2,0.9,2,2v8C129.97,105.1,129.07,106,127.97,106z"/>
		</g>
		<g style="clip-path:url(#SVGID_00000052093711892181090730000001509830859376083644_);">
			<path class="st2" d="M111.97,122c-1.1,0-2-0.9-2-2v-8c0-1.1,0.9-2,2-2s2,0.9,2,2v8C113.97,121.1,113.08,122,111.97,122z"/>
		</g>
		<g style="clip-path:url(#SVGID_00000052093711892181090730000001509830859376083644_);">
			<path class="st2" d="M127.97,122c-1.1,0-2-0.9-2-2v-8c0-1.1,0.9-2,2-2s2,0.9,2,2v8C129.97,121.1,129.07,122,127.97,122z"/>
		</g>
		<g style="clip-path:url(#SVGID_00000052093711892181090730000001509830859376083644_);">
			<path class="st2" d="M111.97,138c-1.1,0-2-0.9-2-2v-8c0-1.1,0.9-2,2-2s2,0.9,2,2v8C113.97,137.1,113.08,138,111.97,138z"/>
		</g>
		<g style="clip-path:url(#SVGID_00000052093711892181090730000001509830859376083644_);">
			<path class="st2" d="M127.97,138c-1.1,0-2-0.9-2-2v-8c0-1.1,0.9-2,2-2s2,0.9,2,2v8C129.97,137.1,129.07,138,127.97,138z"/>
		</g>
		<g style="clip-path:url(#SVGID_00000052093711892181090730000001509830859376083644_);">
			<path class="st2" d="M111.97,154c-1.1,0-2-0.9-2-2v-8c0-1.1,0.9-2,2-2s2,0.9,2,2v8C113.97,153.1,113.08,154,111.97,154z"/>
		</g>
		<g style="clip-path:url(#SVGID_00000052093711892181090730000001509830859376083644_);">
			<path class="st2" d="M127.97,154c-1.1,0-2-0.9-2-2v-8c0-1.1,0.9-2,2-2s2,0.9,2,2v8C129.97,153.1,129.07,154,127.97,154z"/>
		</g>
		<g style="clip-path:url(#SVGID_00000052093711892181090730000001509830859376083644_);">
			<g>
				<polygon class="st6" points="8,88 23.99,64 39.99,88 				"/>
			</g>
			<g>
				<polygon class="st6" points="8,104 23.99,80 39.99,104 				"/>
			</g>
		</g>
		<g style="clip-path:url(#SVGID_00000052093711892181090730000001509830859376083644_);">
			<g>
				<ellipse class="st6" cx="47.99" cy="128" rx="16" ry="16"/>
			</g>
			<g>
				<path class="st2" d="M47.99,162c-1.1,0-2-0.9-2-2v-24c0-1.1,0.9-2,2-2s2,0.9,2,2v24C49.99,161.1,49.09,162,47.99,162z"/>
			</g>
		</g>
		<g style="clip-path:url(#SVGID_00000052093711892181090730000001509830859376083644_);">
			<g>
				<g>
					<polygon class="st4" points="201.95,81.22 201.95,60.05 215.95,46.05 229.94,60.05 229.94,81.22 					"/>
				</g>
				<g>
					<path class="st2" d="M215.95,48.88l12,12v18.34h-23.99V60.88L215.95,48.88 M215.95,43.22l-16,16v24h31.99v-24L215.95,43.22
						L215.95,43.22z"/>
				</g>
			</g>
			<g>
				<line class="st4" x1="215.95" y1="83.22" x2="215.95" y2="67.22"/>
				<rect x="213.95" y="67.22" class="st2" width="4" height="16"/>
			</g>
		</g>
		<g style="clip-path:url(#SVGID_00000052093711892181090730000001509830859376083644_);">
			<polygon class="st6" points="191.95,168 207.95,144 223.94,168 			"/>
		</g>
		<g style="clip-path:url(#SVGID_00000052093711892181090730000001509830859376083644_);">
			<polygon class="st6" points="215.95,152 231.94,128 247.94,152 			"/>
		</g>
	</g>
	<g>
		<g>
			<g>
				<g>
					<path class="st2" d="M39.58,197.2H26.41c-0.78,0-1.41,0.63-1.41,1.41v3.29h15.99v-3.29C40.99,197.83,40.36,197.2,39.58,197.2z"
						/>
				</g>
			</g>
		</g>
		<g>
			<g>
				<g>
					<path class="st2" d="M72.46,210.65c-0.44-0.25-0.98-0.25-1.41,0.01l-13.96,8.17v-6.95c0-0.51-0.27-0.97-0.71-1.22
						c-0.44-0.25-0.98-0.25-1.41,0.01l-13.96,8.17v-14.1H25v39.23c0,0.78,0.63,1.41,1.41,1.41h45.34c0.78,0,1.41-0.63,1.41-1.41
						v-32.08C73.16,211.37,72.89,210.9,72.46,210.65z M46.64,235.44c0,0.78-0.63,1.41-1.41,1.41h-5.64c-0.78,0-1.41-0.63-1.41-1.41
						v-5.64c0-0.78,0.63-1.41,1.41-1.41h5.64c0.78,0,1.41,0.63,1.41,1.41V235.44z M62.72,235.44c0,0.78-0.63,1.41-1.41,1.41h-5.64
						c-0.78,0-1.41-0.63-1.41-1.41v-5.64c0-0.78,0.63-1.41,1.41-1.41h5.64c0.78,0,1.41,0.63,1.41,1.41V235.44z"/>
				</g>
			</g>
		</g>
	</g>
	<g>
		<path class="st2" d="M49.16,195.02c-1.73,0-3.45-0.6-5-1.8l-4.59-3.57c-1.68-1.31-3.53-1.28-5.2,0.1
			c-0.85,0.7-2.11,0.58-2.82-0.28c-0.7-0.85-0.58-2.11,0.28-2.82c3.12-2.56,7.03-2.62,10.2-0.16l4.59,3.57
			c1.64,1.27,3.44,1.27,5.08,0l4.69-3.65c3.08-2.4,6.91-2.4,9.99,0l4.69,3.65c0.73,0.57,1.49,0.89,2.26,0.95
			c1.1,0.09,1.92,1.06,1.83,2.16c-0.09,1.1-1.05,1.91-2.16,1.83c-1.53-0.13-3.05-0.75-4.38-1.78l-4.69-3.65
			c-1.66-1.29-3.42-1.29-5.08,0l-4.69,3.65C52.62,194.42,50.89,195.02,49.16,195.02z"/>
	</g>
</g>
</svg>
