<?xml version="1.0" encoding="utf-8"?>
<!-- Generator: Adobe Illustrator 26.1.0, SVG Export Plug-In . SVG Version: 6.00 Build 0)  -->
<svg version="1.1" id="Layer_1" xmlns="http://www.w3.org/2000/svg" xmlns:xlink="http://www.w3.org/1999/xlink" x="0px" y="0px"
	 viewBox="0 0 256 256" style="enable-background:new 0 0 256 256;" xml:space="preserve">
<style type="text/css">
	.st0{fill:#97CC9A;}
	.st1{fill:#1B401D;}
	.st2{fill:#FFFFFF;}
	.st3{fill-rule:evenodd;clip-rule:evenodd;fill:#1B401D;}
	.st4{clip-path:url(#SVGID_00000072260605439380526650000010230744191718432654_);}
</style>
<g>
	<g>
		<g>
			<path class="st0" d="M11.96,253.23c-5.5-0.02-9.97-4.49-9.96-9.97l0.12-130.58L2,11.97c0-2.66,1.03-5.16,2.91-7.04
				C6.8,3.04,9.32,2,12,2l232.01,0.17c5.51,0,9.99,4.47,9.99,9.96v231.9c0,5.49-4.48,9.96-9.99,9.96L11.96,253.23z"/>
		</g>
		<g>
			<path class="st1" d="M12,4l232.01,0.17c4.4,0,7.99,3.58,7.99,7.96v231.9c0,4.39-3.59,7.96-8.02,7.96l-232.01-0.01
				c-4.4-0.01-7.97-4.35-7.97-8.73l0.12-130.59L4,11.97c0-2.12,0.82-4.12,2.33-5.62C7.84,4.83,9.85,4,12,4L12,4 M12,0
				C5.37,0,0,5.36,0,11.98l0.11,100.7L0,243.26c-0.01,6.6,5.34,12.71,11.95,12.73L243.97,256c0.01,0,0.03,0,0.04,0
				c6.62,0,11.99-5.35,11.99-11.96V12.13c0-6.6-5.36-11.96-11.99-11.96L12,0C12,0,12,0,12,0L12,0z"/>
		</g>
	</g>
	<g>
		<g>
			<g>
				<defs>
					<polygon id="SVGID_1_" points="129.07,128.13 256,192.62 129.07,256 0,192.24 					"/>
				</defs>
				<clipPath id="SVGID_00000008844336870150786210000016407565954763818402_">
					<use xlink:href="#SVGID_1_"  style="overflow:visible;"/>
				</clipPath>
			</g>
			<g>
				<g>
					<polygon class="st2" points="4.51,191.24 129.06,129.36 251.55,191.61 129.07,252.77 					"/>
				</g>
				<g>
					<g>
						<path class="st1" d="M129.05,131.6l118.06,59.99l-118.05,58.94L9.01,191.23L129.05,131.6 M129.07,127.13L0,191.24L129.07,255
							L256,191.62L129.07,127.13L129.07,127.13z"/>
					</g>
				</g>
			</g>
			<g>
				<g>
					<circle class="st3" cx="190.51" cy="184.19" r="4"/>
				</g>
				<g>
					<circle class="st3" cx="65.79" cy="179.96" r="4"/>
				</g>
				<g>
					<circle class="st3" cx="215.65" cy="192.62" r="4"/>
				</g>
				<g>
					<circle class="st3" cx="168.19" cy="208.19" r="4"/>
				</g>
				<g>
					<circle class="st3" cx="96.19" cy="184.19" r="4"/>
				</g>
				<g>
					<circle class="st3" cx="157.46" cy="192.06" r="4"/>
				</g>
				<g>
					<circle class="st3" cx="120.19" cy="204.19" r="4"/>
				</g>
				<g>
					<circle class="st3" cx="92.19" cy="205.85" r="4"/>
				</g>
				<g>
					<circle class="st3" cx="124.19" cy="228.19" r="4"/>
				</g>
				<g>
					<circle class="st3" cx="65.79" cy="201.85" r="4"/>
				</g>
				<g>
					<circle class="st3" cx="37.25" cy="192.06" r="4"/>
				</g>
			</g>
			<g>
				<g>
					<polygon class="st0" points="4.51,128.86 129.06,66.99 251.55,129.23 129.07,190.39 					"/>
				</g>
				<g>
					<g>
						<path class="st1" d="M129.05,69.22l118.06,59.99l-118.05,58.94L9.01,128.86L129.05,69.22 M129.07,64.75L0,128.87l129.07,63.76
							L256,129.24L129.07,64.75L129.07,64.75z"/>
					</g>
				</g>
			</g>
			<g>
				<defs>
					<polygon id="SVGID_00000042017087345788940300000005313990220046877863_" points="129.07,64.75 256,129.24 129.07,192.62
						0,128.87 					"/>
				</defs>
				<clipPath id="SVGID_00000077299232355024705010000004460150652344811137_">
					<use xlink:href="#SVGID_00000042017087345788940300000005313990220046877863_"  style="overflow:visible;"/>
				</clipPath>
				<g style="clip-path:url(#SVGID_00000077299232355024705010000004460150652344811137_);">
					<g>
						<path class="st1" d="M256.56,121.73c-0.32,0-0.65-0.08-0.96-0.25l-23.08-12.61c-5.76-3.15-12.71-3.27-18.58-0.34l-11.83,5.91
							c-6.73,3.37-14.78,3.37-21.51,0l-12.28-6.14c-5.61-2.81-12.32-2.81-17.93,0l-12.28,6.14c-6.73,3.37-14.78,3.37-21.51,0
							l-12.28-6.14c-5.61-2.81-12.32-2.81-17.93,0l-12.28,6.14c-6.73,3.37-14.78,3.37-21.51,0l-12.01-6.01
							c-5.77-2.88-12.61-2.81-18.32,0.2L1.49,119.61c-0.98,0.51-2.19,0.14-2.7-0.84s-0.14-2.19,0.84-2.7l20.79-10.96
							c6.84-3.61,15.06-3.7,21.97-0.24l12.01,6.01c5.61,2.81,12.32,2.81,17.93,0l12.28-6.14c6.73-3.37,14.78-3.37,21.51,0
							l12.28,6.14c5.61,2.81,12.32,2.81,17.93,0l12.28-6.14c6.73-3.37,14.78-3.37,21.51,0l12.28,6.14c5.61,2.81,12.32,2.81,17.93,0
							l11.83-5.91c7.04-3.52,15.37-3.37,22.28,0.41l23.08,12.61c0.97,0.53,1.33,1.74,0.8,2.71
							C257.95,121.35,257.27,121.73,256.56,121.73z"/>
					</g>
					<g>
						<path class="st1" d="M256.56,144.54c-0.32,0-0.65-0.08-0.96-0.25l-23.08-12.61c-5.76-3.15-12.7-3.27-18.58-0.34l-11.83,5.91
							c-6.73,3.37-14.78,3.37-21.51,0l-12.28-6.14c-5.61-2.81-12.32-2.81-17.93,0l-12.28,6.14c-6.73,3.37-14.78,3.37-21.51,0
							l-12.28-6.14c-5.61-2.81-12.32-2.81-17.93,0l-12.28,6.14c-6.73,3.37-14.78,3.37-21.51,0l-12.01-6.01
							c-5.77-2.88-12.61-2.81-18.32,0.2L1.49,142.42c-0.98,0.51-2.19,0.14-2.7-0.84c-0.51-0.98-0.14-2.19,0.84-2.7l20.79-10.96
							c6.84-3.61,15.06-3.7,21.97-0.24l12.01,6.01c5.61,2.81,12.32,2.81,17.93,0l12.28-6.14c6.73-3.37,14.78-3.37,21.51,0
							l12.28,6.14c5.61,2.81,12.32,2.81,17.93,0l12.28-6.14c6.73-3.37,14.78-3.37,21.51,0l12.28,6.14c5.61,2.81,12.32,2.81,17.93,0
							l11.83-5.91c7.04-3.52,15.37-3.37,22.28,0.41l23.08,12.61c0.97,0.53,1.33,1.74,0.8,2.71
							C257.95,144.16,257.27,144.54,256.56,144.54z"/>
					</g>
					<g>
						<path class="st1" d="M256.56,167.34c-0.32,0-0.65-0.08-0.96-0.25l-23.08-12.61c-5.76-3.15-12.71-3.27-18.58-0.34l-11.83,5.91
							c-6.73,3.37-14.78,3.37-21.51,0l-12.28-6.14c-5.61-2.81-12.32-2.81-17.93,0l-12.28,6.14c-6.73,3.37-14.78,3.37-21.51,0
							l-12.28-6.14c-5.61-2.81-12.32-2.81-17.93,0l-12.28,6.14c-6.73,3.37-14.78,3.37-21.51,0l-12.01-6.01
							c-5.77-2.88-12.61-2.81-18.32,0.2L1.49,165.22c-0.98,0.51-2.19,0.14-2.7-0.84c-0.51-0.98-0.14-2.19,0.84-2.7l20.79-10.96
							c6.84-3.61,15.06-3.7,21.97-0.24l12.01,6.01c5.61,2.81,12.32,2.81,17.93,0l12.28-6.14c6.73-3.37,14.78-3.37,21.51,0
							l12.28,6.14c5.61,2.81,12.32,2.81,17.93,0l12.28-6.14c6.73-3.37,14.78-3.37,21.51,0l12.28,6.14c5.61,2.81,12.32,2.81,17.93,0
							l11.83-5.91c7.04-3.52,15.37-3.37,22.28,0.41l23.08,12.61c0.97,0.53,1.33,1.74,0.8,2.71
							C257.95,166.97,257.27,167.34,256.56,167.34z"/>
					</g>
				</g>
			</g>
			<g>
				<g>
					<polygon class="st2" points="4.51,64.11 129.06,2.24 251.55,64.48 129.07,125.64 					"/>
				</g>
				<g>
					<g>
						<path class="st1" d="M129.05,4.48l118.06,59.99l-118.05,58.94L9.01,64.11L129.05,4.48 M129.07,0L0,64.12l129.07,63.76
							L256,64.5L129.07,0L129.07,0z"/>
					</g>
				</g>
			</g>
			<g>
				<line class="st0" x1="69.57" y1="33.13" x2="208.5" y2="83.77"/>
				<path class="st1" d="M208.5,85.77c-0.23,0-0.46-0.04-0.68-0.12L68.89,35c-1.04-0.38-1.57-1.53-1.19-2.56
					c0.38-1.04,1.53-1.57,2.56-1.19l138.93,50.65c1.04,0.38,1.57,1.53,1.19,2.56C210.09,85.27,209.32,85.77,208.5,85.77z"/>
			</g>
		</g>
		<g>
			<line class="st0" x1="160.13" y1="19.14" x2="122.75" y2="52.51"/>

				<rect x="116.38" y="33.83" transform="matrix(0.746 -0.6659 0.6659 0.746 12.0662 103.2875)" class="st1" width="50.11" height="4"/>
		</g>
		<g>
			<line class="st0" x1="145.49" y1="60.8" x2="74.94" y2="98.64"/>

				<rect x="70.19" y="77.72" transform="matrix(0.8813 -0.4726 0.4726 0.8813 -24.5903 61.5542)" class="st1" width="80.05" height="4"/>
		</g>
	</g>
</g>
</svg>
