<?xml version="1.0" encoding="utf-8"?>
<!-- Generator: Adobe Illustrator 26.1.0, SVG Export Plug-In . SVG Version: 6.00 Build 0)  -->
<svg version="1.1" id="Layer_1" xmlns="http://www.w3.org/2000/svg" xmlns:xlink="http://www.w3.org/1999/xlink" x="0px" y="0px"
	 viewBox="0 0 256 256" style="enable-background:new 0 0 256 256;" xml:space="preserve">
<style type="text/css">
	.st0{fill:#FFFFFF;}
	.st1{fill:#1B401D;}
	.st2{fill-rule:evenodd;clip-rule:evenodd;fill:#97CC9A;}
	.st3{fill:#97CC9A;}
	.st4{fill-rule:evenodd;clip-rule:evenodd;fill:#FFFFFF;}
</style>
<g>
	<g>
		<g>
			<path class="st0" d="M12.56,254.03c-5.5-0.02-10.31-5.26-10.31-10.74l0.12-130.58L2.26,12c0-2.66,1.03-5.16,2.91-7.04
				c1.89-1.89,4.41-2.93,7.08-2.93L244.27,2.2c5.51,0,9.99,4.47,9.99,9.96v231.9c0,5.49-4.48,9.96-9.99,9.96L12.56,254.03z"/>
		</g>
		<g>
			<g>
				<path class="st1" d="M12.26,4.03L244.27,4.2c4.4,0,7.99,3.58,7.99,7.96v231.9c0,4.39-3.59,7.96-8.02,7.96l-231.67,0
					c-4.4-0.01-8.32-4.36-8.31-8.74L4.37,112.7L4.26,12c0-2.12,0.82-4.12,2.33-5.62C8.1,4.86,10.11,4.03,12.26,4.03L12.26,4.03
					 M12.26,0.03c-6.63,0-12,5.36-11.99,11.98l0.11,100.7L0.26,243.29c-0.01,6.6,5.69,12.72,12.3,12.74l231.67,0
					c0.01,0,0.03,0,0.04,0c6.62,0,11.99-5.35,11.99-11.96V12.16c0-6.6-5.36-11.96-11.99-11.96L12.26,0.03
					C12.26,0.03,12.26,0.03,12.26,0.03L12.26,0.03z"/>
			</g>
		</g>
	</g>
	<g>
		<g>
			<g>
				<path class="st2" d="M38.33,239.22c-5.42,0-10.27-2.49-12.97-6.65c-2.25-3.47-2.58-7.61-0.92-11.33l21.19-47.35
					c2.27-5.06,7.72-8.34,13.88-8.34H197c6.17,0,11.62,3.27,13.88,8.34l21.19,47.35c1.67,3.73,1.33,7.86-0.92,11.33
					c-2.7,4.16-7.55,6.65-12.97,6.65H38.33z"/>
			</g>
			<g>
				<path class="st1" d="M197,167.55c5.3,0,10.14,2.87,12.06,7.15l21.19,47.35c1.41,3.14,1.13,6.49-0.77,9.43
					c-2.33,3.59-6.55,5.74-11.29,5.74H38.33c-4.74,0-8.96-2.14-11.29-5.74c-1.9-2.94-2.18-6.29-0.77-9.43l21.19-47.35
					c1.91-4.28,6.76-7.15,12.06-7.15H197 M197,163.55H59.52c-6.92,0-13.14,3.77-15.71,9.52l-21.19,47.35
					c-4.46,9.96,3.73,20.8,15.71,20.8h179.85c11.98,0,20.17-10.84,15.71-20.8l-21.19-47.35C210.13,167.32,203.91,163.55,197,163.55
					L197,163.55z"/>
			</g>
		</g>
		<g>
			<g>
				<polygon class="st3" points="105.81,165.71 135.11,116.73 163.18,165.71 				"/>
			</g>
			<g>
				<path class="st1" d="M135.08,120.69l24.65,43.02h-50.39L135.08,120.69 M135.15,112.77l-32.87,54.93h64.35L135.15,112.77
					L135.15,112.77z"/>
			</g>
		</g>
		<g>
			<g>
				<polygon class="st3" points="71.54,165.71 108.22,104.39 143.36,165.71 				"/>
			</g>
			<g>
				<path class="st1" d="M108.19,108.35l31.72,55.36H75.06L108.19,108.35 M108.26,100.43l-40.25,67.28h78.8L108.26,100.43
					L108.26,100.43z"/>
			</g>
		</g>
		<g>
			<g>
				<polygon class="st4" points="132.97,132.19 126.67,130.9 135.12,116.74 143.78,131.85 141.15,130.75 137.19,134.93 				"/>
			</g>
			<g>
				<path class="st1" d="M135.08,120.7l4.84,8.44l-1.17,1.24l-1.87,1.97l-2.5-1.63l-0.64-0.41l-0.74-0.15l-3.17-0.65L135.08,120.7
					 M135.15,112.77l-11.64,19.52l8.69,1.77l5.29,3.44l4.16-4.39l6.8,2.85L135.15,112.77L135.15,112.77z"/>
			</g>
		</g>
		<g>
			<g>
				<polygon class="st0" points="95.26,126.06 108.24,104.35 121.48,126.88 115.88,126.19 111.1,128.84 105.98,124.75
					100.51,128.87 				"/>
			</g>
			<g>
				<path class="st1" d="M108.23,108.27l9.48,16.13l-0.94-0.12l-1.29-0.16l-1.14,0.63l-3.04,1.68l-2.86-2.29l-2.42-1.94l-2.48,1.87
					l-3.21,2.42l-2.27-1.21L108.23,108.27 M108.26,100.43l-15.8,26.41l8.23,4.4l5.25-3.96l4.95,3.96l5.39-2.98l8.98,1.11
					L108.26,100.43L108.26,100.43z"/>
			</g>
		</g>
		<g>
			<path class="st1" d="M179.35,240.39c-0.86,0-1.65-0.56-1.91-1.42c-2.25-7.4,5.81-24.77,17.71-28.84
				c11.08-3.79,25.76-3.7,32.03,0.19c0.94,0.58,1.23,1.82,0.64,2.75c-0.58,0.94-1.82,1.23-2.75,0.64
				c-4.71-2.92-17.95-3.46-28.63,0.19c-9.91,3.39-16.75,18.7-15.18,23.89c0.32,1.06-0.27,2.17-1.33,2.5
				C179.74,240.36,179.54,240.39,179.35,240.39z"/>
		</g>
		<g>
			<g>
				<path class="st0" d="M68.76,202.59c-5.72,0-9.93-1.8-12.51-5.35c-2.14-2.94-2.62-6.25-1.38-9.56c1.88-5.05,7.35-9.42,13.6-10.86
					c2.54-0.59,4.83-0.88,6.98-0.88c5.04,0,9.2,1.57,14.95,3.75l2.06,0.78c2.37,0.89,4.54,1.32,6.63,1.32c3.11,0,5.58-0.92,8.2-1.89
					c2.46-0.92,5.01-1.86,8.45-2.16c1.59-0.14,2.98-0.21,4.26-0.21c10.69,0,11.93,4.76,11.93,8.34c0,7.34-6.99,11.4-11.82,11.4
					c-1.35,0-3.65-0.26-6.31-0.57c-4.16-0.48-9.33-1.07-14.24-1.07c-5.32,0-9.28,0.7-12.1,2.14
					C83.09,199.99,75.58,202.59,68.76,202.59z"/>
			</g>
			<g>
				<path class="st1" d="M75.44,177.94c4.67,0,8.48,1.44,14.25,3.62c0.67,0.25,1.36,0.51,2.07,0.78c2.59,0.97,4.99,1.44,7.33,1.44
					c3.47,0,6.23-1.03,8.89-2.02c2.45-0.91,4.76-1.77,7.93-2.05c1.53-0.13,2.87-0.2,4.08-0.2c9.93,0,9.93,4.12,9.93,6.34
					c0,6.56-6.5,9.4-9.82,9.4c-1.23,0-3.48-0.26-6.09-0.56c-4.21-0.48-9.45-1.08-14.47-1.08c-5.65,0-9.9,0.77-13.01,2.36
					c-4.16,2.12-11.31,4.6-17.78,4.6c-5.04,0-8.71-1.52-10.9-4.53c-1.75-2.4-2.13-4.99-1.12-7.68c1.63-4.38,6.64-8.33,12.18-9.61
					C71.3,178.21,73.44,177.94,75.44,177.94 M75.44,173.94c-2.24,0-4.66,0.28-7.43,0.93c-11.11,2.57-20.42,13.89-13.38,23.55
					c3.35,4.6,8.61,6.17,14.13,6.17c7.45,0,15.36-2.87,19.6-5.04c2.84-1.45,6.89-1.92,11.19-1.92c8.02,0,16.93,1.64,20.56,1.64
					c5.72,0,13.82-4.74,13.82-13.4c0-8.69-7.45-10.34-13.93-10.34c-1.57,0-3.09,0.1-4.43,0.21c-7.38,0.65-10.96,4.05-16.48,4.05
					c-1.73,0-3.65-0.33-5.93-1.19C86.17,175.98,81.45,173.94,75.44,173.94L75.44,173.94z"/>
			</g>
		</g>
		<g>
			<path class="st1" d="M80.68,227.25c-7.89,0-16.54-2.19-24.35-8.26c-6.66-5.17-21.16-7.94-28.75-0.53
				c-0.79,0.77-2.06,0.76-2.83-0.03c-0.77-0.79-0.76-2.06,0.03-2.83c9.24-9.04,26.03-5.96,34,0.23c16.12,12.52,34.52,6.2,40.25,2.71
				l1.71-1.04c11.28-6.9,18.08-11.06,28.25-7.05c22.65,8.93,48.22-6.99,53.68-15.47c3.79-5.89,2.21-12.01,0.81-17.42
				c-1.07-4.15-2-7.73-0.08-10.42c1.23-1.72,3.4-2.68,6.65-2.93c1.11-0.08,2.06,0.74,2.15,1.84c0.09,1.1-0.74,2.06-1.84,2.15
				c-1.35,0.11-3.09,0.41-3.7,1.27c-0.84,1.17-0.09,4.05,0.69,7.1c1.44,5.58,3.41,13.23-1.32,20.58
				c-6.16,9.56-33.49,26.89-58.51,17.03c-8.32-3.28-13.79,0.07-24.7,6.74l-1.71,1.04C96.39,224.83,88.96,227.25,80.68,227.25z"/>
		</g>
		<g>
			<g>
				<path class="st1" d="M143.4,58.3h-28.6c-1.1,0-2-0.9-2-2s0.9-2,2-2h28.6c1.1,0,2,0.9,2,2S144.5,58.3,143.4,58.3z"/>
			</g>
			<g>
				<path class="st0" d="M128.8,62.83L128.8,62.83c-4.62,0-8.4-3.78-8.4-8.4V28.69c0-4.62,3.78-8.4,8.4-8.4h0
					c4.62,0,8.4,3.78,8.4,8.4v25.74C137.21,59.05,133.43,62.83,128.8,62.83z"/>
				<path class="st1" d="M128.8,64.83c-5.74,0-10.4-4.67-10.4-10.4V28.69c0-5.74,4.67-10.4,10.4-10.4s10.4,4.67,10.4,10.4v25.74
					C139.21,60.17,134.54,64.83,128.8,64.83z M128.8,22.28c-3.53,0-6.4,2.87-6.4,6.4v25.74c0,3.53,2.87,6.4,6.4,6.4
					s6.4-2.87,6.4-6.4V28.69C135.21,25.16,132.34,22.28,128.8,22.28z"/>
			</g>
			<g>
				<path class="st3" d="M142.39,75.94c-0.25-7.28-6.21-13.1-13.55-13.1c-7.34,0-13.3,5.83-13.55,13.1H142.39z"/>
				<path class="st1" d="M142.39,77.94H115.3c-0.54,0-1.06-0.22-1.44-0.61s-0.58-0.92-0.56-1.46c0.29-8.43,7.12-15.03,15.55-15.03
					s15.26,6.6,15.55,15.03c0.02,0.54-0.18,1.07-0.56,1.46S142.93,77.94,142.39,77.94z M117.55,73.94h22.59
					c-1.12-5.24-5.74-9.1-11.29-9.1S118.67,68.69,117.55,73.94z"/>
			</g>
			<g>
				<polygon class="st3" points="114.73,64.05 77.99,64.05 87,40.08 114.73,47.84 				"/>
				<path class="st1" d="M114.73,66.05H77.99c-0.66,0-1.27-0.32-1.64-0.86c-0.37-0.54-0.46-1.23-0.23-1.84l9.01-23.97
					c0.36-0.97,1.41-1.5,2.41-1.22l27.73,7.75c0.86,0.24,1.46,1.03,1.46,1.93v16.21C116.73,65.16,115.84,66.05,114.73,66.05z
					 M80.88,62.05h31.85v-12.7l-24.5-6.85L80.88,62.05z"/>
			</g>
			<g>
				<polygon class="st3" points="143.04,64.05 179.78,64.05 170.77,40.08 143.04,47.84 				"/>
				<path class="st1" d="M179.78,66.05h-36.74c-1.1,0-2-0.9-2-2V47.84c0-0.9,0.6-1.68,1.46-1.93l27.73-7.75
					c1-0.28,2.05,0.25,2.41,1.22l9.01,23.97c0.23,0.61,0.15,1.3-0.23,1.84C181.05,65.73,180.44,66.05,179.78,66.05z M145.04,62.05
					h31.85l-7.35-19.55l-24.5,6.85V62.05z"/>
			</g>
			<g>
				<path class="st1" d="M128.96,84.75c-1.1,0-2-0.9-2-2v-6.81c0-1.1,0.9-2,2-2s2,0.9,2,2v6.81
					C130.96,83.85,130.06,84.75,128.96,84.75z"/>
			</g>
			<g>
				<path class="st1" d="M136.16,33.25h-14.13c-1.1,0-2-0.9-2-2c0-1.1,0.9-2,2-2h14.13c1.1,0,2,0.9,2,2
					C138.16,32.36,137.27,33.25,136.16,33.25z"/>
			</g>
		</g>
	</g>
</g>
</svg>
