<?xml version="1.0" encoding="utf-8"?>
<!-- Generator: Adobe Illustrator 26.1.0, SVG Export Plug-In . SVG Version: 6.00 Build 0)  -->
<svg version="1.1" id="Layer_1" xmlns="http://www.w3.org/2000/svg" xmlns:xlink="http://www.w3.org/1999/xlink" x="0px" y="0px"
	 viewBox="0 0 256 256" style="enable-background:new 0 0 256 256;" xml:space="preserve">
<style type="text/css">
	.st0{fill:#FFFFFF;}
	.st1{fill:#1B401D;}
	.st2{fill:#97CC9A;}
	.st3{fill:none;}
</style>
<g>
	<g>
		<g>
			<path class="st0" d="M12.22,253.26c-5.5-0.02-9.97-4.49-9.96-9.97l0.12-130.58L2.26,12c0-2.66,1.03-5.16,2.91-7.04
				c1.89-1.89,4.41-2.93,7.08-2.93L244.27,2.2c5.51,0,9.99,4.47,9.99,9.96v231.9c0,5.49-4.48,9.96-9.99,9.96L12.22,253.26z"/>
		</g>
		<g>
			<g>
				<path class="st1" d="M12.26,4.03L244.27,4.2c4.4,0,7.99,3.58,7.99,7.96v231.9c0,4.39-3.59,7.96-8.02,7.96H12.21
					c-4.4-0.01-7.96-4.36-7.95-8.74L4.37,112.7L4.26,12c0-2.12,0.82-4.12,2.33-5.62C8.1,4.86,10.11,4.03,12.26,4.03L12.26,4.03
					 M12.26,0.03c-6.63,0-12,5.36-11.99,11.98l0.11,100.7L0.26,243.29c-0.01,6.6,5.33,12.72,11.94,12.74h232.03
					c0.01,0,0.03,0,0.04,0c6.62,0,11.99-5.35,11.99-11.96V12.16c0-6.6-5.36-11.96-11.99-11.96L12.26,0.03L12.26,0.03L12.26,0.03z"/>
			</g>
		</g>
	</g>
	<g>
		<g>
			<path class="st1" d="M19.26,238.94c-1.1,0-2-0.9-2-2V17.03c0-1.1,0.9-2,2-2s2,0.9,2,2v219.91
				C21.26,238.04,20.36,238.94,19.26,238.94z"/>
		</g>
		<g>
			<path class="st1" d="M243.54,238.94H19.26c-1.1,0-2-0.9-2-2s0.9-2,2-2h224.28c1.1,0,2,0.9,2,2S244.64,238.94,243.54,238.94z"/>
		</g>
		<g>
			<rect x="35.26" y="92.25" class="st2" width="32" height="128.73"/>
			<path class="st1" d="M67.26,222.99h-32c-1.1,0-2-0.9-2-2V92.26c0-1.1,0.9-2,2-2h32c1.1,0,2,0.9,2,2v128.73
				C69.26,222.09,68.36,222.99,67.26,222.99z M37.26,218.99h28V94.26h-28C37.26,94.26,37.26,218.99,37.26,218.99z"/>
		</g>
		<g>
			<rect x="83.26" y="172.25" class="st2" width="32" height="48.73"/>
			<path class="st1" d="M115.26,222.99h-32c-1.1,0-2-0.9-2-2v-48.73c0-1.1,0.9-2,2-2h32c1.1,0,2,0.9,2,2v48.73
				C117.26,222.09,116.36,222.99,115.26,222.99z M85.26,218.99h28v-44.73h-28V218.99z"/>
		</g>
		<g>
			<rect x="131.26" y="124.25" class="st2" width="32" height="96.73"/>
			<path class="st1" d="M163.26,222.99h-32c-1.1,0-2-0.9-2-2v-96.73c0-1.1,0.9-2,2-2h32c1.1,0,2,0.9,2,2v96.73
				C165.26,222.09,164.36,222.99,163.26,222.99z M133.26,218.99h28v-92.73h-28V218.99z"/>
		</g>
		<g>
			<path class="st1" d="M11.82,25.12c-1.37,0-2.06-1.66-1.08-2.63l6.58-6.55c1.04-1.06,2.75-1.07,3.8-0.02l6.22,6.22
				c1.1,1.1,0.32,2.97-1.23,2.97H11.82V25.12z"/>
		</g>
		<g>
			<path class="st1" d="M235.56,229.69c0-1.37,1.66-2.06,2.63-1.08l6.55,6.58c1.06,1.04,1.07,2.75,0.02,3.8l-6.22,6.22
				c-1.1,1.1-2.97,0.32-2.97-1.23v-14.29H235.56z"/>
		</g>
		<g>
			<rect x="169.1" y="37.25" class="st2" width="64" height="16"/>
			<path class="st1" d="M233.1,55.26h-64c-1.1,0-2-0.9-2-2v-16c0-1.1,0.9-2,2-2h64c1.1,0,2,0.9,2,2v16
				C235.1,54.36,234.21,55.26,233.1,55.26z M171.1,51.26h60v-12h-60V51.26z"/>
		</g>
		<g>
			<line class="st3" x1="35.92" y1="37.25" x2="84.39" y2="37.25"/>
			<path class="st1" d="M84.39,39.26H35.92c-1.1,0-2-0.9-2-2s0.9-2,2-2h48.47c1.1,0,2,0.9,2,2S85.5,39.26,84.39,39.26z"/>
		</g>
		<g>
			<line class="st3" x1="35.92" y1="53.25" x2="84.39" y2="53.25"/>
			<path class="st1" d="M84.39,55.26H35.92c-1.1,0-2-0.9-2-2s0.9-2,2-2h48.47c1.1,0,2,0.9,2,2S85.5,55.26,84.39,55.26z"/>
		</g>
		<g>
			<line class="st3" x1="35.92" y1="69.25" x2="68.39" y2="69.25"/>
			<path class="st1" d="M68.39,71.26H35.92c-1.1,0-2-0.9-2-2s0.9-2,2-2h32.47c1.1,0,2,0.9,2,2S69.5,71.26,68.39,71.26z"/>
		</g>
		<g>
			<g>
				<g>
					<path class="st1" d="M203.23,197.11c5.68,0,10.29-4.61,10.29-10.29s-4.61-10.29-10.29-10.29s-10.29,4.61-10.29,10.29l0,0
						C192.95,192.5,197.55,197.1,203.23,197.11L203.23,197.11z M203.23,180.7c3.38,0,6.12,2.74,6.12,6.12
						c0,3.38-2.74,6.12-6.12,6.12c-3.38,0-6.12-2.74-6.12-6.12S199.85,180.71,203.23,180.7z"/>
				</g>
				<g>
					<path class="st1" d="M183.8,203.15c4.37,0,7.91-3.54,7.91-7.91s-3.54-7.91-7.91-7.91s-7.91,3.54-7.91,7.91
						S179.43,203.15,183.8,203.15L183.8,203.15z M183.8,191.5c2.07,0,3.75,1.68,3.75,3.75s-1.68,3.75-3.75,3.75
						s-3.75-1.68-3.75-3.75C180.05,193.17,181.73,191.5,183.8,191.5L183.8,191.5z"/>
				</g>
				<g>
					<path class="st1" d="M222.66,203.15c4.37,0,7.91-3.54,7.91-7.91c0-4.37-3.54-7.91-7.91-7.91s-7.91,3.54-7.91,7.91l0,0
						C214.75,199.61,218.29,203.15,222.66,203.15z M222.66,191.5c2.07,0,3.75,1.68,3.75,3.75s-1.68,3.75-3.75,3.75
						s-3.75-1.68-3.75-3.75l0,0C218.91,193.17,220.59,191.5,222.66,191.5z"/>
				</g>
				<g>
					<path class="st1" d="M222.93,207.33c-1.83,0.01-3.62,0.48-5.22,1.36c-3.09-4.89-8.43-7.89-14.21-7.99
						c-5.78,0.1-11.13,3.1-14.21,7.99c-1.6-0.88-3.39-1.35-5.22-1.36c-6.82,0.33-12.09,6.11-11.8,12.93c0,1.15,0.93,2.08,2.08,2.08
						c1.15,0,2.08-0.93,2.08-2.08c-0.28-4.52,3.12-8.42,7.63-8.76c1.15,0.01,2.28,0.31,3.28,0.87c-0.98,2.47-1.48,5.11-1.48,7.77
						c0,1.15,0.93,2.08,2.08,2.08c1.15,0,2.08-0.93,2.08-2.08c0-8.42,6.04-15.27,13.46-15.27s13.46,6.85,13.46,15.27
						c0,1.15,0.93,2.08,2.08,2.08s2.08-0.93,2.08-2.08c0-2.66-0.5-5.3-1.48-7.77c1-0.56,2.13-0.86,3.28-0.87
						c4.51,0.34,7.92,4.24,7.63,8.76c0,1.15,0.93,2.08,2.08,2.08c1.15,0,2.08-0.93,2.08-2.08
						C235.02,213.44,229.75,207.66,222.93,207.33L222.93,207.33z"/>
				</g>
			</g>
			<g>
				<path class="st1" d="M232.39,222.26h-57.65c-1.1,0-2-0.9-2-2s0.9-2,2-2h57.65c1.1,0,2,0.9,2,2S233.5,222.26,232.39,222.26z"/>
			</g>
		</g>
	</g>
</g>
</svg>
