<?xml version="1.0" encoding="utf-8"?>
<!-- Generator: Adobe Illustrator 26.1.0, SVG Export Plug-In . SVG Version: 6.00 Build 0)  -->
<svg version="1.1" id="Layer_1" xmlns="http://www.w3.org/2000/svg" xmlns:xlink="http://www.w3.org/1999/xlink" x="0px" y="0px"
	 viewBox="0 0 256 256" style="enable-background:new 0 0 256 256;" xml:space="preserve">
<style type="text/css">
	.st0{fill:#FFFFFF;}
	.st1{fill:#1B401D;}
	.st2{fill:#97CC9A;}
	.st3{fill:none;stroke:#1B401D;stroke-width:4;stroke-linejoin:round;}
</style>
<g>
	<g>
		<g>
			<path class="st0" d="M12.22,253.26c-5.5-0.02-9.97-4.49-9.96-9.97l0.12-130.58L2.26,12c0-2.66,1.03-5.16,2.91-7.04
				c1.89-1.89,4.4-2.93,7.08-2.93L244.27,2.2c5.51,0,9.99,4.47,9.99,9.96v231.9c0,5.49-4.48,9.96-9.99,9.96L12.22,253.26z"/>
		</g>
		<g>
			<g>
				<path class="st1" d="M12.26,4.03L244.27,4.2c4.4,0,7.99,3.58,7.99,7.96v231.9c0,4.39-3.59,7.96-8.02,7.96l-232.24,0
					c-4.4-0.01-7.74-4.36-7.74-8.74L4.37,112.7L4.26,12c0-2.12,0.82-4.12,2.33-5.62C8.1,4.86,10.11,4.03,12.26,4.03L12.26,4.03
					 M12.26,0.03c-6.63,0-12,5.36-11.99,11.98l0.11,100.7L0.26,243.29c-0.01,6.6,5.11,12.72,11.72,12.74l232.24,0
					c0.01,0,0.03,0,0.04,0c6.62,0,11.99-5.35,11.99-11.96V12.16c0-6.6-5.36-11.96-11.99-11.96L12.26,0.03
					C12.26,0.03,12.26,0.03,12.26,0.03L12.26,0.03z"/>
			</g>
		</g>
	</g>
	<g>
		<g>
			<g>
				<path class="st2" d="M166.84,203L166.84,203c-7.29,0-13.21-5.91-13.21-13.21v-7.92h26.42v7.92
					C180.05,197.09,174.14,203,166.84,203z"/>
				<path class="st1" d="M166.84,205c-8.39,0-15.21-6.82-15.21-15.21v-7.92c0-1.1,0.9-2,2-2h26.42c1.1,0,2,0.9,2,2v7.92
					c0,4.06-1.58,7.88-4.45,10.75C174.73,203.42,170.91,205,166.84,205z M155.64,183.87v5.92c0,6.18,5.03,11.21,11.21,11.21
					c2.99,0,5.81-1.17,7.92-3.28c2.12-2.12,3.28-4.93,3.28-7.92v-5.92H155.64z"/>
			</g>
			<g>
				<path class="st2" d="M87.6,203L87.6,203c-7.29,0-13.21-5.91-13.21-13.21v-7.92h26.42v7.92C100.81,197.09,94.89,203,87.6,203z"/>
				<path class="st1" d="M87.6,205c-8.39,0-15.21-6.82-15.21-15.21v-7.92c0-1.1,0.9-2,2-2h26.42c1.1,0,2,0.9,2,2v7.92
					C102.81,198.18,95.98,205,87.6,205z M76.39,183.87v5.92c0,6.18,5.03,11.21,11.21,11.21s11.21-5.03,11.21-11.21v-5.92H76.39z"/>
			</g>
			<g>
				<g>
					<path class="st2" d="M82.78,190.43c-9.35,0-16.95-7.6-16.95-16.95V91.34c0-18.9,15.37-34.27,34.27-34.27h54.26
						c18.9,0,34.27,15.37,34.27,34.27v82.14c0,9.35-7.6,16.95-16.95,16.95H82.78z"/>
				</g>
				<g>
					<path class="st1" d="M154.35,59.07c17.79,0,32.27,14.48,32.27,32.27v82.14c0,8.24-6.71,14.95-14.95,14.95H82.78
						c-8.25,0-14.95-6.71-14.95-14.95V91.34c0-17.79,14.48-32.27,32.27-32.27H154.35 M154.35,55.07h-54.26
						c-20.03,0-36.27,16.24-36.27,36.27v82.14c0,10.47,8.49,18.95,18.95,18.95h88.89c10.47,0,18.95-8.49,18.95-18.95V91.34
						C190.62,71.31,174.38,55.07,154.35,55.07L154.35,55.07z"/>
				</g>
			</g>
			<g>
				<g>
					<path class="st0" d="M74.37,142.89c-4.71,0-8.54-3.83-8.54-8.54V92.03c0-4.71,3.83-8.54,8.54-8.54h105.71
						c4.71,0,8.54,3.83,8.54,8.54v42.31c0,4.71-3.83,8.54-8.54,8.54H74.37z"/>
				</g>
				<g>
					<path class="st1" d="M180.08,85.49c3.61,0,6.54,2.94,6.54,6.54v42.31c0,3.61-2.94,6.54-6.54,6.54H74.37
						c-3.61,0-6.54-2.94-6.54-6.54V92.03c0-3.61,2.94-6.54,6.54-6.54H180.08 M180.08,81.49H74.37c-5.82,0-10.54,4.72-10.54,10.54
						v42.31c0,5.82,4.72,10.54,10.54,10.54h105.71c5.82,0,10.54-4.72,10.54-10.54V92.03C190.62,86.21,185.9,81.49,180.08,81.49
						L180.08,81.49z"/>
				</g>
			</g>
			<g>
				<g>
					<path class="st0" d="M87.6,169.3c-3.27,0-5.92-2.66-5.92-5.92s2.66-5.92,5.92-5.92s5.92,2.66,5.92,5.92S90.87,169.3,87.6,169.3
						z"/>
				</g>
				<g>
					<path class="st1" d="M87.6,159.45c2.16,0,3.92,1.76,3.92,3.92s-1.76,3.92-3.92,3.92s-3.92-1.76-3.92-3.92
						S85.44,159.45,87.6,159.45 M87.6,155.45c-4.38,0-7.92,3.55-7.92,7.92s3.55,7.92,7.92,7.92s7.92-3.55,7.92-7.92
						S91.98,155.45,87.6,155.45L87.6,155.45z"/>
				</g>
			</g>
			<g>
				<g>
					<path class="st0" d="M166.84,169.3c-3.27,0-5.92-2.66-5.92-5.92s2.66-5.92,5.92-5.92s5.92,2.66,5.92,5.92
						S170.11,169.3,166.84,169.3z"/>
				</g>
				<g>
					<path class="st1" d="M166.84,159.45c2.16,0,3.92,1.76,3.92,3.92s-1.76,3.92-3.92,3.92s-3.92-1.76-3.92-3.92
						S164.68,159.45,166.84,159.45 M166.84,155.45c-4.38,0-7.92,3.55-7.92,7.92s3.55,7.92,7.92,7.92s7.92-3.55,7.92-7.92
						S171.22,155.45,166.84,155.45L166.84,155.45z"/>
				</g>
			</g>
			<g>
				<path class="st1" d="M201.18,120.47c-1.1,0-2-0.9-2-2v-29.7h-8.57c-1.1,0-2-0.9-2-2s0.9-2,2-2h10.57c1.1,0,2,0.9,2,2v31.7
					C203.18,119.57,202.29,120.47,201.18,120.47z"/>
			</g>
			<g>
				<path class="st1" d="M53.26,120.47c-1.1,0-2-0.9-2-2v-31.7c0-1.1,0.9-2,2-2h10.57c1.1,0,2,0.9,2,2s-0.9,2-2,2h-8.57v29.7
					C55.26,119.57,54.36,120.47,53.26,120.47z"/>
			</g>
			<g>
				<rect x="125.22" y="81.49" class="st1" width="4" height="63.4"/>
			</g>
		</g>
		<g>
			<path class="st3" d="M239.28,186.98"/>
		</g>
		<g>
			<g>
				<g>
					<g>
						<path class="st1" d="M188.8,17.35c0.74,2.07,1.99,4.24,3.03,5.28l8.23,8.23l-4.32,27.47l6.99,6.99l8.95-22.84l7.46,7.46
							l0.61,10.41l4.99,4.99l5.46-11.29l3.16,3.16l2.32-2.32l-3.17-3.17l11.3-5.45l-4.99-4.99l-10.41-0.61l-7.34-7.34l22.85-8.95
							l-6.99-6.99l-27.48,4.32l-8.35-8.35c-1.04-1.04-3.21-2.28-5.28-3.03c-3.01-1.08-5.3-0.95-6.63,0.38
							C187.85,12.04,187.72,14.33,188.8,17.35z M218.54,30.81l-6.23-6.23l23.48-3.69l2.27,2.27L218.54,30.81z M202.92,33.72
							l6.23,6.23l-7.64,19.51l-2.27-2.27L202.92,33.72z M191.49,13.03c0.18-0.18,1.23-0.32,3.21,0.39c1.75,0.63,3.47,1.66,4.07,2.26
							l28.19,28.19l10.41,0.61l0.85,0.85l-8.17,3.94l-2.84-2.84l-2.32,2.32l2.85,2.85l-3.95,8.17l-0.85-0.85l-0.61-10.41
							l-28.19-28.19c-0.6-0.6-1.63-2.33-2.26-4.07C191.17,14.26,191.32,13.21,191.49,13.03z"/>
					</g>
				</g>
			</g>
		</g>
		<g>
			<g>
				<g>
					<path class="st1" d="M245.11,240.89c-2,0-2.9-0.45-4.04-1.02c-0.47-0.23-0.97-0.48-1.54-0.7l6.12-16.1
						c0.48-1.25,0.4-2.66-0.22-3.85c-0.61-1.19-1.71-2.07-3.01-2.41l-4.21-1.1v-12.64c0-2.65-2.16-4.81-4.81-4.81h-8.32v-4.68
						c0-3.72-3.03-6.75-6.75-6.75h-4.67c-3.72,0-6.75,3.03-6.75,6.75v4.68h-8.32c-2.65,0-4.81,2.16-4.81,4.81v12.64l-4.21,1.1
						c-1.3,0.34-2.39,1.22-3.01,2.41c-0.61,1.19-0.69,2.59-0.22,3.85l6.12,16.1c-0.57,0.22-1.07,0.46-1.54,0.7
						c-1.14,0.57-2.04,1.02-4.05,1.02c-1,0-1.81,0.81-1.81,1.81s0.81,1.81,1.81,1.81c2.85,0,4.34-0.74,5.66-1.4
						c1.14-0.57,2.04-1.02,4.05-1.02s2.9,0.45,4.05,1.02c1.32,0.66,2.81,1.4,5.66,1.4c2.85,0,4.34-0.74,5.66-1.4
						c1.14-0.57,2.04-1.02,4.04-1.02c2,0,2.9,0.45,4.04,1.02c1.32,0.66,2.81,1.4,5.66,1.4c2.85,0,4.34-0.74,5.66-1.4
						c1.14-0.57,2.04-1.02,4.04-1.02c2,0,2.9,0.45,4.04,1.02c1.32,0.66,2.81,1.4,5.66,1.4c1,0,1.81-0.81,1.81-1.81
						S246.11,240.89,245.11,240.89L245.11,240.89z M210.53,193.59c0-1.72,1.4-3.13,3.13-3.13h4.67c1.72,0,3.13,1.4,3.13,3.13v4.68
						h-10.92V193.59z M197.4,203.08c0-0.65,0.53-1.19,1.19-1.19h34.81c0.65,0,1.19,0.53,1.19,1.19v11.69l-18.13-4.74
						c-0.3-0.08-0.62-0.08-0.92,0l-18.13,4.74L197.4,203.08L197.4,203.08z M229.74,239.88c-1.14,0.57-2.04,1.02-4.04,1.02
						c-2,0-2.9-0.45-4.04-1.02c-1.32-0.66-2.81-1.4-5.66-1.4c-2.85,0-4.34,0.74-5.66,1.4c-1.14,0.57-2.04,1.02-4.04,1.02
						c-2,0-2.9-0.45-4.05-1.02c-1.32-0.66-2.81-1.4-5.66-1.4c-0.17,0-0.34,0-0.51,0.01l-6.35-16.7c-0.15-0.4-0.03-0.73,0.05-0.9
						c0.08-0.16,0.29-0.45,0.7-0.56l25.51-6.67l25.51,6.67c0.41,0.11,0.62,0.4,0.7,0.56c0.08,0.16,0.2,0.5,0.05,0.9l-6.35,16.7
						c-0.16-0.01-0.33-0.01-0.51-0.01C232.55,238.48,231.06,239.22,229.74,239.88L229.74,239.88z"/>
				</g>
				<g>
					<path class="st1" d="M232.75,222.93l-16.3-4.26c-0.3-0.08-0.62-0.08-0.92,0l-16.3,4.26c-0.97,0.25-1.55,1.24-1.3,2.21
						c0.25,0.97,1.24,1.55,2.21,1.3l15.84-4.14l15.84,4.14c0.15,0.04,0.31,0.06,0.46,0.06c0.8,0,1.54-0.54,1.75-1.35
						C234.29,224.18,233.71,223.19,232.75,222.93L232.75,222.93z"/>
				</g>
			</g>
		</g>
		<g>
			<g>
				<g>
					<path class="st1" d="M67.02,28.68l1.66-2.77h1.43c0.95,0,1.72-0.77,1.72-1.72c0-0.95-0.77-1.72-1.72-1.72h-2.41
						c-0.6,0-1.16,0.32-1.47,0.83l-1.4,2.33l-2.31-8.08c-0.91-3.18-3.85-5.4-7.16-5.4H29.64c-3.31,0-6.25,2.22-7.16,5.4l-2.31,8.08
						l-1.4-2.33c-0.31-0.52-0.87-0.83-1.47-0.83H14.9c-0.95,0-1.72,0.77-1.72,1.72c0,0.95,0.77,1.72,1.72,1.72h1.43l1.66,2.77
						c-2.81,1.07-4.82,3.79-4.82,6.97v12.83c0,0.95,0.77,1.72,1.72,1.72h2.98v2.86c0,2.21,1.8,4.01,4.01,4.01h4.58
						c2.21,0,4.01-1.8,4.01-4.01v-2.86h24.06v2.86c0,2.21,1.8,4.01,4.01,4.01h4.58c2.21,0,4.01-1.8,4.01-4.01v-2.86h2.98
						c0.95,0,1.72-0.77,1.72-1.72V35.64C71.84,32.46,69.83,29.74,67.02,28.68z M25.79,18.5c0.49-1.71,2.07-2.91,3.86-2.91h25.73
						c1.78,0,3.37,1.2,3.86,2.91L62,28.2h-3.05c-0.8-3.92-4.27-6.87-8.42-6.87s-7.62,2.96-8.42,6.87H23.02L25.79,18.5z M45.67,28.2
						c0.71-2,2.62-3.44,4.86-3.44s4.15,1.44,4.86,3.44H45.67z M27.04,53.06c0,0.32-0.26,0.57-0.57,0.57h-4.58
						c-0.32,0-0.57-0.26-0.57-0.57v-2.86h5.73V53.06z M37.35,46.76v-4.81h10.31v4.81H37.35z M63.7,53.06c0,0.32-0.26,0.57-0.57,0.57
						h-4.58c-0.32,0-0.57-0.26-0.57-0.57v-2.86h5.73V53.06z M68.4,46.76H51.1v-6.53c0-0.95-0.77-1.72-1.72-1.72H35.63
						c-0.95,0-1.72,0.77-1.72,1.72v6.53h-17.3V35.64c0-2.21,1.8-4.01,4.01-4.01h0.11c0,0,0.01,0,0.01,0c0,0,0.01,0,0.01,0h43.52
						c0,0,0.01,0,0.01,0c0,0,0.01,0,0.01,0h0.11c2.21,0,4.01,1.8,4.01,4.01V46.76z"/>
				</g>
				<g>
					<path class="st1" d="M59.69,34.04c-2.84,0-5.16,2.31-5.16,5.16c0,2.84,2.31,5.16,5.16,5.16s5.16-2.31,5.16-5.16
						C64.85,36.35,62.54,34.04,59.69,34.04z M59.69,40.91c-0.95,0-1.72-0.77-1.72-1.72c0-0.95,0.77-1.72,1.72-1.72
						s1.72,0.77,1.72,1.72C61.41,40.14,60.64,40.91,59.69,40.91z"/>
				</g>
				<g>
					<path class="st1" d="M25.32,34.04c-2.84,0-5.16,2.31-5.16,5.16c0,2.84,2.31,5.16,5.16,5.16s5.16-2.31,5.16-5.16
						C30.48,36.35,28.17,34.04,25.32,34.04z M25.32,40.91c-0.95,0-1.72-0.77-1.72-1.72c0-0.95,0.77-1.72,1.72-1.72
						s1.72,0.77,1.72,1.72C27.04,40.14,26.27,40.91,25.32,40.91z"/>
				</g>
			</g>
		</g>
		<g>
			<g>
				<path class="st1" d="M71.24,240.53H64.5c0.2-0.56,0.31-1.16,0.31-1.79v-1.79h6.44c0.99,0,1.79-0.8,1.79-1.79v-3.89
					c0-4.37-1.2-8.67-3.57-12.79c-2.17-3.77-5.21-7.21-9.04-10.23c-7.42-5.85-17.03-9.34-25.7-9.34H13.78
					c-0.99,0-1.79,0.8-1.79,1.79v34.46c0,0.99,0.8,1.79,1.79,1.79h33.14v1.79c0,0.63,0.11,1.23,0.31,1.79H13.78
					c-0.99,0-1.79,0.8-1.79,1.79c0,0.99,0.8,1.79,1.79,1.79h57.47c0.99,0,1.79-0.8,1.79-1.79
					C73.03,241.33,72.23,240.53,71.24,240.53L71.24,240.53z M61.23,238.74c0,0.99-0.8,1.79-1.79,1.79c-0.99,0-1.79-0.8-1.79-1.79
					v-1.79h3.58V238.74z M66.36,220.27c0.47,0.82,0.89,1.64,1.25,2.47H53.75c-4.9,0-8.98-3.54-9.83-8.2h18.1
					C63.75,216.35,65.21,218.29,66.36,220.27L66.36,220.27z M34.71,202.5c7.85,0,16.56,3.16,23.36,8.47H41.97
					c-0.99,0-1.79,0.8-1.79,1.79c0,7.48,6.09,13.57,13.57,13.57h15.08c0.41,1.64,0.62,3.3,0.62,4.96v2.1H35.11v-20.63
					c0-0.99-0.8-1.79-1.79-1.79H15.57v-8.47H34.71z M15.57,214.54h5.8v7.63h-5.8V214.54z M15.57,225.75h5.8v7.63h-5.8V225.75z
					 M24.95,233.38v-18.84h6.59v18.84H24.95z M50.5,238.74v-1.79h3.58v1.79c0,0.99-0.8,1.79-1.79,1.79S50.5,239.73,50.5,238.74z"/>
			</g>
		</g>
	</g>
</g>
</svg>
