<?xml version="1.0" encoding="utf-8"?>
<!-- Generator: Adobe Illustrator 26.1.0, SVG Export Plug-In . SVG Version: 6.00 Build 0)  -->
<svg version="1.1" id="Layer_1" xmlns="http://www.w3.org/2000/svg" xmlns:xlink="http://www.w3.org/1999/xlink" x="0px" y="0px"
	 viewBox="0 0 256 256" style="enable-background:new 0 0 256 256;" xml:space="preserve">
<style type="text/css">
	.st0{fill:#FFFFFF;}
	.st1{fill:#1B401D;}
	.st2{fill:#97CC9A;}
	.st3{display:none;}
	.st4{display:inline;}
</style>
<g>
	<g>
		<g>
			<path class="st0" d="M12.29,253.85c-5.5-0.02-10.01-5.08-10-10.56L2.4,112.71L2.29,12c0-2.66,1.03-5.16,2.91-7.04
				c1.89-1.89,4.4-2.93,7.08-2.93L244.3,2.2c5.51,0,9.99,4.47,9.99,9.96v231.9c0,5.49-4.48,9.96-9.99,9.96L12.29,253.85z"/>
		</g>
		<g>
			<g>
				<path class="st1" d="M12.29,4.03L244.3,4.2c4.4,0,7.99,3.58,7.99,7.96v231.9c0,4.39-3.59,7.96-8.02,7.96l-231.97-0.18
					c-4.4-0.01-8.01-4.17-8.01-8.55L4.4,112.7L4.29,12c0-2.12,0.82-4.12,2.33-5.62C8.13,4.86,10.14,4.03,12.29,4.03L12.29,4.03
					 M12.28,0.03c-6.63,0-12,5.36-11.99,11.98l0.11,100.7L0.28,243.29c-0.01,6.6,5.38,12.54,12,12.56l231.97,0.18
					c0.01,0,0.03,0,0.04,0c6.62,0,11.99-5.35,11.99-11.96V12.16c0-6.6-5.36-11.96-11.99-11.96L12.28,0.03
					C12.29,0.03,12.29,0.03,12.28,0.03L12.28,0.03z"/>
			</g>
		</g>
	</g>
	<g>
		<g>
			<path class="st2" d="M12.27,254.21c-5.51,0-10.04-5.07-10.04-10.58v-106h252v106c0,5.51-4.49,10-10,10L12.27,254.21z"/>
		</g>
		<g>
			<path class="st1" d="M252.23,139.63v104c0,4.41-3.59,8-8,8l-231.96,0.58c-4.41,0-8.04-4.17-8.04-8.58v-104H252.23 M256.23,135.63
				h-256v108c0,6.63,5.41,12.58,12.04,12.58l231.96-0.58c6.63,0,12-5.37,12-12V135.63L256.23,135.63z"/>
		</g>
	</g>
	<g>
		<g>
			<path class="st0" d="M2.23,189.63v-28h78c7.72,0,14,6.28,14,14s-6.28,14-14,14H2.23z"/>
		</g>
		<g>
			<g>
				<path class="st1" d="M80.23,163.63c6.62,0,12,5.38,12,12c0,6.62-5.38,12-12,12h-76v-24H80.23 M80.23,159.63h-80v32h80
					c8.84,0,16-7.16,16-16C96.23,166.79,89.06,159.63,80.23,159.63L80.23,159.63z"/>
			</g>
		</g>
	</g>
	<g>
		<g>
			<path class="st0" d="M168.23,205.63c-7.72,0-14-6.28-14-14s6.28-14,14-14h86v28H168.23z"/>
		</g>
		<g>
			<g>
				<path class="st1" d="M252.23,179.63v24h-84c-6.62,0-12-5.38-12-12s5.38-12,12-12H252.23 M256.23,175.63h-88
					c-8.84,0-16,7.16-16,16c0,8.84,7.16,16,16,16h88V175.63L256.23,175.63z"/>
			</g>
		</g>
	</g>
	<g>
		<g>
			<path class="st0" d="M64.23,237.63c-7.72,0-14-6.28-14-14s6.28-14,14-14h56c7.72,0,14,6.28,14,14s-6.28,14-14,14H64.23z"/>
		</g>
		<g>
			<g>
				<path class="st1" d="M120.23,211.63c6.62,0,12,5.38,12,12s-5.38,12-12,12h-56c-6.62,0-12-5.38-12-12s5.38-12,12-12H120.23
					 M120.23,207.63h-56c-8.84,0-16,7.16-16,16c0,8.84,7.16,16,16,16h56c8.84,0,16-7.16,16-16
					C136.23,214.79,129.06,207.63,120.23,207.63L120.23,207.63z"/>
			</g>
		</g>
	</g>
	<g>
		<g>
			<path class="st1" d="M144.23,137.63L144.23,137.63c-1.1,0-2-0.9-2-2l0-120c0-1.1,0.9-2,2-2l0,0c1.1,0,2,0.9,2,2l0,120
				C146.23,136.73,145.33,137.63,144.23,137.63z"/>
		</g>
		<g>
			<path class="st1" d="M160.23,137.63c-1.1,0-2-0.9-2-2c0-44.95,21.32-78.14,32.59-89.41c0.78-0.78,2.05-0.78,2.83,0
				s0.78,2.05,0,2.83c-10.87,10.87-31.41,42.95-31.41,86.59C162.23,136.73,161.33,137.63,160.23,137.63z"/>
		</g>
		<g class="st3">
			<g class="st4">
				<path class="st1" d="M136.23,137.63c-1.1,0-2-0.9-2-2c0-47.39-15.38-70.46-31.66-94.89c-0.61-0.92-0.36-2.16,0.55-2.77
					c0.92-0.62,2.16-0.36,2.77,0.55c15.9,23.85,32.34,48.5,32.34,97.11C138.23,136.73,137.33,137.63,136.23,137.63z"/>
			</g>
			<g class="st4">
				<path class="st2" d="M129.87,86.81L129.87,86.81c-3.95,1.94-8.77,0.3-10.71-3.65l-14.11-28.72c-1.94-3.95-0.3-8.77,3.65-10.71
					l0,0c3.95-1.94,8.77-0.3,10.71,3.65l14.11,28.72C135.46,80.05,133.81,84.87,129.87,86.81z"/>
				<path class="st1" d="M126.36,89.63c-1.09,0-2.19-0.18-3.25-0.54c-2.54-0.86-4.58-2.66-5.75-5.05l-14.11-28.72
					c-2.43-4.95-0.39-10.95,4.56-13.39c4.95-2.44,10.96-0.38,13.39,4.56l14.11,28.72c2.43,4.95,0.38,10.95-4.56,13.39c0,0,0,0,0,0
					C129.36,89.29,127.87,89.63,126.36,89.63z M112.2,44.92c-0.9,0-1.79,0.21-2.62,0.61c-2.97,1.46-4.2,5.06-2.74,8.03l14.11,28.72
					c0.7,1.43,1.93,2.5,3.45,3.02c1.52,0.52,3.15,0.42,4.58-0.29c2.97-1.46,4.2-5.06,2.74-8.03l-14.11-28.72
					c-0.7-1.43-1.93-2.5-3.45-3.02C113.51,45.02,112.85,44.92,112.2,44.92z"/>
			</g>
		</g>
		<g>
			<path class="st2" d="M144.23,71.63L144.23,71.63c-4.4,0-8-3.6-8-8v-32c0-4.4,3.6-8,8-8h0c4.4,0,8,3.6,8,8v32
				C152.23,68.03,148.63,71.63,144.23,71.63z"/>
			<path class="st1" d="M144.23,73.63c-5.51,0-10-4.49-10-10v-32c0-5.51,4.49-10,10-10s10,4.49,10,10v32
				C154.23,69.14,149.74,73.63,144.23,73.63z M144.23,25.63c-3.31,0-6,2.69-6,6v32c0,3.31,2.69,6,6,6s6-2.69,6-6v-32
				C150.23,28.32,147.54,25.63,144.23,25.63z"/>
		</g>
		<g>
			<path class="st2" d="M164.54,94.74L164.54,94.74c-3.91-2.02-5.45-6.88-3.43-10.78l14.71-28.42c2.02-3.91,6.88-5.45,10.78-3.43
				l0,0c3.91,2.02,5.45,6.88,3.43,10.78l-14.71,28.42C173.3,95.22,168.45,96.76,164.54,94.74z"/>
			<path class="st1" d="M168.19,97.63c-1.58,0-3.13-0.38-4.57-1.12c-2.36-1.22-4.11-3.3-4.92-5.86s-0.58-5.26,0.64-7.62l14.71-28.42
				c1.22-2.36,3.3-4.11,5.86-4.92c2.55-0.81,5.26-0.58,7.62,0.64c2.36,1.22,4.11,3.3,4.92,5.86c0.81,2.55,0.58,5.26-0.64,7.62
				L177.1,92.23c-1.22,2.36-3.3,4.11-5.86,4.92C170.24,97.47,169.21,97.63,168.19,97.63z M182.95,53.22c-2.17,0-4.27,1.18-5.34,3.24
				l-14.71,28.42c-1.52,2.94-0.37,6.57,2.57,8.09c1.41,0.73,3.04,0.87,4.57,0.38c1.53-0.49,2.78-1.54,3.51-2.95l14.71-28.42
				c0.73-1.42,0.87-3.04,0.38-4.57c-0.49-1.53-1.54-2.78-2.95-3.51C184.82,53.43,183.87,53.22,182.95,53.22z"/>
		</g>
	</g>
	<g>
		<path class="st1" d="M48.23,177.63h-32c-1.1,0-2-0.9-2-2s0.9-2,2-2h32c1.1,0,2,0.9,2,2S49.33,177.63,48.23,177.63z"/>
	</g>
	<g>
		<path class="st1" d="M72.23,177.63h-8c-1.1,0-2-0.9-2-2s0.9-2,2-2h8c1.1,0,2,0.9,2,2S73.33,177.63,72.23,177.63z"/>
	</g>
	<g>
		<path class="st1" d="M200.23,193.63h-24c-1.1,0-2-0.9-2-2s0.9-2,2-2h24c1.1,0,2,0.9,2,2S201.33,193.63,200.23,193.63z"/>
	</g>
	<g>
		<path class="st2" d="M151.08,137.23L115.65,77.4c-2.47-4.16-8.45-4.28-11.08-0.22l-23.22,35.89l25.63-18.88
			c1.79-1.32,4.33-0.64,5.22,1.39l18.3,41.64H151.08z"/>
		<path class="st1" d="M151.08,139.23h-20.57c-0.79,0-1.51-0.47-1.83-1.2l-18.3-41.64c-0.25-0.56-0.71-0.76-0.96-0.83
			c-0.25-0.07-0.75-0.13-1.25,0.24l-25.63,18.88c-0.78,0.57-1.85,0.51-2.56-0.15c-0.7-0.66-0.83-1.73-0.31-2.54l23.22-35.89
			c1.58-2.45,4.24-3.89,7.15-3.89c0.06,0,0.12,0,0.17,0c2.97,0.06,5.65,1.62,7.16,4.17l35.44,59.83c0.37,0.62,0.37,1.39,0.02,2.01
			C152.47,138.84,151.8,139.23,151.08,139.23z M131.82,135.23h15.76l-33.65-56.81c-0.8-1.36-2.22-2.18-3.8-2.21
			c-0.03,0-0.06,0-0.09,0c-1.54,0-2.95,0.77-3.79,2.06l-17.28,26.71l16.83-12.39c1.34-0.99,3.04-1.31,4.65-0.88
			c1.61,0.43,2.92,1.55,3.59,3.08L131.82,135.23z"/>
	</g>
	<g>
		<path class="st1" d="M120.23,225.63h-16c-1.1,0-2-0.9-2-2s0.9-2,2-2h16c1.1,0,2,0.9,2,2S121.33,225.63,120.23,225.63z"/>
	</g>
</g>
</svg>
