<svg width="24" height="24" viewBox="0 0 24 24" fill="none" xmlns="http://www.w3.org/2000/svg">
<path fill-rule="evenodd" clip-rule="evenodd" d="M8 3C8.53043 3 9.03914 3.21071 9.41421 3.58579C9.78929 3.96086 10 4.46957 10 5V8H16C16.5304 8 17.0391 8.21071 17.4142 8.58579C17.7893 8.96086 18 9.46957 18 10C18 10.5304 17.7893 11.0391 17.4142 11.4142C17.0391 11.7893 16.5304 12 16 12H10V14C10 14.7956 10.3161 15.5587 10.8787 16.1213C11.4413 16.6839 12.2044 17 13 17H16C16.5304 17 17.0391 17.2107 17.4142 17.5858C17.7893 17.9609 18 18.4696 18 19C18 19.5304 17.7893 20.0391 17.4142 20.4142C17.0391 20.7893 16.5304 21 16 21H13C11.1435 21 9.36301 20.2625 8.05025 18.9497C6.7375 17.637 6 15.8565 6 14V5C6 4.46957 6.21071 3.96086 6.58579 3.58579C6.96086 3.21071 7.46957 3 8 3Z" fill="white"/>
</svg>
