<svg width="13" height="12" viewBox="0 0 13 12" fill="none" xmlns="http://www.w3.org/2000/svg">
<path d="M10.1458 10.6875H2.85418C2.27891 10.6875 1.8125 10.2211 1.8125 9.64583V2.35418C1.8125 1.77891 2.27891 1.3125 2.85417 1.3125H10.1458C10.7211 1.3125 11.1875 1.77891 11.1875 2.35417V9.64582C11.1875 10.2211 10.7211 10.6875 10.1458 10.6875Z" fill="#075192"/>
<path d="M9.17188 8.61328H7.49541L3.85156 3.41016H5.52802L9.17188 8.61328ZM7.69517 8.17206H8.36267L5.32828 3.85137H4.66078L7.69517 8.17206Z" fill="white"/>
<path d="M4.38239 8.61328L6.25391 6.44218L6.00915 6.11719L3.85156 8.61328H4.38239Z" fill="white"/>
<path d="M6.60547 5.39516L6.84234 5.73047L8.87891 3.38672H8.35543L6.60547 5.39516Z" fill="white"/>
</svg>

